%TF.GenerationSoftware,KiCad,Pcbnew,8.0.0*%
%TF.CreationDate,2024-04-21T19:32:52-04:00*%
%TF.ProjectId,9_motorized_pinwheel,395f6d6f-746f-4726-997a-65645f70696e,rev?*%
%TF.SameCoordinates,Original*%
%TF.FileFunction,Soldermask,Bot*%
%TF.FilePolarity,Negative*%
%FSLAX46Y46*%
G04 Gerber Fmt 4.6, Leading zero omitted, Abs format (unit mm)*
G04 Created by KiCad (PCBNEW 8.0.0) date 2024-04-21 19:32:52*
%MOMM*%
%LPD*%
G01*
G04 APERTURE LIST*
%ADD10R,1.700000X1.700000*%
%ADD11O,1.700000X1.700000*%
%ADD12C,1.524000*%
%ADD13R,1.800000X1.800000*%
%ADD14O,1.800000X1.800000*%
%ADD15C,3.200000*%
%ADD16C,1.600000*%
%ADD17O,1.600000X1.600000*%
%ADD18O,1.728000X3.252000*%
G04 APERTURE END LIST*
D10*
%TO.C,J1*%
X127940000Y-97460000D03*
D11*
X130480000Y-97460000D03*
X133020000Y-97460000D03*
X135560000Y-97460000D03*
X138100000Y-97460000D03*
X140640000Y-97460000D03*
X143180000Y-97460000D03*
X145720000Y-97460000D03*
%TD*%
D10*
%TO.C,J3*%
X150800000Y-97460000D03*
D11*
X153340000Y-97460000D03*
X155880000Y-97460000D03*
X158420000Y-97460000D03*
X160960000Y-97460000D03*
X163500000Y-97460000D03*
%TD*%
D10*
%TO.C,J2*%
X118796000Y-49200000D03*
D11*
X121336000Y-49200000D03*
X123876000Y-49200000D03*
X126416000Y-49200000D03*
X128956000Y-49200000D03*
X131496000Y-49200000D03*
X134036000Y-49200000D03*
X136576000Y-49200000D03*
X139116000Y-49200000D03*
X141656000Y-49200000D03*
%TD*%
D10*
%TO.C,J4*%
X145720000Y-49200000D03*
D11*
X148260000Y-49200000D03*
X150800000Y-49200000D03*
X153340000Y-49200000D03*
X155880000Y-49200000D03*
X158420000Y-49200000D03*
X160960000Y-49200000D03*
X163500000Y-49200000D03*
%TD*%
D12*
%TO.C,SW1*%
X150000000Y-56500000D03*
X156500000Y-56500000D03*
X156500000Y-61000000D03*
X150000000Y-61000000D03*
%TD*%
D13*
%TO.C,D1*%
X113690000Y-79000000D03*
D14*
X121310000Y-79000000D03*
%TD*%
D10*
%TO.C,M1*%
X104960000Y-72000000D03*
D11*
X107500000Y-72000000D03*
%TD*%
D15*
%TO.C,MH1*%
X115240000Y-49200000D03*
%TD*%
D10*
%TO.C,BT1*%
X103460000Y-83500000D03*
D11*
X106000000Y-83500000D03*
%TD*%
D16*
%TO.C,R1*%
X140500000Y-57000000D03*
D17*
X130340000Y-57000000D03*
%TD*%
D15*
%TO.C,MH2*%
X113970000Y-97460000D03*
%TD*%
%TO.C,MH3*%
X166040000Y-64440000D03*
%TD*%
D18*
%TO.C,Q1*%
X138500000Y-73000000D03*
X141040000Y-73000000D03*
X135960000Y-73000000D03*
%TD*%
D15*
%TO.C,MH4*%
X166040000Y-92380000D03*
%TD*%
M02*
