%TF.GenerationSoftware,KiCad,Pcbnew,8.0.0*%
%TF.CreationDate,2024-04-21T19:32:52-04:00*%
%TF.ProjectId,9_motorized_pinwheel,395f6d6f-746f-4726-997a-65645f70696e,rev?*%
%TF.SameCoordinates,Original*%
%TF.FileFunction,Copper,L2,Bot*%
%TF.FilePolarity,Positive*%
%FSLAX46Y46*%
G04 Gerber Fmt 4.6, Leading zero omitted, Abs format (unit mm)*
G04 Created by KiCad (PCBNEW 8.0.0) date 2024-04-21 19:32:52*
%MOMM*%
%LPD*%
G01*
G04 APERTURE LIST*
%TA.AperFunction,ComponentPad*%
%ADD10R,1.700000X1.700000*%
%TD*%
%TA.AperFunction,ComponentPad*%
%ADD11O,1.700000X1.700000*%
%TD*%
%TA.AperFunction,ComponentPad*%
%ADD12C,1.524000*%
%TD*%
%TA.AperFunction,ComponentPad*%
%ADD13R,1.800000X1.800000*%
%TD*%
%TA.AperFunction,ComponentPad*%
%ADD14O,1.800000X1.800000*%
%TD*%
%TA.AperFunction,ComponentPad*%
%ADD15C,1.600000*%
%TD*%
%TA.AperFunction,ComponentPad*%
%ADD16O,1.600000X1.600000*%
%TD*%
%TA.AperFunction,ComponentPad*%
%ADD17O,1.524000X3.048000*%
%TD*%
%ADD18C,0.350000*%
G04 APERTURE END LIST*
D10*
%TO.P,J1,1,Pin_1*%
%TO.N,unconnected-(J1-Pin_1-Pad1)*%
X127940000Y-97460000D03*
D11*
%TO.P,J1,2,Pin_2*%
%TO.N,/IOREF*%
X130480000Y-97460000D03*
%TO.P,J1,3,Pin_3*%
%TO.N,/~{RESET}*%
X133020000Y-97460000D03*
%TO.P,J1,4,Pin_4*%
%TO.N,+3V3*%
X135560000Y-97460000D03*
%TO.P,J1,5,Pin_5*%
%TO.N,+5V*%
X138100000Y-97460000D03*
%TO.P,J1,6,Pin_6*%
%TO.N,GND*%
X140640000Y-97460000D03*
%TO.P,J1,7,Pin_7*%
X143180000Y-97460000D03*
%TO.P,J1,8,Pin_8*%
%TO.N,VCC*%
X145720000Y-97460000D03*
%TD*%
D10*
%TO.P,J3,1,Pin_1*%
%TO.N,/A0*%
X150800000Y-97460000D03*
D11*
%TO.P,J3,2,Pin_2*%
%TO.N,/A1*%
X153340000Y-97460000D03*
%TO.P,J3,3,Pin_3*%
%TO.N,/A2*%
X155880000Y-97460000D03*
%TO.P,J3,4,Pin_4*%
%TO.N,/A3*%
X158420000Y-97460000D03*
%TO.P,J3,5,Pin_5*%
%TO.N,/SDA{slash}A4*%
X160960000Y-97460000D03*
%TO.P,J3,6,Pin_6*%
%TO.N,/SCL{slash}A5*%
X163500000Y-97460000D03*
%TD*%
D10*
%TO.P,J2,1,Pin_1*%
%TO.N,/SCL{slash}A5*%
X118796000Y-49200000D03*
D11*
%TO.P,J2,2,Pin_2*%
%TO.N,/SDA{slash}A4*%
X121336000Y-49200000D03*
%TO.P,J2,3,Pin_3*%
%TO.N,/AREF*%
X123876000Y-49200000D03*
%TO.P,J2,4,Pin_4*%
%TO.N,GND*%
X126416000Y-49200000D03*
%TO.P,J2,5,Pin_5*%
%TO.N,/13*%
X128956000Y-49200000D03*
%TO.P,J2,6,Pin_6*%
%TO.N,/12*%
X131496000Y-49200000D03*
%TO.P,J2,7,Pin_7*%
%TO.N,/\u002A11*%
X134036000Y-49200000D03*
%TO.P,J2,8,Pin_8*%
%TO.N,/\u002A10*%
X136576000Y-49200000D03*
%TO.P,J2,9,Pin_9*%
%TO.N,/\u002A9*%
X139116000Y-49200000D03*
%TO.P,J2,10,Pin_10*%
%TO.N,/8*%
X141656000Y-49200000D03*
%TD*%
D10*
%TO.P,J4,1,Pin_1*%
%TO.N,/7*%
X145720000Y-49200000D03*
D11*
%TO.P,J4,2,Pin_2*%
%TO.N,/\u002A6*%
X148260000Y-49200000D03*
%TO.P,J4,3,Pin_3*%
%TO.N,/\u002A5*%
X150800000Y-49200000D03*
%TO.P,J4,4,Pin_4*%
%TO.N,/4*%
X153340000Y-49200000D03*
%TO.P,J4,5,Pin_5*%
%TO.N,/\u002A3*%
X155880000Y-49200000D03*
%TO.P,J4,6,Pin_6*%
%TO.N,/2*%
X158420000Y-49200000D03*
%TO.P,J4,7,Pin_7*%
%TO.N,/TX{slash}1*%
X160960000Y-49200000D03*
%TO.P,J4,8,Pin_8*%
%TO.N,/RX{slash}0*%
X163500000Y-49200000D03*
%TD*%
D12*
%TO.P,SW1,1,1*%
%TO.N,/2*%
X150000000Y-56500000D03*
%TO.P,SW1,2,2*%
%TO.N,+5V*%
X156500000Y-56500000D03*
%TO.P,SW1,3*%
%TO.N,N/C*%
X156500000Y-61000000D03*
%TO.P,SW1,4*%
X150000000Y-61000000D03*
%TD*%
D13*
%TO.P,D1,1,K*%
%TO.N,Net-(BT1-+)*%
X113690000Y-79000000D03*
D14*
%TO.P,D1,2,A*%
%TO.N,Net-(D1-A)*%
X121310000Y-79000000D03*
%TD*%
D10*
%TO.P,M1,1,+*%
%TO.N,Net-(BT1-+)*%
X104960000Y-72000000D03*
D11*
%TO.P,M1,2,-*%
%TO.N,Net-(D1-A)*%
X107500000Y-72000000D03*
%TD*%
D10*
%TO.P,BT1,1,+*%
%TO.N,Net-(BT1-+)*%
X103460000Y-83500000D03*
D11*
%TO.P,BT1,2,-*%
%TO.N,GND*%
X106000000Y-83500000D03*
%TD*%
D15*
%TO.P,R1,1*%
%TO.N,/2*%
X140500000Y-57000000D03*
D16*
%TO.P,R1,2*%
%TO.N,GND*%
X130340000Y-57000000D03*
%TD*%
D17*
%TO.P,Q1,D*%
%TO.N,Net-(D1-A)*%
X138500000Y-73000000D03*
%TO.P,Q1,G*%
%TO.N,/\u002A9*%
X141040000Y-73000000D03*
%TO.P,Q1,S*%
%TO.N,GND*%
X135960000Y-73000000D03*
%TD*%
%TA.AperFunction,Conductor*%
%TO.N,GND*%
G36*
X142714075Y-97267007D02*
G01*
X142680000Y-97394174D01*
X142680000Y-97525826D01*
X142714075Y-97652993D01*
X142746988Y-97710000D01*
X141073012Y-97710000D01*
X141105925Y-97652993D01*
X141140000Y-97525826D01*
X141140000Y-97394174D01*
X141105925Y-97267007D01*
X141073012Y-97210000D01*
X142746988Y-97210000D01*
X142714075Y-97267007D01*
G37*
%TD.AperFunction*%
%TA.AperFunction,Conductor*%
G36*
X163484404Y-46755185D02*
G01*
X163505046Y-46771819D01*
X165928181Y-49194954D01*
X165961666Y-49256277D01*
X165964500Y-49282635D01*
X165964500Y-59344982D01*
X165964500Y-59375018D01*
X165975994Y-59402767D01*
X165975995Y-59402768D01*
X168468181Y-61894954D01*
X168501666Y-61956277D01*
X168504500Y-61982635D01*
X168504500Y-96107364D01*
X168484815Y-96174403D01*
X168468181Y-96195045D01*
X165997233Y-98665994D01*
X165975995Y-98687231D01*
X165964500Y-98714982D01*
X165964500Y-99231907D01*
X165963903Y-99244062D01*
X165952505Y-99359778D01*
X165947763Y-99383618D01*
X165917832Y-99482290D01*
X165915789Y-99489024D01*
X165906486Y-99511482D01*
X165854561Y-99608627D01*
X165841056Y-99628839D01*
X165771176Y-99713988D01*
X165753988Y-99731176D01*
X165668839Y-99801056D01*
X165648627Y-99814561D01*
X165551482Y-99866486D01*
X165529028Y-99875787D01*
X165487028Y-99888528D01*
X165423618Y-99907763D01*
X165399778Y-99912505D01*
X165291162Y-99923203D01*
X165284060Y-99923903D01*
X165271907Y-99924500D01*
X100768093Y-99924500D01*
X100755939Y-99923903D01*
X100747995Y-99923120D01*
X100640221Y-99912505D01*
X100616381Y-99907763D01*
X100599445Y-99902625D01*
X100510968Y-99875786D01*
X100488517Y-99866486D01*
X100391372Y-99814561D01*
X100371160Y-99801056D01*
X100286011Y-99731176D01*
X100268823Y-99713988D01*
X100198943Y-99628839D01*
X100185438Y-99608627D01*
X100133510Y-99511476D01*
X100124215Y-99489037D01*
X100092234Y-99383612D01*
X100087494Y-99359777D01*
X100076097Y-99244061D01*
X100075500Y-99231907D01*
X100075500Y-98358654D01*
X126581500Y-98358654D01*
X126588011Y-98419202D01*
X126588011Y-98419204D01*
X126639111Y-98556204D01*
X126726739Y-98673261D01*
X126843796Y-98760889D01*
X126980799Y-98811989D01*
X127008050Y-98814918D01*
X127041345Y-98818499D01*
X127041362Y-98818500D01*
X128838638Y-98818500D01*
X128838654Y-98818499D01*
X128865692Y-98815591D01*
X128899201Y-98811989D01*
X129036204Y-98760889D01*
X129153261Y-98673261D01*
X129240889Y-98556204D01*
X129286138Y-98434887D01*
X129328009Y-98378956D01*
X129393474Y-98354539D01*
X129461746Y-98369391D01*
X129493545Y-98394236D01*
X129556760Y-98462906D01*
X129734424Y-98601189D01*
X129734425Y-98601189D01*
X129734427Y-98601191D01*
X129861135Y-98669761D01*
X129932426Y-98708342D01*
X130145365Y-98781444D01*
X130367431Y-98818500D01*
X130592569Y-98818500D01*
X130814635Y-98781444D01*
X131027574Y-98708342D01*
X131225576Y-98601189D01*
X131403240Y-98462906D01*
X131524594Y-98331082D01*
X131555715Y-98297276D01*
X131555715Y-98297275D01*
X131555722Y-98297268D01*
X131646193Y-98158790D01*
X131699338Y-98113437D01*
X131768569Y-98104013D01*
X131831905Y-98133515D01*
X131853804Y-98158787D01*
X131944278Y-98297268D01*
X131944283Y-98297273D01*
X131944284Y-98297276D01*
X132070968Y-98434889D01*
X132096760Y-98462906D01*
X132274424Y-98601189D01*
X132274425Y-98601189D01*
X132274427Y-98601191D01*
X132401135Y-98669761D01*
X132472426Y-98708342D01*
X132685365Y-98781444D01*
X132907431Y-98818500D01*
X133132569Y-98818500D01*
X133354635Y-98781444D01*
X133567574Y-98708342D01*
X133765576Y-98601189D01*
X133943240Y-98462906D01*
X134064594Y-98331082D01*
X134095715Y-98297276D01*
X134095715Y-98297275D01*
X134095722Y-98297268D01*
X134186193Y-98158790D01*
X134239338Y-98113437D01*
X134308569Y-98104013D01*
X134371905Y-98133515D01*
X134393804Y-98158787D01*
X134484278Y-98297268D01*
X134484283Y-98297273D01*
X134484284Y-98297276D01*
X134610968Y-98434889D01*
X134636760Y-98462906D01*
X134814424Y-98601189D01*
X134814425Y-98601189D01*
X134814427Y-98601191D01*
X134941135Y-98669761D01*
X135012426Y-98708342D01*
X135225365Y-98781444D01*
X135447431Y-98818500D01*
X135672569Y-98818500D01*
X135894635Y-98781444D01*
X136107574Y-98708342D01*
X136305576Y-98601189D01*
X136483240Y-98462906D01*
X136604594Y-98331082D01*
X136635715Y-98297276D01*
X136635715Y-98297275D01*
X136635722Y-98297268D01*
X136726193Y-98158790D01*
X136779338Y-98113437D01*
X136848569Y-98104013D01*
X136911905Y-98133515D01*
X136933804Y-98158787D01*
X137024278Y-98297268D01*
X137024283Y-98297273D01*
X137024284Y-98297276D01*
X137150968Y-98434889D01*
X137176760Y-98462906D01*
X137354424Y-98601189D01*
X137354425Y-98601189D01*
X137354427Y-98601191D01*
X137481135Y-98669761D01*
X137552426Y-98708342D01*
X137765365Y-98781444D01*
X137987431Y-98818500D01*
X138212569Y-98818500D01*
X138434635Y-98781444D01*
X138647574Y-98708342D01*
X138845576Y-98601189D01*
X139023240Y-98462906D01*
X139144594Y-98331082D01*
X139175715Y-98297276D01*
X139175715Y-98297275D01*
X139175722Y-98297268D01*
X139269749Y-98153347D01*
X139322894Y-98107994D01*
X139392125Y-98098570D01*
X139455461Y-98128072D01*
X139475130Y-98150048D01*
X139601890Y-98331078D01*
X139768917Y-98498105D01*
X139962421Y-98633600D01*
X140176507Y-98733429D01*
X140176516Y-98733433D01*
X140390000Y-98790634D01*
X140390000Y-97893012D01*
X140447007Y-97925925D01*
X140574174Y-97960000D01*
X140705826Y-97960000D01*
X140832993Y-97925925D01*
X140890000Y-97893012D01*
X140890000Y-98790633D01*
X141103483Y-98733433D01*
X141103492Y-98733429D01*
X141317578Y-98633600D01*
X141511082Y-98498105D01*
X141678105Y-98331082D01*
X141808425Y-98144968D01*
X141863002Y-98101344D01*
X141932501Y-98094151D01*
X141994855Y-98125673D01*
X142011575Y-98144968D01*
X142141894Y-98331082D01*
X142308917Y-98498105D01*
X142502421Y-98633600D01*
X142716507Y-98733429D01*
X142716516Y-98733433D01*
X142930000Y-98790634D01*
X142930000Y-97893012D01*
X142987007Y-97925925D01*
X143114174Y-97960000D01*
X143245826Y-97960000D01*
X143372993Y-97925925D01*
X143430000Y-97893012D01*
X143430000Y-98790633D01*
X143643483Y-98733433D01*
X143643492Y-98733429D01*
X143857578Y-98633600D01*
X144051082Y-98498105D01*
X144218105Y-98331082D01*
X144344868Y-98150048D01*
X144399445Y-98106423D01*
X144468944Y-98099231D01*
X144531298Y-98130753D01*
X144550251Y-98153350D01*
X144644276Y-98297265D01*
X144644284Y-98297276D01*
X144770968Y-98434889D01*
X144796760Y-98462906D01*
X144974424Y-98601189D01*
X144974425Y-98601189D01*
X144974427Y-98601191D01*
X145101135Y-98669761D01*
X145172426Y-98708342D01*
X145385365Y-98781444D01*
X145607431Y-98818500D01*
X145832569Y-98818500D01*
X146054635Y-98781444D01*
X146267574Y-98708342D01*
X146465576Y-98601189D01*
X146643240Y-98462906D01*
X146739212Y-98358654D01*
X149441500Y-98358654D01*
X149448011Y-98419202D01*
X149448011Y-98419204D01*
X149499111Y-98556204D01*
X149586739Y-98673261D01*
X149703796Y-98760889D01*
X149840799Y-98811989D01*
X149868050Y-98814918D01*
X149901345Y-98818499D01*
X149901362Y-98818500D01*
X151698638Y-98818500D01*
X151698654Y-98818499D01*
X151725692Y-98815591D01*
X151759201Y-98811989D01*
X151896204Y-98760889D01*
X152013261Y-98673261D01*
X152100889Y-98556204D01*
X152146138Y-98434887D01*
X152188009Y-98378956D01*
X152253474Y-98354539D01*
X152321746Y-98369391D01*
X152353545Y-98394236D01*
X152416760Y-98462906D01*
X152594424Y-98601189D01*
X152594425Y-98601189D01*
X152594427Y-98601191D01*
X152721135Y-98669761D01*
X152792426Y-98708342D01*
X153005365Y-98781444D01*
X153227431Y-98818500D01*
X153452569Y-98818500D01*
X153674635Y-98781444D01*
X153887574Y-98708342D01*
X154085576Y-98601189D01*
X154263240Y-98462906D01*
X154384594Y-98331082D01*
X154415715Y-98297276D01*
X154415715Y-98297275D01*
X154415722Y-98297268D01*
X154506193Y-98158790D01*
X154559338Y-98113437D01*
X154628569Y-98104013D01*
X154691905Y-98133515D01*
X154713804Y-98158787D01*
X154804278Y-98297268D01*
X154804283Y-98297273D01*
X154804284Y-98297276D01*
X154930968Y-98434889D01*
X154956760Y-98462906D01*
X155134424Y-98601189D01*
X155134425Y-98601189D01*
X155134427Y-98601191D01*
X155261135Y-98669761D01*
X155332426Y-98708342D01*
X155545365Y-98781444D01*
X155767431Y-98818500D01*
X155992569Y-98818500D01*
X156214635Y-98781444D01*
X156427574Y-98708342D01*
X156625576Y-98601189D01*
X156803240Y-98462906D01*
X156924594Y-98331082D01*
X156955715Y-98297276D01*
X156955715Y-98297275D01*
X156955722Y-98297268D01*
X157046193Y-98158790D01*
X157099338Y-98113437D01*
X157168569Y-98104013D01*
X157231905Y-98133515D01*
X157253804Y-98158787D01*
X157344278Y-98297268D01*
X157344283Y-98297273D01*
X157344284Y-98297276D01*
X157470968Y-98434889D01*
X157496760Y-98462906D01*
X157674424Y-98601189D01*
X157674425Y-98601189D01*
X157674427Y-98601191D01*
X157801135Y-98669761D01*
X157872426Y-98708342D01*
X158085365Y-98781444D01*
X158307431Y-98818500D01*
X158532569Y-98818500D01*
X158754635Y-98781444D01*
X158967574Y-98708342D01*
X159165576Y-98601189D01*
X159343240Y-98462906D01*
X159464594Y-98331082D01*
X159495715Y-98297276D01*
X159495715Y-98297275D01*
X159495722Y-98297268D01*
X159586193Y-98158790D01*
X159639338Y-98113437D01*
X159708569Y-98104013D01*
X159771905Y-98133515D01*
X159793804Y-98158787D01*
X159884278Y-98297268D01*
X159884283Y-98297273D01*
X159884284Y-98297276D01*
X160010968Y-98434889D01*
X160036760Y-98462906D01*
X160214424Y-98601189D01*
X160214425Y-98601189D01*
X160214427Y-98601191D01*
X160341135Y-98669761D01*
X160412426Y-98708342D01*
X160625365Y-98781444D01*
X160847431Y-98818500D01*
X161072569Y-98818500D01*
X161294635Y-98781444D01*
X161507574Y-98708342D01*
X161705576Y-98601189D01*
X161883240Y-98462906D01*
X162004594Y-98331082D01*
X162035715Y-98297276D01*
X162035715Y-98297275D01*
X162035722Y-98297268D01*
X162126193Y-98158790D01*
X162179338Y-98113437D01*
X162248569Y-98104013D01*
X162311905Y-98133515D01*
X162333804Y-98158787D01*
X162424278Y-98297268D01*
X162424283Y-98297273D01*
X162424284Y-98297276D01*
X162550968Y-98434889D01*
X162576760Y-98462906D01*
X162754424Y-98601189D01*
X162754425Y-98601189D01*
X162754427Y-98601191D01*
X162881135Y-98669761D01*
X162952426Y-98708342D01*
X163165365Y-98781444D01*
X163387431Y-98818500D01*
X163612569Y-98818500D01*
X163834635Y-98781444D01*
X164047574Y-98708342D01*
X164245576Y-98601189D01*
X164423240Y-98462906D01*
X164544594Y-98331082D01*
X164575715Y-98297276D01*
X164575717Y-98297273D01*
X164575722Y-98297268D01*
X164698860Y-98108791D01*
X164789296Y-97902616D01*
X164844564Y-97684368D01*
X164847164Y-97652993D01*
X164863156Y-97460005D01*
X164863156Y-97459994D01*
X164844565Y-97235640D01*
X164844563Y-97235628D01*
X164789296Y-97017385D01*
X164779071Y-96994075D01*
X164698860Y-96811209D01*
X164682706Y-96786484D01*
X164575723Y-96622734D01*
X164575715Y-96622723D01*
X164423243Y-96457097D01*
X164423238Y-96457092D01*
X164245577Y-96318812D01*
X164245572Y-96318808D01*
X164047580Y-96211661D01*
X164047577Y-96211659D01*
X164047574Y-96211658D01*
X164047571Y-96211657D01*
X164047569Y-96211656D01*
X163834637Y-96138556D01*
X163612569Y-96101500D01*
X163387431Y-96101500D01*
X163165362Y-96138556D01*
X162952430Y-96211656D01*
X162952419Y-96211661D01*
X162754427Y-96318808D01*
X162754422Y-96318812D01*
X162576761Y-96457092D01*
X162576756Y-96457097D01*
X162424284Y-96622723D01*
X162424276Y-96622734D01*
X162333808Y-96761206D01*
X162280662Y-96806562D01*
X162211431Y-96815986D01*
X162148095Y-96786484D01*
X162126192Y-96761206D01*
X162035723Y-96622734D01*
X162035715Y-96622723D01*
X161883243Y-96457097D01*
X161883238Y-96457092D01*
X161705577Y-96318812D01*
X161705572Y-96318808D01*
X161507580Y-96211661D01*
X161507577Y-96211659D01*
X161507574Y-96211658D01*
X161507571Y-96211657D01*
X161507569Y-96211656D01*
X161294637Y-96138556D01*
X161072569Y-96101500D01*
X160847431Y-96101500D01*
X160625362Y-96138556D01*
X160412430Y-96211656D01*
X160412419Y-96211661D01*
X160214427Y-96318808D01*
X160214422Y-96318812D01*
X160036761Y-96457092D01*
X160036756Y-96457097D01*
X159884284Y-96622723D01*
X159884276Y-96622734D01*
X159793808Y-96761206D01*
X159740662Y-96806562D01*
X159671431Y-96815986D01*
X159608095Y-96786484D01*
X159586192Y-96761206D01*
X159495723Y-96622734D01*
X159495715Y-96622723D01*
X159343243Y-96457097D01*
X159343238Y-96457092D01*
X159165577Y-96318812D01*
X159165572Y-96318808D01*
X158967580Y-96211661D01*
X158967577Y-96211659D01*
X158967574Y-96211658D01*
X158967571Y-96211657D01*
X158967569Y-96211656D01*
X158754637Y-96138556D01*
X158532569Y-96101500D01*
X158307431Y-96101500D01*
X158085362Y-96138556D01*
X157872430Y-96211656D01*
X157872419Y-96211661D01*
X157674427Y-96318808D01*
X157674422Y-96318812D01*
X157496761Y-96457092D01*
X157496756Y-96457097D01*
X157344284Y-96622723D01*
X157344276Y-96622734D01*
X157253808Y-96761206D01*
X157200662Y-96806562D01*
X157131431Y-96815986D01*
X157068095Y-96786484D01*
X157046192Y-96761206D01*
X156955723Y-96622734D01*
X156955715Y-96622723D01*
X156803243Y-96457097D01*
X156803238Y-96457092D01*
X156625577Y-96318812D01*
X156625572Y-96318808D01*
X156427580Y-96211661D01*
X156427577Y-96211659D01*
X156427574Y-96211658D01*
X156427571Y-96211657D01*
X156427569Y-96211656D01*
X156214637Y-96138556D01*
X155992569Y-96101500D01*
X155767431Y-96101500D01*
X155545362Y-96138556D01*
X155332430Y-96211656D01*
X155332419Y-96211661D01*
X155134427Y-96318808D01*
X155134422Y-96318812D01*
X154956761Y-96457092D01*
X154956756Y-96457097D01*
X154804284Y-96622723D01*
X154804276Y-96622734D01*
X154713808Y-96761206D01*
X154660662Y-96806562D01*
X154591431Y-96815986D01*
X154528095Y-96786484D01*
X154506192Y-96761206D01*
X154415723Y-96622734D01*
X154415715Y-96622723D01*
X154263243Y-96457097D01*
X154263238Y-96457092D01*
X154085577Y-96318812D01*
X154085572Y-96318808D01*
X153887580Y-96211661D01*
X153887577Y-96211659D01*
X153887574Y-96211658D01*
X153887571Y-96211657D01*
X153887569Y-96211656D01*
X153674637Y-96138556D01*
X153452569Y-96101500D01*
X153227431Y-96101500D01*
X153005362Y-96138556D01*
X152792430Y-96211656D01*
X152792419Y-96211661D01*
X152594427Y-96318808D01*
X152594422Y-96318812D01*
X152416761Y-96457092D01*
X152353548Y-96525760D01*
X152293661Y-96561750D01*
X152223823Y-96559649D01*
X152166207Y-96520124D01*
X152146138Y-96485110D01*
X152100889Y-96363796D01*
X152067214Y-96318812D01*
X152013261Y-96246739D01*
X151896204Y-96159111D01*
X151895172Y-96158726D01*
X151759203Y-96108011D01*
X151698654Y-96101500D01*
X151698638Y-96101500D01*
X149901362Y-96101500D01*
X149901345Y-96101500D01*
X149840797Y-96108011D01*
X149840795Y-96108011D01*
X149703795Y-96159111D01*
X149586739Y-96246739D01*
X149499111Y-96363795D01*
X149448011Y-96500795D01*
X149448011Y-96500797D01*
X149441500Y-96561345D01*
X149441500Y-98358654D01*
X146739212Y-98358654D01*
X146764594Y-98331082D01*
X146795715Y-98297276D01*
X146795717Y-98297273D01*
X146795722Y-98297268D01*
X146918860Y-98108791D01*
X147009296Y-97902616D01*
X147064564Y-97684368D01*
X147067164Y-97652993D01*
X147083156Y-97460005D01*
X147083156Y-97459994D01*
X147064565Y-97235640D01*
X147064563Y-97235628D01*
X147009296Y-97017385D01*
X146999071Y-96994075D01*
X146918860Y-96811209D01*
X146902706Y-96786484D01*
X146795723Y-96622734D01*
X146795715Y-96622723D01*
X146643243Y-96457097D01*
X146643238Y-96457092D01*
X146465577Y-96318812D01*
X146465572Y-96318808D01*
X146267580Y-96211661D01*
X146267577Y-96211659D01*
X146267574Y-96211658D01*
X146267571Y-96211657D01*
X146267569Y-96211656D01*
X146054637Y-96138556D01*
X145832569Y-96101500D01*
X145607431Y-96101500D01*
X145385362Y-96138556D01*
X145172430Y-96211656D01*
X145172419Y-96211661D01*
X144974427Y-96318808D01*
X144974422Y-96318812D01*
X144796761Y-96457092D01*
X144796756Y-96457097D01*
X144644284Y-96622723D01*
X144644276Y-96622734D01*
X144550251Y-96766650D01*
X144497105Y-96812007D01*
X144427873Y-96821430D01*
X144364538Y-96791928D01*
X144344868Y-96769951D01*
X144218113Y-96588926D01*
X144218108Y-96588920D01*
X144051082Y-96421894D01*
X143857578Y-96286399D01*
X143643492Y-96186570D01*
X143643486Y-96186567D01*
X143430000Y-96129364D01*
X143430000Y-97026988D01*
X143372993Y-96994075D01*
X143245826Y-96960000D01*
X143114174Y-96960000D01*
X142987007Y-96994075D01*
X142930000Y-97026988D01*
X142930000Y-96129364D01*
X142929999Y-96129364D01*
X142716513Y-96186567D01*
X142716507Y-96186570D01*
X142502422Y-96286399D01*
X142502420Y-96286400D01*
X142308926Y-96421886D01*
X142308920Y-96421891D01*
X142141891Y-96588920D01*
X142141890Y-96588922D01*
X142011575Y-96775031D01*
X141956998Y-96818655D01*
X141887499Y-96825848D01*
X141825145Y-96794326D01*
X141808425Y-96775031D01*
X141678109Y-96588922D01*
X141678108Y-96588920D01*
X141511082Y-96421894D01*
X141317578Y-96286399D01*
X141103492Y-96186570D01*
X141103486Y-96186567D01*
X140890000Y-96129364D01*
X140890000Y-97026988D01*
X140832993Y-96994075D01*
X140705826Y-96960000D01*
X140574174Y-96960000D01*
X140447007Y-96994075D01*
X140390000Y-97026988D01*
X140390000Y-96129364D01*
X140389999Y-96129364D01*
X140176513Y-96186567D01*
X140176507Y-96186570D01*
X139962422Y-96286399D01*
X139962420Y-96286400D01*
X139768926Y-96421886D01*
X139768920Y-96421891D01*
X139601891Y-96588920D01*
X139601890Y-96588922D01*
X139475131Y-96769952D01*
X139420554Y-96813577D01*
X139351055Y-96820769D01*
X139288701Y-96789247D01*
X139269752Y-96766656D01*
X139175722Y-96622732D01*
X139175715Y-96622725D01*
X139175715Y-96622723D01*
X139023243Y-96457097D01*
X139023238Y-96457092D01*
X138845577Y-96318812D01*
X138845572Y-96318808D01*
X138647580Y-96211661D01*
X138647577Y-96211659D01*
X138647574Y-96211658D01*
X138647571Y-96211657D01*
X138647569Y-96211656D01*
X138434637Y-96138556D01*
X138212569Y-96101500D01*
X137987431Y-96101500D01*
X137765362Y-96138556D01*
X137552430Y-96211656D01*
X137552419Y-96211661D01*
X137354427Y-96318808D01*
X137354422Y-96318812D01*
X137176761Y-96457092D01*
X137176756Y-96457097D01*
X137024284Y-96622723D01*
X137024276Y-96622734D01*
X136933808Y-96761206D01*
X136880662Y-96806562D01*
X136811431Y-96815986D01*
X136748095Y-96786484D01*
X136726192Y-96761206D01*
X136635723Y-96622734D01*
X136635715Y-96622723D01*
X136483243Y-96457097D01*
X136483238Y-96457092D01*
X136305577Y-96318812D01*
X136305572Y-96318808D01*
X136107580Y-96211661D01*
X136107577Y-96211659D01*
X136107574Y-96211658D01*
X136107571Y-96211657D01*
X136107569Y-96211656D01*
X135894637Y-96138556D01*
X135672569Y-96101500D01*
X135447431Y-96101500D01*
X135225362Y-96138556D01*
X135012430Y-96211656D01*
X135012419Y-96211661D01*
X134814427Y-96318808D01*
X134814422Y-96318812D01*
X134636761Y-96457092D01*
X134636756Y-96457097D01*
X134484284Y-96622723D01*
X134484276Y-96622734D01*
X134393808Y-96761206D01*
X134340662Y-96806562D01*
X134271431Y-96815986D01*
X134208095Y-96786484D01*
X134186192Y-96761206D01*
X134095723Y-96622734D01*
X134095715Y-96622723D01*
X133943243Y-96457097D01*
X133943238Y-96457092D01*
X133765577Y-96318812D01*
X133765572Y-96318808D01*
X133567580Y-96211661D01*
X133567577Y-96211659D01*
X133567574Y-96211658D01*
X133567571Y-96211657D01*
X133567569Y-96211656D01*
X133354637Y-96138556D01*
X133132569Y-96101500D01*
X132907431Y-96101500D01*
X132685362Y-96138556D01*
X132472430Y-96211656D01*
X132472419Y-96211661D01*
X132274427Y-96318808D01*
X132274422Y-96318812D01*
X132096761Y-96457092D01*
X132096756Y-96457097D01*
X131944284Y-96622723D01*
X131944276Y-96622734D01*
X131853808Y-96761206D01*
X131800662Y-96806562D01*
X131731431Y-96815986D01*
X131668095Y-96786484D01*
X131646192Y-96761206D01*
X131555723Y-96622734D01*
X131555715Y-96622723D01*
X131403243Y-96457097D01*
X131403238Y-96457092D01*
X131225577Y-96318812D01*
X131225572Y-96318808D01*
X131027580Y-96211661D01*
X131027577Y-96211659D01*
X131027574Y-96211658D01*
X131027571Y-96211657D01*
X131027569Y-96211656D01*
X130814637Y-96138556D01*
X130592569Y-96101500D01*
X130367431Y-96101500D01*
X130145362Y-96138556D01*
X129932430Y-96211656D01*
X129932419Y-96211661D01*
X129734427Y-96318808D01*
X129734422Y-96318812D01*
X129556761Y-96457092D01*
X129493548Y-96525760D01*
X129433661Y-96561750D01*
X129363823Y-96559649D01*
X129306207Y-96520124D01*
X129286138Y-96485110D01*
X129240889Y-96363796D01*
X129207214Y-96318812D01*
X129153261Y-96246739D01*
X129036204Y-96159111D01*
X129035172Y-96158726D01*
X128899203Y-96108011D01*
X128838654Y-96101500D01*
X128838638Y-96101500D01*
X127041362Y-96101500D01*
X127041345Y-96101500D01*
X126980797Y-96108011D01*
X126980795Y-96108011D01*
X126843795Y-96159111D01*
X126726739Y-96246739D01*
X126639111Y-96363795D01*
X126588011Y-96500795D01*
X126588011Y-96500797D01*
X126581500Y-96561345D01*
X126581500Y-98358654D01*
X100075500Y-98358654D01*
X100075500Y-84398654D01*
X102101500Y-84398654D01*
X102108011Y-84459202D01*
X102108011Y-84459204D01*
X102159111Y-84596204D01*
X102246739Y-84713261D01*
X102363796Y-84800889D01*
X102500799Y-84851989D01*
X102528050Y-84854918D01*
X102561345Y-84858499D01*
X102561362Y-84858500D01*
X104358638Y-84858500D01*
X104358654Y-84858499D01*
X104385692Y-84855591D01*
X104419201Y-84851989D01*
X104556204Y-84800889D01*
X104673261Y-84713261D01*
X104760889Y-84596204D01*
X104809223Y-84466615D01*
X104851093Y-84410686D01*
X104916557Y-84386269D01*
X104984830Y-84401121D01*
X105013084Y-84422272D01*
X105128917Y-84538105D01*
X105322421Y-84673600D01*
X105536507Y-84773429D01*
X105536516Y-84773433D01*
X105750000Y-84830634D01*
X105750000Y-83933012D01*
X105807007Y-83965925D01*
X105934174Y-84000000D01*
X106065826Y-84000000D01*
X106192993Y-83965925D01*
X106250000Y-83933012D01*
X106250000Y-84830633D01*
X106463483Y-84773433D01*
X106463492Y-84773429D01*
X106677578Y-84673600D01*
X106871082Y-84538105D01*
X107038105Y-84371082D01*
X107173600Y-84177578D01*
X107273429Y-83963492D01*
X107273432Y-83963486D01*
X107330636Y-83750000D01*
X106433012Y-83750000D01*
X106465925Y-83692993D01*
X106500000Y-83565826D01*
X106500000Y-83434174D01*
X106465925Y-83307007D01*
X106433012Y-83250000D01*
X107330636Y-83250000D01*
X107330635Y-83249999D01*
X107273432Y-83036513D01*
X107273429Y-83036507D01*
X107173600Y-82822422D01*
X107173599Y-82822420D01*
X107038113Y-82628926D01*
X107038108Y-82628920D01*
X106871082Y-82461894D01*
X106677578Y-82326399D01*
X106463492Y-82226570D01*
X106463486Y-82226567D01*
X106250000Y-82169364D01*
X106250000Y-83066988D01*
X106192993Y-83034075D01*
X106065826Y-83000000D01*
X105934174Y-83000000D01*
X105807007Y-83034075D01*
X105750000Y-83066988D01*
X105750000Y-82169364D01*
X105749999Y-82169364D01*
X105536513Y-82226567D01*
X105536507Y-82226570D01*
X105322422Y-82326399D01*
X105322420Y-82326400D01*
X105128926Y-82461886D01*
X105013084Y-82577728D01*
X104951761Y-82611212D01*
X104882069Y-82606228D01*
X104826136Y-82564356D01*
X104809223Y-82533384D01*
X104760889Y-82403796D01*
X104673261Y-82286739D01*
X104556204Y-82199111D01*
X104419203Y-82148011D01*
X104358654Y-82141500D01*
X104358638Y-82141500D01*
X102561362Y-82141500D01*
X102561345Y-82141500D01*
X102500797Y-82148011D01*
X102500795Y-82148011D01*
X102363795Y-82199111D01*
X102246739Y-82286739D01*
X102159111Y-82403795D01*
X102108011Y-82540795D01*
X102108011Y-82540797D01*
X102101500Y-82601345D01*
X102101500Y-84398654D01*
X100075500Y-84398654D01*
X100075500Y-79948654D01*
X112281500Y-79948654D01*
X112288011Y-80009202D01*
X112288011Y-80009204D01*
X112339111Y-80146204D01*
X112426739Y-80263261D01*
X112543796Y-80350889D01*
X112680799Y-80401989D01*
X112708050Y-80404918D01*
X112741345Y-80408499D01*
X112741362Y-80408500D01*
X114638638Y-80408500D01*
X114638654Y-80408499D01*
X114665692Y-80405591D01*
X114699201Y-80401989D01*
X114836204Y-80350889D01*
X114953261Y-80263261D01*
X115040889Y-80146204D01*
X115091989Y-80009201D01*
X115095591Y-79975692D01*
X115098499Y-79948654D01*
X115098500Y-79948637D01*
X115098500Y-79000005D01*
X119896673Y-79000005D01*
X119915948Y-79232622D01*
X119973251Y-79458907D01*
X120067015Y-79672668D01*
X120194686Y-79868084D01*
X120352776Y-80039814D01*
X120352780Y-80039818D01*
X120536983Y-80183190D01*
X120536985Y-80183191D01*
X120536988Y-80183193D01*
X120656331Y-80247777D01*
X120742273Y-80294287D01*
X120856914Y-80333643D01*
X120963045Y-80370079D01*
X120963047Y-80370079D01*
X120963049Y-80370080D01*
X121193288Y-80408500D01*
X121193289Y-80408500D01*
X121426711Y-80408500D01*
X121426712Y-80408500D01*
X121656951Y-80370080D01*
X121877727Y-80294287D01*
X122083017Y-80183190D01*
X122267220Y-80039818D01*
X122425314Y-79868083D01*
X122552984Y-79672669D01*
X122646749Y-79458907D01*
X122704051Y-79232626D01*
X122723327Y-79000000D01*
X122704051Y-78767374D01*
X122646749Y-78541093D01*
X122552984Y-78327331D01*
X122425314Y-78131917D01*
X122425313Y-78131915D01*
X122267223Y-77960185D01*
X122267222Y-77960184D01*
X122267220Y-77960182D01*
X122083017Y-77816810D01*
X122083015Y-77816809D01*
X122083014Y-77816808D01*
X122083011Y-77816806D01*
X121877733Y-77705716D01*
X121877730Y-77705715D01*
X121877727Y-77705713D01*
X121877721Y-77705711D01*
X121877719Y-77705710D01*
X121656954Y-77629920D01*
X121465730Y-77598011D01*
X121426712Y-77591500D01*
X121193288Y-77591500D01*
X121154270Y-77598011D01*
X120963045Y-77629920D01*
X120742280Y-77705710D01*
X120742266Y-77705716D01*
X120536988Y-77816806D01*
X120536985Y-77816808D01*
X120352781Y-77960181D01*
X120352776Y-77960185D01*
X120194686Y-78131915D01*
X120067015Y-78327331D01*
X119973251Y-78541092D01*
X119915948Y-78767377D01*
X119896673Y-78999994D01*
X119896673Y-79000005D01*
X115098500Y-79000005D01*
X115098500Y-78051362D01*
X115098499Y-78051345D01*
X115095157Y-78020270D01*
X115091989Y-77990799D01*
X115080570Y-77960185D01*
X115069522Y-77930564D01*
X115040889Y-77853796D01*
X114953261Y-77736739D01*
X114836204Y-77649111D01*
X114699203Y-77598011D01*
X114638654Y-77591500D01*
X114638638Y-77591500D01*
X112741362Y-77591500D01*
X112741345Y-77591500D01*
X112680797Y-77598011D01*
X112680795Y-77598011D01*
X112543795Y-77649111D01*
X112426739Y-77736739D01*
X112339111Y-77853795D01*
X112288011Y-77990795D01*
X112288011Y-77990797D01*
X112281500Y-78051345D01*
X112281500Y-79948654D01*
X100075500Y-79948654D01*
X100075500Y-73861321D01*
X134698000Y-73861321D01*
X134729075Y-74057520D01*
X134729075Y-74057523D01*
X134790457Y-74246437D01*
X134880641Y-74423432D01*
X134997403Y-74584139D01*
X134997403Y-74584140D01*
X135137859Y-74724596D01*
X135298567Y-74841358D01*
X135475562Y-74931542D01*
X135664473Y-74992922D01*
X135710000Y-75000133D01*
X135710000Y-73442251D01*
X135763919Y-73473381D01*
X135893120Y-73508000D01*
X136026880Y-73508000D01*
X136156081Y-73473381D01*
X136210000Y-73442251D01*
X136210000Y-75000132D01*
X136255526Y-74992922D01*
X136444437Y-74931542D01*
X136621432Y-74841358D01*
X136782139Y-74724596D01*
X136782140Y-74724596D01*
X136922596Y-74584140D01*
X136922596Y-74584139D01*
X137039360Y-74423430D01*
X137114744Y-74275480D01*
X137162718Y-74224683D01*
X137230539Y-74207888D01*
X137296674Y-74230425D01*
X137335713Y-74275478D01*
X137413369Y-74427885D01*
X137448685Y-74476493D01*
X137530917Y-74589675D01*
X137672325Y-74731083D01*
X137834113Y-74848629D01*
X137996838Y-74931542D01*
X138012299Y-74939420D01*
X138107393Y-74970317D01*
X138202490Y-75001216D01*
X138400009Y-75032500D01*
X138400010Y-75032500D01*
X138599990Y-75032500D01*
X138599991Y-75032500D01*
X138797510Y-75001216D01*
X138987703Y-74939419D01*
X139165887Y-74848629D01*
X139327675Y-74731083D01*
X139469083Y-74589675D01*
X139586629Y-74427887D01*
X139659515Y-74284840D01*
X139707490Y-74234045D01*
X139775311Y-74217250D01*
X139841446Y-74239788D01*
X139880484Y-74284840D01*
X139953371Y-74427887D01*
X140070917Y-74589675D01*
X140212325Y-74731083D01*
X140374113Y-74848629D01*
X140536838Y-74931542D01*
X140552299Y-74939420D01*
X140647393Y-74970317D01*
X140742490Y-75001216D01*
X140940009Y-75032500D01*
X140940010Y-75032500D01*
X141139990Y-75032500D01*
X141139991Y-75032500D01*
X141337510Y-75001216D01*
X141527703Y-74939419D01*
X141705887Y-74848629D01*
X141867675Y-74731083D01*
X142009083Y-74589675D01*
X142126629Y-74427887D01*
X142217419Y-74249703D01*
X142279216Y-74059510D01*
X142310500Y-73861991D01*
X142310500Y-72138009D01*
X142279216Y-71940490D01*
X142227963Y-71782749D01*
X142217420Y-71750299D01*
X142126628Y-71572112D01*
X142115928Y-71557385D01*
X142009083Y-71410325D01*
X141867675Y-71268917D01*
X141705887Y-71151371D01*
X141527700Y-71060579D01*
X141337511Y-70998784D01*
X141238750Y-70983142D01*
X141139991Y-70967500D01*
X140940009Y-70967500D01*
X140874169Y-70977928D01*
X140742488Y-70998784D01*
X140552299Y-71060579D01*
X140374112Y-71151371D01*
X140281806Y-71218435D01*
X140212325Y-71268917D01*
X140212323Y-71268919D01*
X140212322Y-71268919D01*
X140070919Y-71410322D01*
X140070919Y-71410323D01*
X140070917Y-71410325D01*
X140066896Y-71415860D01*
X139953367Y-71572117D01*
X139880484Y-71715158D01*
X139832510Y-71765954D01*
X139764689Y-71782749D01*
X139698554Y-71760211D01*
X139659516Y-71715158D01*
X139586632Y-71572117D01*
X139575928Y-71557384D01*
X139469083Y-71410325D01*
X139327675Y-71268917D01*
X139165887Y-71151371D01*
X138987700Y-71060579D01*
X138797511Y-70998784D01*
X138698750Y-70983142D01*
X138599991Y-70967500D01*
X138400009Y-70967500D01*
X138334169Y-70977928D01*
X138202488Y-70998784D01*
X138012299Y-71060579D01*
X137834112Y-71151371D01*
X137741806Y-71218435D01*
X137672325Y-71268917D01*
X137672323Y-71268919D01*
X137672322Y-71268919D01*
X137530919Y-71410322D01*
X137530919Y-71410323D01*
X137530917Y-71410325D01*
X137526896Y-71415860D01*
X137413369Y-71572115D01*
X137335713Y-71724521D01*
X137287738Y-71775316D01*
X137219917Y-71792111D01*
X137153783Y-71769573D01*
X137114744Y-71724520D01*
X137039358Y-71576567D01*
X136922596Y-71415860D01*
X136922596Y-71415859D01*
X136782140Y-71275403D01*
X136621432Y-71158641D01*
X136444434Y-71068456D01*
X136444436Y-71068456D01*
X136255517Y-71007074D01*
X136210000Y-70999865D01*
X136210000Y-72557748D01*
X136156081Y-72526619D01*
X136026880Y-72492000D01*
X135893120Y-72492000D01*
X135763919Y-72526619D01*
X135710000Y-72557748D01*
X135710000Y-70999865D01*
X135709999Y-70999865D01*
X135664482Y-71007074D01*
X135475564Y-71068456D01*
X135298567Y-71158641D01*
X135137860Y-71275403D01*
X135137859Y-71275403D01*
X134997403Y-71415859D01*
X134997403Y-71415860D01*
X134880641Y-71576567D01*
X134790457Y-71753562D01*
X134729075Y-71942476D01*
X134729075Y-71942479D01*
X134698000Y-72138678D01*
X134698000Y-72750000D01*
X135517749Y-72750000D01*
X135486619Y-72803919D01*
X135452000Y-72933120D01*
X135452000Y-73066880D01*
X135486619Y-73196081D01*
X135517749Y-73250000D01*
X134698000Y-73250000D01*
X134698000Y-73861321D01*
X100075500Y-73861321D01*
X100075500Y-72898654D01*
X103601500Y-72898654D01*
X103608011Y-72959202D01*
X103608011Y-72959204D01*
X103659111Y-73096204D01*
X103746739Y-73213261D01*
X103863796Y-73300889D01*
X104000799Y-73351989D01*
X104028050Y-73354918D01*
X104061345Y-73358499D01*
X104061362Y-73358500D01*
X105858638Y-73358500D01*
X105858654Y-73358499D01*
X105885692Y-73355591D01*
X105919201Y-73351989D01*
X106056204Y-73300889D01*
X106173261Y-73213261D01*
X106260889Y-73096204D01*
X106306138Y-72974887D01*
X106348009Y-72918956D01*
X106413474Y-72894539D01*
X106481746Y-72909391D01*
X106513545Y-72934236D01*
X106576760Y-73002906D01*
X106754424Y-73141189D01*
X106754425Y-73141189D01*
X106754427Y-73141191D01*
X106855856Y-73196081D01*
X106952426Y-73248342D01*
X107165365Y-73321444D01*
X107387431Y-73358500D01*
X107612569Y-73358500D01*
X107834635Y-73321444D01*
X108047574Y-73248342D01*
X108245576Y-73141189D01*
X108423240Y-73002906D01*
X108575722Y-72837268D01*
X108698860Y-72648791D01*
X108789296Y-72442616D01*
X108844564Y-72224368D01*
X108863156Y-72000000D01*
X108858389Y-71942476D01*
X108844565Y-71775640D01*
X108844563Y-71775628D01*
X108793026Y-71572113D01*
X108789296Y-71557384D01*
X108698860Y-71351209D01*
X108575722Y-71162732D01*
X108575719Y-71162729D01*
X108575715Y-71162723D01*
X108423243Y-70997097D01*
X108423238Y-70997092D01*
X108245577Y-70858812D01*
X108245572Y-70858808D01*
X108047580Y-70751661D01*
X108047577Y-70751659D01*
X108047574Y-70751658D01*
X108047571Y-70751657D01*
X108047569Y-70751656D01*
X107834637Y-70678556D01*
X107612569Y-70641500D01*
X107387431Y-70641500D01*
X107165362Y-70678556D01*
X106952430Y-70751656D01*
X106952419Y-70751661D01*
X106754427Y-70858808D01*
X106754422Y-70858812D01*
X106576761Y-70997092D01*
X106513548Y-71065760D01*
X106453661Y-71101750D01*
X106383823Y-71099649D01*
X106326207Y-71060124D01*
X106306138Y-71025110D01*
X106260889Y-70903796D01*
X106227214Y-70858812D01*
X106173261Y-70786739D01*
X106056204Y-70699111D01*
X105919203Y-70648011D01*
X105858654Y-70641500D01*
X105858638Y-70641500D01*
X104061362Y-70641500D01*
X104061345Y-70641500D01*
X104000797Y-70648011D01*
X104000795Y-70648011D01*
X103863795Y-70699111D01*
X103746739Y-70786739D01*
X103659111Y-70903795D01*
X103608011Y-71040795D01*
X103608011Y-71040797D01*
X103601500Y-71101345D01*
X103601500Y-72898654D01*
X100075500Y-72898654D01*
X100075500Y-61000002D01*
X148724647Y-61000002D01*
X148744021Y-61221457D01*
X148744022Y-61221465D01*
X148801558Y-61436191D01*
X148801559Y-61436193D01*
X148801560Y-61436196D01*
X148848536Y-61536936D01*
X148895511Y-61637676D01*
X148895512Y-61637677D01*
X149023023Y-61819781D01*
X149180219Y-61976977D01*
X149362323Y-62104488D01*
X149563804Y-62198440D01*
X149778537Y-62255978D01*
X149936724Y-62269817D01*
X149999998Y-62275353D01*
X150000000Y-62275353D01*
X150000002Y-62275353D01*
X150055365Y-62270509D01*
X150221463Y-62255978D01*
X150436196Y-62198440D01*
X150637677Y-62104488D01*
X150819781Y-61976977D01*
X150976977Y-61819781D01*
X151104488Y-61637677D01*
X151198440Y-61436196D01*
X151255978Y-61221463D01*
X151275353Y-61000002D01*
X155224647Y-61000002D01*
X155244021Y-61221457D01*
X155244022Y-61221465D01*
X155301558Y-61436191D01*
X155301559Y-61436193D01*
X155301560Y-61436196D01*
X155348536Y-61536936D01*
X155395511Y-61637676D01*
X155395512Y-61637677D01*
X155523023Y-61819781D01*
X155680219Y-61976977D01*
X155862323Y-62104488D01*
X156063804Y-62198440D01*
X156278537Y-62255978D01*
X156436724Y-62269817D01*
X156499998Y-62275353D01*
X156500000Y-62275353D01*
X156500002Y-62275353D01*
X156555365Y-62270509D01*
X156721463Y-62255978D01*
X156936196Y-62198440D01*
X157137677Y-62104488D01*
X157319781Y-61976977D01*
X157476977Y-61819781D01*
X157604488Y-61637677D01*
X157698440Y-61436196D01*
X157755978Y-61221463D01*
X157775353Y-61000000D01*
X157755978Y-60778537D01*
X157698440Y-60563804D01*
X157604488Y-60362324D01*
X157604486Y-60362321D01*
X157604485Y-60362319D01*
X157476978Y-60180220D01*
X157476975Y-60180217D01*
X157319781Y-60023023D01*
X157137677Y-59895512D01*
X157137678Y-59895512D01*
X157137676Y-59895511D01*
X157036936Y-59848536D01*
X156936196Y-59801560D01*
X156936193Y-59801559D01*
X156936191Y-59801558D01*
X156721465Y-59744022D01*
X156721457Y-59744021D01*
X156500002Y-59724647D01*
X156499998Y-59724647D01*
X156278542Y-59744021D01*
X156278535Y-59744022D01*
X156063800Y-59801561D01*
X155862323Y-59895512D01*
X155862319Y-59895514D01*
X155680217Y-60023023D01*
X155523023Y-60180217D01*
X155395514Y-60362319D01*
X155395512Y-60362323D01*
X155301561Y-60563800D01*
X155244022Y-60778535D01*
X155244021Y-60778542D01*
X155224647Y-60999997D01*
X155224647Y-61000002D01*
X151275353Y-61000002D01*
X151275353Y-61000000D01*
X151255978Y-60778537D01*
X151198440Y-60563804D01*
X151104488Y-60362324D01*
X151104486Y-60362321D01*
X151104485Y-60362319D01*
X150976978Y-60180220D01*
X150976975Y-60180217D01*
X150819781Y-60023023D01*
X150637677Y-59895512D01*
X150637678Y-59895512D01*
X150637676Y-59895511D01*
X150536936Y-59848536D01*
X150436196Y-59801560D01*
X150436193Y-59801559D01*
X150436191Y-59801558D01*
X150221465Y-59744022D01*
X150221457Y-59744021D01*
X150000002Y-59724647D01*
X149999998Y-59724647D01*
X149778542Y-59744021D01*
X149778535Y-59744022D01*
X149563800Y-59801561D01*
X149362323Y-59895512D01*
X149362319Y-59895514D01*
X149180217Y-60023023D01*
X149023023Y-60180217D01*
X148895514Y-60362319D01*
X148895512Y-60362323D01*
X148801561Y-60563800D01*
X148744022Y-60778535D01*
X148744021Y-60778542D01*
X148724647Y-60999997D01*
X148724647Y-61000002D01*
X100075500Y-61000002D01*
X100075500Y-56749999D01*
X129061127Y-56749999D01*
X129061128Y-56750000D01*
X130024314Y-56750000D01*
X130019920Y-56754394D01*
X129967259Y-56845606D01*
X129940000Y-56947339D01*
X129940000Y-57052661D01*
X129967259Y-57154394D01*
X130019920Y-57245606D01*
X130024314Y-57250000D01*
X129061128Y-57250000D01*
X129113730Y-57446317D01*
X129113734Y-57446326D01*
X129209865Y-57652482D01*
X129340342Y-57838820D01*
X129501179Y-57999657D01*
X129687517Y-58130134D01*
X129893673Y-58226265D01*
X129893682Y-58226269D01*
X130089999Y-58278872D01*
X130090000Y-58278871D01*
X130090000Y-57315686D01*
X130094394Y-57320080D01*
X130185606Y-57372741D01*
X130287339Y-57400000D01*
X130392661Y-57400000D01*
X130494394Y-57372741D01*
X130585606Y-57320080D01*
X130590000Y-57315686D01*
X130590000Y-58278872D01*
X130786317Y-58226269D01*
X130786326Y-58226265D01*
X130992482Y-58130134D01*
X131178820Y-57999657D01*
X131339657Y-57838820D01*
X131470134Y-57652482D01*
X131566265Y-57446326D01*
X131566269Y-57446317D01*
X131618872Y-57250000D01*
X130655686Y-57250000D01*
X130660080Y-57245606D01*
X130712741Y-57154394D01*
X130740000Y-57052661D01*
X130740000Y-57000001D01*
X139186502Y-57000001D01*
X139206456Y-57228081D01*
X139206457Y-57228089D01*
X139265714Y-57449238D01*
X139265718Y-57449249D01*
X139278648Y-57476977D01*
X139362477Y-57656749D01*
X139493802Y-57844300D01*
X139655700Y-58006198D01*
X139843251Y-58137523D01*
X139968091Y-58195736D01*
X140050750Y-58234281D01*
X140050752Y-58234281D01*
X140050757Y-58234284D01*
X140271913Y-58293543D01*
X140434832Y-58307796D01*
X140499998Y-58313498D01*
X140500000Y-58313498D01*
X140500002Y-58313498D01*
X140557021Y-58308509D01*
X140728087Y-58293543D01*
X140949243Y-58234284D01*
X141156749Y-58137523D01*
X141344300Y-58006198D01*
X141506198Y-57844300D01*
X141637523Y-57656749D01*
X141734284Y-57449243D01*
X141793543Y-57228087D01*
X141813498Y-57000000D01*
X141793543Y-56771913D01*
X141734284Y-56550757D01*
X141710617Y-56500002D01*
X148724647Y-56500002D01*
X148744021Y-56721457D01*
X148744022Y-56721465D01*
X148801558Y-56936191D01*
X148801559Y-56936193D01*
X148801560Y-56936196D01*
X148831312Y-57000000D01*
X148895511Y-57137676D01*
X148895512Y-57137677D01*
X149023023Y-57319781D01*
X149180219Y-57476977D01*
X149362323Y-57604488D01*
X149563804Y-57698440D01*
X149778537Y-57755978D01*
X149936724Y-57769817D01*
X149999998Y-57775353D01*
X150000000Y-57775353D01*
X150000002Y-57775353D01*
X150055365Y-57770509D01*
X150221463Y-57755978D01*
X150436196Y-57698440D01*
X150637677Y-57604488D01*
X150819781Y-57476977D01*
X150976977Y-57319781D01*
X151104488Y-57137677D01*
X151198440Y-56936196D01*
X151255978Y-56721463D01*
X151275353Y-56500002D01*
X155224647Y-56500002D01*
X155244021Y-56721457D01*
X155244022Y-56721465D01*
X155301558Y-56936191D01*
X155301559Y-56936193D01*
X155301560Y-56936196D01*
X155331312Y-57000000D01*
X155395511Y-57137676D01*
X155395512Y-57137677D01*
X155523023Y-57319781D01*
X155680219Y-57476977D01*
X155862323Y-57604488D01*
X156063804Y-57698440D01*
X156278537Y-57755978D01*
X156436724Y-57769817D01*
X156499998Y-57775353D01*
X156500000Y-57775353D01*
X156500002Y-57775353D01*
X156555365Y-57770509D01*
X156721463Y-57755978D01*
X156936196Y-57698440D01*
X157137677Y-57604488D01*
X157319781Y-57476977D01*
X157476977Y-57319781D01*
X157604488Y-57137677D01*
X157698440Y-56936196D01*
X157755978Y-56721463D01*
X157775353Y-56500000D01*
X157755978Y-56278537D01*
X157698440Y-56063804D01*
X157604488Y-55862324D01*
X157604486Y-55862321D01*
X157604485Y-55862319D01*
X157476978Y-55680220D01*
X157476975Y-55680217D01*
X157319781Y-55523023D01*
X157137677Y-55395512D01*
X157137678Y-55395512D01*
X157137676Y-55395511D01*
X157036936Y-55348536D01*
X156936196Y-55301560D01*
X156936193Y-55301559D01*
X156936191Y-55301558D01*
X156721465Y-55244022D01*
X156721457Y-55244021D01*
X156500002Y-55224647D01*
X156499998Y-55224647D01*
X156278542Y-55244021D01*
X156278535Y-55244022D01*
X156063800Y-55301561D01*
X155862323Y-55395512D01*
X155862319Y-55395514D01*
X155680217Y-55523023D01*
X155523023Y-55680217D01*
X155395514Y-55862319D01*
X155395512Y-55862323D01*
X155301561Y-56063800D01*
X155244022Y-56278535D01*
X155244021Y-56278542D01*
X155224647Y-56499997D01*
X155224647Y-56500002D01*
X151275353Y-56500002D01*
X151275353Y-56500000D01*
X151255978Y-56278537D01*
X151198440Y-56063804D01*
X151104488Y-55862324D01*
X151104486Y-55862321D01*
X151104485Y-55862319D01*
X150976978Y-55680220D01*
X150976975Y-55680217D01*
X150819781Y-55523023D01*
X150637677Y-55395512D01*
X150637678Y-55395512D01*
X150637676Y-55395511D01*
X150536936Y-55348536D01*
X150436196Y-55301560D01*
X150436193Y-55301559D01*
X150436191Y-55301558D01*
X150221465Y-55244022D01*
X150221457Y-55244021D01*
X150000002Y-55224647D01*
X149999998Y-55224647D01*
X149778542Y-55244021D01*
X149778535Y-55244022D01*
X149563800Y-55301561D01*
X149362323Y-55395512D01*
X149362319Y-55395514D01*
X149180217Y-55523023D01*
X149023023Y-55680217D01*
X148895514Y-55862319D01*
X148895512Y-55862323D01*
X148801561Y-56063800D01*
X148744022Y-56278535D01*
X148744021Y-56278542D01*
X148724647Y-56499997D01*
X148724647Y-56500002D01*
X141710617Y-56500002D01*
X141637523Y-56343251D01*
X141506198Y-56155700D01*
X141344300Y-55993802D01*
X141156749Y-55862477D01*
X141156410Y-55862319D01*
X140949249Y-55765718D01*
X140949238Y-55765714D01*
X140728089Y-55706457D01*
X140728081Y-55706456D01*
X140500002Y-55686502D01*
X140499998Y-55686502D01*
X140271918Y-55706456D01*
X140271910Y-55706457D01*
X140050761Y-55765714D01*
X140050750Y-55765718D01*
X139843254Y-55862475D01*
X139843252Y-55862476D01*
X139843251Y-55862477D01*
X139655700Y-55993802D01*
X139655698Y-55993803D01*
X139655695Y-55993806D01*
X139493806Y-56155695D01*
X139362476Y-56343252D01*
X139362475Y-56343254D01*
X139265718Y-56550750D01*
X139265714Y-56550761D01*
X139206457Y-56771910D01*
X139206456Y-56771918D01*
X139186502Y-56999998D01*
X139186502Y-57000001D01*
X130740000Y-57000001D01*
X130740000Y-56947339D01*
X130712741Y-56845606D01*
X130660080Y-56754394D01*
X130655686Y-56750000D01*
X131618872Y-56750000D01*
X131618872Y-56749999D01*
X131566269Y-56553682D01*
X131566265Y-56553673D01*
X131470134Y-56347517D01*
X131339657Y-56161179D01*
X131178820Y-56000342D01*
X130992482Y-55869865D01*
X130786328Y-55773734D01*
X130590000Y-55721127D01*
X130590000Y-56684314D01*
X130585606Y-56679920D01*
X130494394Y-56627259D01*
X130392661Y-56600000D01*
X130287339Y-56600000D01*
X130185606Y-56627259D01*
X130094394Y-56679920D01*
X130090000Y-56684314D01*
X130090000Y-55721127D01*
X129893671Y-55773734D01*
X129687517Y-55869865D01*
X129501179Y-56000342D01*
X129340342Y-56161179D01*
X129209865Y-56347517D01*
X129113734Y-56553673D01*
X129113730Y-56553682D01*
X129061127Y-56749999D01*
X100075500Y-56749999D01*
X100075500Y-50098654D01*
X117437500Y-50098654D01*
X117444011Y-50159202D01*
X117444011Y-50159204D01*
X117495111Y-50296204D01*
X117582739Y-50413261D01*
X117699796Y-50500889D01*
X117836799Y-50551989D01*
X117864050Y-50554918D01*
X117897345Y-50558499D01*
X117897362Y-50558500D01*
X119694638Y-50558500D01*
X119694654Y-50558499D01*
X119721692Y-50555591D01*
X119755201Y-50551989D01*
X119892204Y-50500889D01*
X120009261Y-50413261D01*
X120096889Y-50296204D01*
X120142138Y-50174887D01*
X120184009Y-50118956D01*
X120249474Y-50094539D01*
X120317746Y-50109391D01*
X120349545Y-50134236D01*
X120412760Y-50202906D01*
X120590424Y-50341189D01*
X120590425Y-50341189D01*
X120590427Y-50341191D01*
X120650314Y-50373600D01*
X120788426Y-50448342D01*
X121001365Y-50521444D01*
X121223431Y-50558500D01*
X121448569Y-50558500D01*
X121670635Y-50521444D01*
X121883574Y-50448342D01*
X122081576Y-50341189D01*
X122259240Y-50202906D01*
X122380594Y-50071082D01*
X122411715Y-50037276D01*
X122411715Y-50037275D01*
X122411722Y-50037268D01*
X122502193Y-49898790D01*
X122555338Y-49853437D01*
X122624569Y-49844013D01*
X122687905Y-49873515D01*
X122709804Y-49898787D01*
X122800278Y-50037268D01*
X122800283Y-50037273D01*
X122800284Y-50037276D01*
X122926968Y-50174889D01*
X122952760Y-50202906D01*
X123130424Y-50341189D01*
X123130425Y-50341189D01*
X123130427Y-50341191D01*
X123190314Y-50373600D01*
X123328426Y-50448342D01*
X123541365Y-50521444D01*
X123763431Y-50558500D01*
X123988569Y-50558500D01*
X124210635Y-50521444D01*
X124423574Y-50448342D01*
X124621576Y-50341189D01*
X124799240Y-50202906D01*
X124920594Y-50071082D01*
X124951715Y-50037276D01*
X124951715Y-50037275D01*
X124951722Y-50037268D01*
X125045749Y-49893347D01*
X125098894Y-49847994D01*
X125168125Y-49838570D01*
X125231461Y-49868072D01*
X125251130Y-49890048D01*
X125377890Y-50071078D01*
X125544917Y-50238105D01*
X125738421Y-50373600D01*
X125952507Y-50473429D01*
X125952516Y-50473433D01*
X126166000Y-50530634D01*
X126166000Y-49633012D01*
X126223007Y-49665925D01*
X126350174Y-49700000D01*
X126481826Y-49700000D01*
X126608993Y-49665925D01*
X126666000Y-49633012D01*
X126666000Y-50530633D01*
X126879483Y-50473433D01*
X126879492Y-50473429D01*
X127093578Y-50373600D01*
X127287082Y-50238105D01*
X127454105Y-50071082D01*
X127580868Y-49890048D01*
X127635445Y-49846423D01*
X127704944Y-49839231D01*
X127767298Y-49870753D01*
X127786251Y-49893350D01*
X127880276Y-50037265D01*
X127880284Y-50037276D01*
X128006968Y-50174889D01*
X128032760Y-50202906D01*
X128210424Y-50341189D01*
X128210425Y-50341189D01*
X128210427Y-50341191D01*
X128270314Y-50373600D01*
X128408426Y-50448342D01*
X128621365Y-50521444D01*
X128843431Y-50558500D01*
X129068569Y-50558500D01*
X129290635Y-50521444D01*
X129503574Y-50448342D01*
X129701576Y-50341189D01*
X129879240Y-50202906D01*
X130000594Y-50071082D01*
X130031715Y-50037276D01*
X130031715Y-50037275D01*
X130031722Y-50037268D01*
X130122193Y-49898790D01*
X130175338Y-49853437D01*
X130244569Y-49844013D01*
X130307905Y-49873515D01*
X130329804Y-49898787D01*
X130420278Y-50037268D01*
X130420283Y-50037273D01*
X130420284Y-50037276D01*
X130546968Y-50174889D01*
X130572760Y-50202906D01*
X130750424Y-50341189D01*
X130750425Y-50341189D01*
X130750427Y-50341191D01*
X130810314Y-50373600D01*
X130948426Y-50448342D01*
X131161365Y-50521444D01*
X131383431Y-50558500D01*
X131608569Y-50558500D01*
X131830635Y-50521444D01*
X132043574Y-50448342D01*
X132241576Y-50341189D01*
X132419240Y-50202906D01*
X132540594Y-50071082D01*
X132571715Y-50037276D01*
X132571715Y-50037275D01*
X132571722Y-50037268D01*
X132662193Y-49898790D01*
X132715338Y-49853437D01*
X132784569Y-49844013D01*
X132847905Y-49873515D01*
X132869804Y-49898787D01*
X132960278Y-50037268D01*
X132960283Y-50037273D01*
X132960284Y-50037276D01*
X133086968Y-50174889D01*
X133112760Y-50202906D01*
X133290424Y-50341189D01*
X133290425Y-50341189D01*
X133290427Y-50341191D01*
X133350314Y-50373600D01*
X133488426Y-50448342D01*
X133701365Y-50521444D01*
X133923431Y-50558500D01*
X134148569Y-50558500D01*
X134370635Y-50521444D01*
X134583574Y-50448342D01*
X134781576Y-50341189D01*
X134959240Y-50202906D01*
X135080594Y-50071082D01*
X135111715Y-50037276D01*
X135111715Y-50037275D01*
X135111722Y-50037268D01*
X135202193Y-49898790D01*
X135255338Y-49853437D01*
X135324569Y-49844013D01*
X135387905Y-49873515D01*
X135409804Y-49898787D01*
X135500278Y-50037268D01*
X135500283Y-50037273D01*
X135500284Y-50037276D01*
X135626968Y-50174889D01*
X135652760Y-50202906D01*
X135830424Y-50341189D01*
X135830425Y-50341189D01*
X135830427Y-50341191D01*
X135890314Y-50373600D01*
X136028426Y-50448342D01*
X136241365Y-50521444D01*
X136463431Y-50558500D01*
X136688569Y-50558500D01*
X136910635Y-50521444D01*
X137123574Y-50448342D01*
X137321576Y-50341189D01*
X137499240Y-50202906D01*
X137620594Y-50071082D01*
X137651715Y-50037276D01*
X137651715Y-50037275D01*
X137651722Y-50037268D01*
X137742193Y-49898790D01*
X137795338Y-49853437D01*
X137864569Y-49844013D01*
X137927905Y-49873515D01*
X137949804Y-49898787D01*
X138040278Y-50037268D01*
X138040283Y-50037273D01*
X138040284Y-50037276D01*
X138166968Y-50174889D01*
X138192760Y-50202906D01*
X138370424Y-50341189D01*
X138370425Y-50341189D01*
X138370427Y-50341191D01*
X138430314Y-50373600D01*
X138568426Y-50448342D01*
X138781365Y-50521444D01*
X139003431Y-50558500D01*
X139228569Y-50558500D01*
X139450635Y-50521444D01*
X139663574Y-50448342D01*
X139861576Y-50341189D01*
X140039240Y-50202906D01*
X140160594Y-50071082D01*
X140191715Y-50037276D01*
X140191715Y-50037275D01*
X140191722Y-50037268D01*
X140282193Y-49898790D01*
X140335338Y-49853437D01*
X140404569Y-49844013D01*
X140467905Y-49873515D01*
X140489804Y-49898787D01*
X140580278Y-50037268D01*
X140580283Y-50037273D01*
X140580284Y-50037276D01*
X140706968Y-50174889D01*
X140732760Y-50202906D01*
X140910424Y-50341189D01*
X140910425Y-50341189D01*
X140910427Y-50341191D01*
X140970314Y-50373600D01*
X141108426Y-50448342D01*
X141321365Y-50521444D01*
X141543431Y-50558500D01*
X141768569Y-50558500D01*
X141990635Y-50521444D01*
X142203574Y-50448342D01*
X142401576Y-50341189D01*
X142579240Y-50202906D01*
X142675212Y-50098654D01*
X144361500Y-50098654D01*
X144368011Y-50159202D01*
X144368011Y-50159204D01*
X144419111Y-50296204D01*
X144506739Y-50413261D01*
X144623796Y-50500889D01*
X144760799Y-50551989D01*
X144788050Y-50554918D01*
X144821345Y-50558499D01*
X144821362Y-50558500D01*
X146618638Y-50558500D01*
X146618654Y-50558499D01*
X146645692Y-50555591D01*
X146679201Y-50551989D01*
X146816204Y-50500889D01*
X146933261Y-50413261D01*
X147020889Y-50296204D01*
X147066138Y-50174887D01*
X147108009Y-50118956D01*
X147173474Y-50094539D01*
X147241746Y-50109391D01*
X147273545Y-50134236D01*
X147336760Y-50202906D01*
X147514424Y-50341189D01*
X147514425Y-50341189D01*
X147514427Y-50341191D01*
X147574314Y-50373600D01*
X147712426Y-50448342D01*
X147925365Y-50521444D01*
X148147431Y-50558500D01*
X148372569Y-50558500D01*
X148594635Y-50521444D01*
X148807574Y-50448342D01*
X149005576Y-50341189D01*
X149183240Y-50202906D01*
X149304594Y-50071082D01*
X149335715Y-50037276D01*
X149335715Y-50037275D01*
X149335722Y-50037268D01*
X149426193Y-49898790D01*
X149479338Y-49853437D01*
X149548569Y-49844013D01*
X149611905Y-49873515D01*
X149633804Y-49898787D01*
X149724278Y-50037268D01*
X149724283Y-50037273D01*
X149724284Y-50037276D01*
X149850968Y-50174889D01*
X149876760Y-50202906D01*
X150054424Y-50341189D01*
X150054425Y-50341189D01*
X150054427Y-50341191D01*
X150114314Y-50373600D01*
X150252426Y-50448342D01*
X150465365Y-50521444D01*
X150687431Y-50558500D01*
X150912569Y-50558500D01*
X151134635Y-50521444D01*
X151347574Y-50448342D01*
X151545576Y-50341189D01*
X151723240Y-50202906D01*
X151844594Y-50071082D01*
X151875715Y-50037276D01*
X151875715Y-50037275D01*
X151875722Y-50037268D01*
X151966193Y-49898790D01*
X152019338Y-49853437D01*
X152088569Y-49844013D01*
X152151905Y-49873515D01*
X152173804Y-49898787D01*
X152264278Y-50037268D01*
X152264283Y-50037273D01*
X152264284Y-50037276D01*
X152390968Y-50174889D01*
X152416760Y-50202906D01*
X152594424Y-50341189D01*
X152594425Y-50341189D01*
X152594427Y-50341191D01*
X152654314Y-50373600D01*
X152792426Y-50448342D01*
X153005365Y-50521444D01*
X153227431Y-50558500D01*
X153452569Y-50558500D01*
X153674635Y-50521444D01*
X153887574Y-50448342D01*
X154085576Y-50341189D01*
X154263240Y-50202906D01*
X154384594Y-50071082D01*
X154415715Y-50037276D01*
X154415715Y-50037275D01*
X154415722Y-50037268D01*
X154506193Y-49898790D01*
X154559338Y-49853437D01*
X154628569Y-49844013D01*
X154691905Y-49873515D01*
X154713804Y-49898787D01*
X154804278Y-50037268D01*
X154804283Y-50037273D01*
X154804284Y-50037276D01*
X154930968Y-50174889D01*
X154956760Y-50202906D01*
X155134424Y-50341189D01*
X155134425Y-50341189D01*
X155134427Y-50341191D01*
X155194314Y-50373600D01*
X155332426Y-50448342D01*
X155545365Y-50521444D01*
X155767431Y-50558500D01*
X155992569Y-50558500D01*
X156214635Y-50521444D01*
X156427574Y-50448342D01*
X156625576Y-50341189D01*
X156803240Y-50202906D01*
X156924594Y-50071082D01*
X156955715Y-50037276D01*
X156955715Y-50037275D01*
X156955722Y-50037268D01*
X157046193Y-49898790D01*
X157099338Y-49853437D01*
X157168569Y-49844013D01*
X157231905Y-49873515D01*
X157253804Y-49898787D01*
X157344278Y-50037268D01*
X157344283Y-50037273D01*
X157344284Y-50037276D01*
X157470968Y-50174889D01*
X157496760Y-50202906D01*
X157674424Y-50341189D01*
X157674425Y-50341189D01*
X157674427Y-50341191D01*
X157734314Y-50373600D01*
X157872426Y-50448342D01*
X158085365Y-50521444D01*
X158307431Y-50558500D01*
X158532569Y-50558500D01*
X158754635Y-50521444D01*
X158967574Y-50448342D01*
X159165576Y-50341189D01*
X159343240Y-50202906D01*
X159464594Y-50071082D01*
X159495715Y-50037276D01*
X159495715Y-50037275D01*
X159495722Y-50037268D01*
X159586193Y-49898790D01*
X159639338Y-49853437D01*
X159708569Y-49844013D01*
X159771905Y-49873515D01*
X159793804Y-49898787D01*
X159884278Y-50037268D01*
X159884283Y-50037273D01*
X159884284Y-50037276D01*
X160010968Y-50174889D01*
X160036760Y-50202906D01*
X160214424Y-50341189D01*
X160214425Y-50341189D01*
X160214427Y-50341191D01*
X160274314Y-50373600D01*
X160412426Y-50448342D01*
X160625365Y-50521444D01*
X160847431Y-50558500D01*
X161072569Y-50558500D01*
X161294635Y-50521444D01*
X161507574Y-50448342D01*
X161705576Y-50341189D01*
X161883240Y-50202906D01*
X162004594Y-50071082D01*
X162035715Y-50037276D01*
X162035715Y-50037275D01*
X162035722Y-50037268D01*
X162126193Y-49898790D01*
X162179338Y-49853437D01*
X162248569Y-49844013D01*
X162311905Y-49873515D01*
X162333804Y-49898787D01*
X162424278Y-50037268D01*
X162424283Y-50037273D01*
X162424284Y-50037276D01*
X162550968Y-50174889D01*
X162576760Y-50202906D01*
X162754424Y-50341189D01*
X162754425Y-50341189D01*
X162754427Y-50341191D01*
X162814314Y-50373600D01*
X162952426Y-50448342D01*
X163165365Y-50521444D01*
X163387431Y-50558500D01*
X163612569Y-50558500D01*
X163834635Y-50521444D01*
X164047574Y-50448342D01*
X164245576Y-50341189D01*
X164423240Y-50202906D01*
X164544594Y-50071082D01*
X164575715Y-50037276D01*
X164575717Y-50037273D01*
X164575722Y-50037268D01*
X164698860Y-49848791D01*
X164789296Y-49642616D01*
X164844564Y-49424368D01*
X164856309Y-49282635D01*
X164863156Y-49200005D01*
X164863156Y-49199994D01*
X164844565Y-48975640D01*
X164844563Y-48975628D01*
X164789296Y-48757385D01*
X164779071Y-48734075D01*
X164698860Y-48551209D01*
X164682706Y-48526484D01*
X164575723Y-48362734D01*
X164575715Y-48362723D01*
X164423243Y-48197097D01*
X164423238Y-48197092D01*
X164245577Y-48058812D01*
X164245572Y-48058808D01*
X164047580Y-47951661D01*
X164047577Y-47951659D01*
X164047574Y-47951658D01*
X164047571Y-47951657D01*
X164047569Y-47951656D01*
X163834637Y-47878556D01*
X163612569Y-47841500D01*
X163387431Y-47841500D01*
X163165362Y-47878556D01*
X162952430Y-47951656D01*
X162952419Y-47951661D01*
X162754427Y-48058808D01*
X162754422Y-48058812D01*
X162576761Y-48197092D01*
X162576756Y-48197097D01*
X162424284Y-48362723D01*
X162424276Y-48362734D01*
X162333808Y-48501206D01*
X162280662Y-48546562D01*
X162211431Y-48555986D01*
X162148095Y-48526484D01*
X162126192Y-48501206D01*
X162035723Y-48362734D01*
X162035715Y-48362723D01*
X161883243Y-48197097D01*
X161883238Y-48197092D01*
X161705577Y-48058812D01*
X161705572Y-48058808D01*
X161507580Y-47951661D01*
X161507577Y-47951659D01*
X161507574Y-47951658D01*
X161507571Y-47951657D01*
X161507569Y-47951656D01*
X161294637Y-47878556D01*
X161072569Y-47841500D01*
X160847431Y-47841500D01*
X160625362Y-47878556D01*
X160412430Y-47951656D01*
X160412419Y-47951661D01*
X160214427Y-48058808D01*
X160214422Y-48058812D01*
X160036761Y-48197092D01*
X160036756Y-48197097D01*
X159884284Y-48362723D01*
X159884276Y-48362734D01*
X159793808Y-48501206D01*
X159740662Y-48546562D01*
X159671431Y-48555986D01*
X159608095Y-48526484D01*
X159586192Y-48501206D01*
X159495723Y-48362734D01*
X159495715Y-48362723D01*
X159343243Y-48197097D01*
X159343238Y-48197092D01*
X159165577Y-48058812D01*
X159165572Y-48058808D01*
X158967580Y-47951661D01*
X158967577Y-47951659D01*
X158967574Y-47951658D01*
X158967571Y-47951657D01*
X158967569Y-47951656D01*
X158754637Y-47878556D01*
X158532569Y-47841500D01*
X158307431Y-47841500D01*
X158085362Y-47878556D01*
X157872430Y-47951656D01*
X157872419Y-47951661D01*
X157674427Y-48058808D01*
X157674422Y-48058812D01*
X157496761Y-48197092D01*
X157496756Y-48197097D01*
X157344284Y-48362723D01*
X157344276Y-48362734D01*
X157253808Y-48501206D01*
X157200662Y-48546562D01*
X157131431Y-48555986D01*
X157068095Y-48526484D01*
X157046192Y-48501206D01*
X156955723Y-48362734D01*
X156955715Y-48362723D01*
X156803243Y-48197097D01*
X156803238Y-48197092D01*
X156625577Y-48058812D01*
X156625572Y-48058808D01*
X156427580Y-47951661D01*
X156427577Y-47951659D01*
X156427574Y-47951658D01*
X156427571Y-47951657D01*
X156427569Y-47951656D01*
X156214637Y-47878556D01*
X155992569Y-47841500D01*
X155767431Y-47841500D01*
X155545362Y-47878556D01*
X155332430Y-47951656D01*
X155332419Y-47951661D01*
X155134427Y-48058808D01*
X155134422Y-48058812D01*
X154956761Y-48197092D01*
X154956756Y-48197097D01*
X154804284Y-48362723D01*
X154804276Y-48362734D01*
X154713808Y-48501206D01*
X154660662Y-48546562D01*
X154591431Y-48555986D01*
X154528095Y-48526484D01*
X154506192Y-48501206D01*
X154415723Y-48362734D01*
X154415715Y-48362723D01*
X154263243Y-48197097D01*
X154263238Y-48197092D01*
X154085577Y-48058812D01*
X154085572Y-48058808D01*
X153887580Y-47951661D01*
X153887577Y-47951659D01*
X153887574Y-47951658D01*
X153887571Y-47951657D01*
X153887569Y-47951656D01*
X153674637Y-47878556D01*
X153452569Y-47841500D01*
X153227431Y-47841500D01*
X153005362Y-47878556D01*
X152792430Y-47951656D01*
X152792419Y-47951661D01*
X152594427Y-48058808D01*
X152594422Y-48058812D01*
X152416761Y-48197092D01*
X152416756Y-48197097D01*
X152264284Y-48362723D01*
X152264276Y-48362734D01*
X152173808Y-48501206D01*
X152120662Y-48546562D01*
X152051431Y-48555986D01*
X151988095Y-48526484D01*
X151966192Y-48501206D01*
X151875723Y-48362734D01*
X151875715Y-48362723D01*
X151723243Y-48197097D01*
X151723238Y-48197092D01*
X151545577Y-48058812D01*
X151545572Y-48058808D01*
X151347580Y-47951661D01*
X151347577Y-47951659D01*
X151347574Y-47951658D01*
X151347571Y-47951657D01*
X151347569Y-47951656D01*
X151134637Y-47878556D01*
X150912569Y-47841500D01*
X150687431Y-47841500D01*
X150465362Y-47878556D01*
X150252430Y-47951656D01*
X150252419Y-47951661D01*
X150054427Y-48058808D01*
X150054422Y-48058812D01*
X149876761Y-48197092D01*
X149876756Y-48197097D01*
X149724284Y-48362723D01*
X149724276Y-48362734D01*
X149633808Y-48501206D01*
X149580662Y-48546562D01*
X149511431Y-48555986D01*
X149448095Y-48526484D01*
X149426192Y-48501206D01*
X149335723Y-48362734D01*
X149335715Y-48362723D01*
X149183243Y-48197097D01*
X149183238Y-48197092D01*
X149005577Y-48058812D01*
X149005572Y-48058808D01*
X148807580Y-47951661D01*
X148807577Y-47951659D01*
X148807574Y-47951658D01*
X148807571Y-47951657D01*
X148807569Y-47951656D01*
X148594637Y-47878556D01*
X148372569Y-47841500D01*
X148147431Y-47841500D01*
X147925362Y-47878556D01*
X147712430Y-47951656D01*
X147712419Y-47951661D01*
X147514427Y-48058808D01*
X147514422Y-48058812D01*
X147336761Y-48197092D01*
X147273548Y-48265760D01*
X147213661Y-48301750D01*
X147143823Y-48299649D01*
X147086207Y-48260124D01*
X147066138Y-48225110D01*
X147020889Y-48103796D01*
X146987214Y-48058812D01*
X146933261Y-47986739D01*
X146816204Y-47899111D01*
X146679203Y-47848011D01*
X146618654Y-47841500D01*
X146618638Y-47841500D01*
X144821362Y-47841500D01*
X144821345Y-47841500D01*
X144760797Y-47848011D01*
X144760795Y-47848011D01*
X144623795Y-47899111D01*
X144506739Y-47986739D01*
X144419111Y-48103795D01*
X144368011Y-48240795D01*
X144368011Y-48240797D01*
X144361500Y-48301345D01*
X144361500Y-50098654D01*
X142675212Y-50098654D01*
X142700594Y-50071082D01*
X142731715Y-50037276D01*
X142731717Y-50037273D01*
X142731722Y-50037268D01*
X142854860Y-49848791D01*
X142945296Y-49642616D01*
X143000564Y-49424368D01*
X143012309Y-49282635D01*
X143019156Y-49200005D01*
X143019156Y-49199994D01*
X143000565Y-48975640D01*
X143000563Y-48975628D01*
X142945296Y-48757385D01*
X142935071Y-48734075D01*
X142854860Y-48551209D01*
X142838706Y-48526484D01*
X142731723Y-48362734D01*
X142731715Y-48362723D01*
X142579243Y-48197097D01*
X142579238Y-48197092D01*
X142401577Y-48058812D01*
X142401572Y-48058808D01*
X142203580Y-47951661D01*
X142203577Y-47951659D01*
X142203574Y-47951658D01*
X142203571Y-47951657D01*
X142203569Y-47951656D01*
X141990637Y-47878556D01*
X141768569Y-47841500D01*
X141543431Y-47841500D01*
X141321362Y-47878556D01*
X141108430Y-47951656D01*
X141108419Y-47951661D01*
X140910427Y-48058808D01*
X140910422Y-48058812D01*
X140732761Y-48197092D01*
X140732756Y-48197097D01*
X140580284Y-48362723D01*
X140580276Y-48362734D01*
X140489808Y-48501206D01*
X140436662Y-48546562D01*
X140367431Y-48555986D01*
X140304095Y-48526484D01*
X140282192Y-48501206D01*
X140191723Y-48362734D01*
X140191715Y-48362723D01*
X140039243Y-48197097D01*
X140039238Y-48197092D01*
X139861577Y-48058812D01*
X139861572Y-48058808D01*
X139663580Y-47951661D01*
X139663577Y-47951659D01*
X139663574Y-47951658D01*
X139663571Y-47951657D01*
X139663569Y-47951656D01*
X139450637Y-47878556D01*
X139228569Y-47841500D01*
X139003431Y-47841500D01*
X138781362Y-47878556D01*
X138568430Y-47951656D01*
X138568419Y-47951661D01*
X138370427Y-48058808D01*
X138370422Y-48058812D01*
X138192761Y-48197092D01*
X138192756Y-48197097D01*
X138040284Y-48362723D01*
X138040276Y-48362734D01*
X137949808Y-48501206D01*
X137896662Y-48546562D01*
X137827431Y-48555986D01*
X137764095Y-48526484D01*
X137742192Y-48501206D01*
X137651723Y-48362734D01*
X137651715Y-48362723D01*
X137499243Y-48197097D01*
X137499238Y-48197092D01*
X137321577Y-48058812D01*
X137321572Y-48058808D01*
X137123580Y-47951661D01*
X137123577Y-47951659D01*
X137123574Y-47951658D01*
X137123571Y-47951657D01*
X137123569Y-47951656D01*
X136910637Y-47878556D01*
X136688569Y-47841500D01*
X136463431Y-47841500D01*
X136241362Y-47878556D01*
X136028430Y-47951656D01*
X136028419Y-47951661D01*
X135830427Y-48058808D01*
X135830422Y-48058812D01*
X135652761Y-48197092D01*
X135652756Y-48197097D01*
X135500284Y-48362723D01*
X135500276Y-48362734D01*
X135409808Y-48501206D01*
X135356662Y-48546562D01*
X135287431Y-48555986D01*
X135224095Y-48526484D01*
X135202192Y-48501206D01*
X135111723Y-48362734D01*
X135111715Y-48362723D01*
X134959243Y-48197097D01*
X134959238Y-48197092D01*
X134781577Y-48058812D01*
X134781572Y-48058808D01*
X134583580Y-47951661D01*
X134583577Y-47951659D01*
X134583574Y-47951658D01*
X134583571Y-47951657D01*
X134583569Y-47951656D01*
X134370637Y-47878556D01*
X134148569Y-47841500D01*
X133923431Y-47841500D01*
X133701362Y-47878556D01*
X133488430Y-47951656D01*
X133488419Y-47951661D01*
X133290427Y-48058808D01*
X133290422Y-48058812D01*
X133112761Y-48197092D01*
X133112756Y-48197097D01*
X132960284Y-48362723D01*
X132960276Y-48362734D01*
X132869808Y-48501206D01*
X132816662Y-48546562D01*
X132747431Y-48555986D01*
X132684095Y-48526484D01*
X132662192Y-48501206D01*
X132571723Y-48362734D01*
X132571715Y-48362723D01*
X132419243Y-48197097D01*
X132419238Y-48197092D01*
X132241577Y-48058812D01*
X132241572Y-48058808D01*
X132043580Y-47951661D01*
X132043577Y-47951659D01*
X132043574Y-47951658D01*
X132043571Y-47951657D01*
X132043569Y-47951656D01*
X131830637Y-47878556D01*
X131608569Y-47841500D01*
X131383431Y-47841500D01*
X131161362Y-47878556D01*
X130948430Y-47951656D01*
X130948419Y-47951661D01*
X130750427Y-48058808D01*
X130750422Y-48058812D01*
X130572761Y-48197092D01*
X130572756Y-48197097D01*
X130420284Y-48362723D01*
X130420276Y-48362734D01*
X130329808Y-48501206D01*
X130276662Y-48546562D01*
X130207431Y-48555986D01*
X130144095Y-48526484D01*
X130122192Y-48501206D01*
X130031723Y-48362734D01*
X130031715Y-48362723D01*
X129879243Y-48197097D01*
X129879238Y-48197092D01*
X129701577Y-48058812D01*
X129701572Y-48058808D01*
X129503580Y-47951661D01*
X129503577Y-47951659D01*
X129503574Y-47951658D01*
X129503571Y-47951657D01*
X129503569Y-47951656D01*
X129290637Y-47878556D01*
X129068569Y-47841500D01*
X128843431Y-47841500D01*
X128621362Y-47878556D01*
X128408430Y-47951656D01*
X128408419Y-47951661D01*
X128210427Y-48058808D01*
X128210422Y-48058812D01*
X128032761Y-48197092D01*
X128032756Y-48197097D01*
X127880284Y-48362723D01*
X127880276Y-48362734D01*
X127786251Y-48506650D01*
X127733105Y-48552007D01*
X127663873Y-48561430D01*
X127600538Y-48531928D01*
X127580868Y-48509951D01*
X127454113Y-48328926D01*
X127454108Y-48328920D01*
X127287082Y-48161894D01*
X127093578Y-48026399D01*
X126879492Y-47926570D01*
X126879486Y-47926567D01*
X126666000Y-47869364D01*
X126666000Y-48766988D01*
X126608993Y-48734075D01*
X126481826Y-48700000D01*
X126350174Y-48700000D01*
X126223007Y-48734075D01*
X126166000Y-48766988D01*
X126166000Y-47869364D01*
X126165999Y-47869364D01*
X125952513Y-47926567D01*
X125952507Y-47926570D01*
X125738422Y-48026399D01*
X125738420Y-48026400D01*
X125544926Y-48161886D01*
X125544920Y-48161891D01*
X125377891Y-48328920D01*
X125377890Y-48328922D01*
X125251131Y-48509952D01*
X125196554Y-48553577D01*
X125127055Y-48560769D01*
X125064701Y-48529247D01*
X125045752Y-48506656D01*
X124951722Y-48362732D01*
X124951715Y-48362725D01*
X124951715Y-48362723D01*
X124799243Y-48197097D01*
X124799238Y-48197092D01*
X124621577Y-48058812D01*
X124621572Y-48058808D01*
X124423580Y-47951661D01*
X124423577Y-47951659D01*
X124423574Y-47951658D01*
X124423571Y-47951657D01*
X124423569Y-47951656D01*
X124210637Y-47878556D01*
X123988569Y-47841500D01*
X123763431Y-47841500D01*
X123541362Y-47878556D01*
X123328430Y-47951656D01*
X123328419Y-47951661D01*
X123130427Y-48058808D01*
X123130422Y-48058812D01*
X122952761Y-48197092D01*
X122952756Y-48197097D01*
X122800284Y-48362723D01*
X122800276Y-48362734D01*
X122709808Y-48501206D01*
X122656662Y-48546562D01*
X122587431Y-48555986D01*
X122524095Y-48526484D01*
X122502192Y-48501206D01*
X122411723Y-48362734D01*
X122411715Y-48362723D01*
X122259243Y-48197097D01*
X122259238Y-48197092D01*
X122081577Y-48058812D01*
X122081572Y-48058808D01*
X121883580Y-47951661D01*
X121883577Y-47951659D01*
X121883574Y-47951658D01*
X121883571Y-47951657D01*
X121883569Y-47951656D01*
X121670637Y-47878556D01*
X121448569Y-47841500D01*
X121223431Y-47841500D01*
X121001362Y-47878556D01*
X120788430Y-47951656D01*
X120788419Y-47951661D01*
X120590427Y-48058808D01*
X120590422Y-48058812D01*
X120412761Y-48197092D01*
X120349548Y-48265760D01*
X120289661Y-48301750D01*
X120219823Y-48299649D01*
X120162207Y-48260124D01*
X120142138Y-48225110D01*
X120096889Y-48103796D01*
X120063214Y-48058812D01*
X120009261Y-47986739D01*
X119892204Y-47899111D01*
X119755203Y-47848011D01*
X119694654Y-47841500D01*
X119694638Y-47841500D01*
X117897362Y-47841500D01*
X117897345Y-47841500D01*
X117836797Y-47848011D01*
X117836795Y-47848011D01*
X117699795Y-47899111D01*
X117582739Y-47986739D01*
X117495111Y-48103795D01*
X117444011Y-48240795D01*
X117444011Y-48240797D01*
X117437500Y-48301345D01*
X117437500Y-50098654D01*
X100075500Y-50098654D01*
X100075500Y-47428092D01*
X100076097Y-47415938D01*
X100087494Y-47300222D01*
X100092234Y-47276389D01*
X100124216Y-47170959D01*
X100133508Y-47148526D01*
X100185442Y-47051365D01*
X100198938Y-47031166D01*
X100268827Y-46946006D01*
X100286006Y-46928827D01*
X100371166Y-46858938D01*
X100391365Y-46845442D01*
X100488526Y-46793508D01*
X100510959Y-46784216D01*
X100616389Y-46752234D01*
X100640220Y-46747494D01*
X100755939Y-46736097D01*
X100768093Y-46735500D01*
X100786531Y-46735500D01*
X163417365Y-46735500D01*
X163484404Y-46755185D01*
G37*
%TD.AperFunction*%
%TD*%
D18*
X127940000Y-97460000D03*
X130480000Y-97460000D03*
X133020000Y-97460000D03*
X135560000Y-97460000D03*
X138100000Y-97460000D03*
X140640000Y-97460000D03*
X143180000Y-97460000D03*
X145720000Y-97460000D03*
X150800000Y-97460000D03*
X153340000Y-97460000D03*
X155880000Y-97460000D03*
X158420000Y-97460000D03*
X160960000Y-97460000D03*
X163500000Y-97460000D03*
X118796000Y-49200000D03*
X121336000Y-49200000D03*
X123876000Y-49200000D03*
X126416000Y-49200000D03*
X128956000Y-49200000D03*
X131496000Y-49200000D03*
X134036000Y-49200000D03*
X136576000Y-49200000D03*
X139116000Y-49200000D03*
X141656000Y-49200000D03*
X145720000Y-49200000D03*
X148260000Y-49200000D03*
X150800000Y-49200000D03*
X153340000Y-49200000D03*
X155880000Y-49200000D03*
X158420000Y-49200000D03*
X160960000Y-49200000D03*
X163500000Y-49200000D03*
X150000000Y-56500000D03*
X156500000Y-56500000D03*
X156500000Y-61000000D03*
X150000000Y-61000000D03*
X113690000Y-79000000D03*
X121310000Y-79000000D03*
X104960000Y-72000000D03*
X107500000Y-72000000D03*
X115240000Y-49200000D03*
X103460000Y-83500000D03*
X106000000Y-83500000D03*
X140500000Y-57000000D03*
X130340000Y-57000000D03*
X113970000Y-97460000D03*
X166040000Y-64440000D03*
X138500000Y-73000000D03*
X141040000Y-73000000D03*
X135960000Y-73000000D03*
X166040000Y-92380000D03*
M02*
