%TF.GenerationSoftware,KiCad,Pcbnew,8.0.0*%
%TF.CreationDate,2024-04-21T19:32:52-04:00*%
%TF.ProjectId,9_motorized_pinwheel,395f6d6f-746f-4726-997a-65645f70696e,rev?*%
%TF.SameCoordinates,Original*%
%TF.FileFunction,Legend,Top*%
%TF.FilePolarity,Positive*%
%FSLAX46Y46*%
G04 Gerber Fmt 4.6, Leading zero omitted, Abs format (unit mm)*
G04 Created by KiCad (PCBNEW 8.0.0) date 2024-04-21 19:32:52*
%MOMM*%
%LPD*%
G01*
G04 APERTURE LIST*
%ADD10C,0.300000*%
%ADD11C,0.100000*%
%ADD12C,0.150000*%
%ADD13C,0.120000*%
%ADD14C,0.152400*%
%ADD15C,0.254000*%
%ADD16C,0.010000*%
%ADD17C,0.350000*%
G04 APERTURE END LIST*
D10*
X14840225Y14029004D02*
X14983082Y14029004D01*
X14983082Y14029004D02*
X15125939Y13957575D01*
X15125939Y13957575D02*
X15197368Y13886147D01*
X15197368Y13886147D02*
X15268796Y13743290D01*
X15268796Y13743290D02*
X15340225Y13457575D01*
X15340225Y13457575D02*
X15340225Y13100432D01*
X15340225Y13100432D02*
X15268796Y12814718D01*
X15268796Y12814718D02*
X15197368Y12671861D01*
X15197368Y12671861D02*
X15125939Y12600432D01*
X15125939Y12600432D02*
X14983082Y12529004D01*
X14983082Y12529004D02*
X14840225Y12529004D01*
X14840225Y12529004D02*
X14697368Y12600432D01*
X14697368Y12600432D02*
X14625939Y12671861D01*
X14625939Y12671861D02*
X14554510Y12814718D01*
X14554510Y12814718D02*
X14483082Y13100432D01*
X14483082Y13100432D02*
X14483082Y13457575D01*
X14483082Y13457575D02*
X14554510Y13743290D01*
X14554510Y13743290D02*
X14625939Y13886147D01*
X14625939Y13886147D02*
X14697368Y13957575D01*
X14697368Y13957575D02*
X14840225Y14029004D01*
X16054510Y12529004D02*
X16340224Y12529004D01*
X16340224Y12529004D02*
X16483081Y12600432D01*
X16483081Y12600432D02*
X16554510Y12671861D01*
X16554510Y12671861D02*
X16697367Y12886147D01*
X16697367Y12886147D02*
X16768796Y13171861D01*
X16768796Y13171861D02*
X16768796Y13743290D01*
X16768796Y13743290D02*
X16697367Y13886147D01*
X16697367Y13886147D02*
X16625939Y13957575D01*
X16625939Y13957575D02*
X16483081Y14029004D01*
X16483081Y14029004D02*
X16197367Y14029004D01*
X16197367Y14029004D02*
X16054510Y13957575D01*
X16054510Y13957575D02*
X15983081Y13886147D01*
X15983081Y13886147D02*
X15911653Y13743290D01*
X15911653Y13743290D02*
X15911653Y13386147D01*
X15911653Y13386147D02*
X15983081Y13243290D01*
X15983081Y13243290D02*
X16054510Y13171861D01*
X16054510Y13171861D02*
X16197367Y13100432D01*
X16197367Y13100432D02*
X16483081Y13100432D01*
X16483081Y13100432D02*
X16625939Y13171861D01*
X16625939Y13171861D02*
X16697367Y13243290D01*
X16697367Y13243290D02*
X16768796Y13386147D01*
X17411652Y12671861D02*
X17483081Y12600432D01*
X17483081Y12600432D02*
X17411652Y12529004D01*
X17411652Y12529004D02*
X17340224Y12600432D01*
X17340224Y12600432D02*
X17411652Y12671861D01*
X17411652Y12671861D02*
X17411652Y12529004D01*
X17411652Y13457575D02*
X17483081Y13386147D01*
X17483081Y13386147D02*
X17411652Y13314718D01*
X17411652Y13314718D02*
X17340224Y13386147D01*
X17340224Y13386147D02*
X17411652Y13457575D01*
X17411652Y13457575D02*
X17411652Y13314718D01*
X19268795Y12529004D02*
X19268795Y14029004D01*
X19268795Y14029004D02*
X19768795Y12957575D01*
X19768795Y12957575D02*
X20268795Y14029004D01*
X20268795Y14029004D02*
X20268795Y12529004D01*
X21268796Y14029004D02*
X21554510Y14029004D01*
X21554510Y14029004D02*
X21697367Y13957575D01*
X21697367Y13957575D02*
X21840224Y13814718D01*
X21840224Y13814718D02*
X21911653Y13529004D01*
X21911653Y13529004D02*
X21911653Y13029004D01*
X21911653Y13029004D02*
X21840224Y12743290D01*
X21840224Y12743290D02*
X21697367Y12600432D01*
X21697367Y12600432D02*
X21554510Y12529004D01*
X21554510Y12529004D02*
X21268796Y12529004D01*
X21268796Y12529004D02*
X21125939Y12600432D01*
X21125939Y12600432D02*
X20983081Y12743290D01*
X20983081Y12743290D02*
X20911653Y13029004D01*
X20911653Y13029004D02*
X20911653Y13529004D01*
X20911653Y13529004D02*
X20983081Y13814718D01*
X20983081Y13814718D02*
X21125939Y13957575D01*
X21125939Y13957575D02*
X21268796Y14029004D01*
X22340225Y14029004D02*
X23197368Y14029004D01*
X22768796Y12529004D02*
X22768796Y14029004D01*
X23983082Y14029004D02*
X24268796Y14029004D01*
X24268796Y14029004D02*
X24411653Y13957575D01*
X24411653Y13957575D02*
X24554510Y13814718D01*
X24554510Y13814718D02*
X24625939Y13529004D01*
X24625939Y13529004D02*
X24625939Y13029004D01*
X24625939Y13029004D02*
X24554510Y12743290D01*
X24554510Y12743290D02*
X24411653Y12600432D01*
X24411653Y12600432D02*
X24268796Y12529004D01*
X24268796Y12529004D02*
X23983082Y12529004D01*
X23983082Y12529004D02*
X23840225Y12600432D01*
X23840225Y12600432D02*
X23697367Y12743290D01*
X23697367Y12743290D02*
X23625939Y13029004D01*
X23625939Y13029004D02*
X23625939Y13529004D01*
X23625939Y13529004D02*
X23697367Y13814718D01*
X23697367Y13814718D02*
X23840225Y13957575D01*
X23840225Y13957575D02*
X23983082Y14029004D01*
X26125939Y12529004D02*
X25625939Y13243290D01*
X25268796Y12529004D02*
X25268796Y14029004D01*
X25268796Y14029004D02*
X25840225Y14029004D01*
X25840225Y14029004D02*
X25983082Y13957575D01*
X25983082Y13957575D02*
X26054511Y13886147D01*
X26054511Y13886147D02*
X26125939Y13743290D01*
X26125939Y13743290D02*
X26125939Y13529004D01*
X26125939Y13529004D02*
X26054511Y13386147D01*
X26054511Y13386147D02*
X25983082Y13314718D01*
X25983082Y13314718D02*
X25840225Y13243290D01*
X25840225Y13243290D02*
X25268796Y13243290D01*
X26768796Y12529004D02*
X26768796Y14029004D01*
X27340225Y14029004D02*
X28340225Y14029004D01*
X28340225Y14029004D02*
X27340225Y12529004D01*
X27340225Y12529004D02*
X28340225Y12529004D01*
X28911653Y13314718D02*
X29411653Y13314718D01*
X29625939Y12529004D02*
X28911653Y12529004D01*
X28911653Y12529004D02*
X28911653Y14029004D01*
X28911653Y14029004D02*
X29625939Y14029004D01*
X30268796Y12529004D02*
X30268796Y14029004D01*
X30268796Y14029004D02*
X30625939Y14029004D01*
X30625939Y14029004D02*
X30840225Y13957575D01*
X30840225Y13957575D02*
X30983082Y13814718D01*
X30983082Y13814718D02*
X31054511Y13671861D01*
X31054511Y13671861D02*
X31125939Y13386147D01*
X31125939Y13386147D02*
X31125939Y13171861D01*
X31125939Y13171861D02*
X31054511Y12886147D01*
X31054511Y12886147D02*
X30983082Y12743290D01*
X30983082Y12743290D02*
X30840225Y12600432D01*
X30840225Y12600432D02*
X30625939Y12529004D01*
X30625939Y12529004D02*
X30268796Y12529004D01*
X32911653Y12529004D02*
X32911653Y14029004D01*
X32911653Y14029004D02*
X33483082Y14029004D01*
X33483082Y14029004D02*
X33625939Y13957575D01*
X33625939Y13957575D02*
X33697368Y13886147D01*
X33697368Y13886147D02*
X33768796Y13743290D01*
X33768796Y13743290D02*
X33768796Y13529004D01*
X33768796Y13529004D02*
X33697368Y13386147D01*
X33697368Y13386147D02*
X33625939Y13314718D01*
X33625939Y13314718D02*
X33483082Y13243290D01*
X33483082Y13243290D02*
X32911653Y13243290D01*
X34411653Y12529004D02*
X34411653Y14029004D01*
X35125939Y12529004D02*
X35125939Y14029004D01*
X35125939Y14029004D02*
X35983082Y12529004D01*
X35983082Y12529004D02*
X35983082Y14029004D01*
X36554511Y14029004D02*
X36911654Y12529004D01*
X36911654Y12529004D02*
X37197368Y13600432D01*
X37197368Y13600432D02*
X37483083Y12529004D01*
X37483083Y12529004D02*
X37840226Y14029004D01*
X38411654Y12529004D02*
X38411654Y14029004D01*
X38411654Y13314718D02*
X39268797Y13314718D01*
X39268797Y12529004D02*
X39268797Y14029004D01*
X39983083Y13314718D02*
X40483083Y13314718D01*
X40697369Y12529004D02*
X39983083Y12529004D01*
X39983083Y12529004D02*
X39983083Y14029004D01*
X39983083Y14029004D02*
X40697369Y14029004D01*
X41340226Y13314718D02*
X41840226Y13314718D01*
X42054512Y12529004D02*
X41340226Y12529004D01*
X41340226Y12529004D02*
X41340226Y14029004D01*
X41340226Y14029004D02*
X42054512Y14029004D01*
X43411655Y12529004D02*
X42697369Y12529004D01*
X42697369Y12529004D02*
X42697369Y14029004D01*
X44983084Y12957575D02*
X45697370Y12957575D01*
X44840227Y12529004D02*
X45340227Y14029004D01*
X45340227Y14029004D02*
X45840227Y12529004D01*
X47197369Y12529004D02*
X46697369Y13243290D01*
X46340226Y12529004D02*
X46340226Y14029004D01*
X46340226Y14029004D02*
X46911655Y14029004D01*
X46911655Y14029004D02*
X47054512Y13957575D01*
X47054512Y13957575D02*
X47125941Y13886147D01*
X47125941Y13886147D02*
X47197369Y13743290D01*
X47197369Y13743290D02*
X47197369Y13529004D01*
X47197369Y13529004D02*
X47125941Y13386147D01*
X47125941Y13386147D02*
X47054512Y13314718D01*
X47054512Y13314718D02*
X46911655Y13243290D01*
X46911655Y13243290D02*
X46340226Y13243290D01*
X47840226Y12529004D02*
X47840226Y14029004D01*
X47840226Y14029004D02*
X48197369Y14029004D01*
X48197369Y14029004D02*
X48411655Y13957575D01*
X48411655Y13957575D02*
X48554512Y13814718D01*
X48554512Y13814718D02*
X48625941Y13671861D01*
X48625941Y13671861D02*
X48697369Y13386147D01*
X48697369Y13386147D02*
X48697369Y13171861D01*
X48697369Y13171861D02*
X48625941Y12886147D01*
X48625941Y12886147D02*
X48554512Y12743290D01*
X48554512Y12743290D02*
X48411655Y12600432D01*
X48411655Y12600432D02*
X48197369Y12529004D01*
X48197369Y12529004D02*
X47840226Y12529004D01*
X49340226Y14029004D02*
X49340226Y12814718D01*
X49340226Y12814718D02*
X49411655Y12671861D01*
X49411655Y12671861D02*
X49483084Y12600432D01*
X49483084Y12600432D02*
X49625941Y12529004D01*
X49625941Y12529004D02*
X49911655Y12529004D01*
X49911655Y12529004D02*
X50054512Y12600432D01*
X50054512Y12600432D02*
X50125941Y12671861D01*
X50125941Y12671861D02*
X50197369Y12814718D01*
X50197369Y12814718D02*
X50197369Y14029004D01*
X50911655Y12529004D02*
X50911655Y14029004D01*
X51625941Y12529004D02*
X51625941Y14029004D01*
X51625941Y14029004D02*
X52483084Y12529004D01*
X52483084Y12529004D02*
X52483084Y14029004D01*
X53483085Y14029004D02*
X53768799Y14029004D01*
X53768799Y14029004D02*
X53911656Y13957575D01*
X53911656Y13957575D02*
X54054513Y13814718D01*
X54054513Y13814718D02*
X54125942Y13529004D01*
X54125942Y13529004D02*
X54125942Y13029004D01*
X54125942Y13029004D02*
X54054513Y12743290D01*
X54054513Y12743290D02*
X53911656Y12600432D01*
X53911656Y12600432D02*
X53768799Y12529004D01*
X53768799Y12529004D02*
X53483085Y12529004D01*
X53483085Y12529004D02*
X53340228Y12600432D01*
X53340228Y12600432D02*
X53197370Y12743290D01*
X53197370Y12743290D02*
X53125942Y13029004D01*
X53125942Y13029004D02*
X53125942Y13529004D01*
X53125942Y13529004D02*
X53197370Y13814718D01*
X53197370Y13814718D02*
X53340228Y13957575D01*
X53340228Y13957575D02*
X53483085Y14029004D01*
X55840228Y12600432D02*
X56054514Y12529004D01*
X56054514Y12529004D02*
X56411656Y12529004D01*
X56411656Y12529004D02*
X56554514Y12600432D01*
X56554514Y12600432D02*
X56625942Y12671861D01*
X56625942Y12671861D02*
X56697371Y12814718D01*
X56697371Y12814718D02*
X56697371Y12957575D01*
X56697371Y12957575D02*
X56625942Y13100432D01*
X56625942Y13100432D02*
X56554514Y13171861D01*
X56554514Y13171861D02*
X56411656Y13243290D01*
X56411656Y13243290D02*
X56125942Y13314718D01*
X56125942Y13314718D02*
X55983085Y13386147D01*
X55983085Y13386147D02*
X55911656Y13457575D01*
X55911656Y13457575D02*
X55840228Y13600432D01*
X55840228Y13600432D02*
X55840228Y13743290D01*
X55840228Y13743290D02*
X55911656Y13886147D01*
X55911656Y13886147D02*
X55983085Y13957575D01*
X55983085Y13957575D02*
X56125942Y14029004D01*
X56125942Y14029004D02*
X56483085Y14029004D01*
X56483085Y14029004D02*
X56697371Y13957575D01*
X57340227Y12529004D02*
X57340227Y14029004D01*
X57340227Y13314718D02*
X58197370Y13314718D01*
X58197370Y12529004D02*
X58197370Y14029004D01*
X58911656Y12529004D02*
X58911656Y14029004D01*
X59625942Y13314718D02*
X60125942Y13314718D01*
X60340228Y12529004D02*
X59625942Y12529004D01*
X59625942Y12529004D02*
X59625942Y14029004D01*
X59625942Y14029004D02*
X60340228Y14029004D01*
X61697371Y12529004D02*
X60983085Y12529004D01*
X60983085Y12529004D02*
X60983085Y14029004D01*
X62197371Y12529004D02*
X62197371Y14029004D01*
X62197371Y14029004D02*
X62554514Y14029004D01*
X62554514Y14029004D02*
X62768800Y13957575D01*
X62768800Y13957575D02*
X62911657Y13814718D01*
X62911657Y13814718D02*
X62983086Y13671861D01*
X62983086Y13671861D02*
X63054514Y13386147D01*
X63054514Y13386147D02*
X63054514Y13171861D01*
X63054514Y13171861D02*
X62983086Y12886147D01*
X62983086Y12886147D02*
X62911657Y12743290D01*
X62911657Y12743290D02*
X62768800Y12600432D01*
X62768800Y12600432D02*
X62554514Y12529004D01*
X62554514Y12529004D02*
X62197371Y12529004D01*
X14554510Y10114088D02*
X14554510Y11614088D01*
X14554510Y11614088D02*
X14911653Y11614088D01*
X14911653Y11614088D02*
X15125939Y11542659D01*
X15125939Y11542659D02*
X15268796Y11399802D01*
X15268796Y11399802D02*
X15340225Y11256945D01*
X15340225Y11256945D02*
X15411653Y10971231D01*
X15411653Y10971231D02*
X15411653Y10756945D01*
X15411653Y10756945D02*
X15340225Y10471231D01*
X15340225Y10471231D02*
X15268796Y10328374D01*
X15268796Y10328374D02*
X15125939Y10185516D01*
X15125939Y10185516D02*
X14911653Y10114088D01*
X14911653Y10114088D02*
X14554510Y10114088D01*
X16054510Y10256945D02*
X16125939Y10185516D01*
X16125939Y10185516D02*
X16054510Y10114088D01*
X16054510Y10114088D02*
X15983082Y10185516D01*
X15983082Y10185516D02*
X16054510Y10256945D01*
X16054510Y10256945D02*
X16054510Y10114088D01*
X16697368Y10185516D02*
X16911654Y10114088D01*
X16911654Y10114088D02*
X17268796Y10114088D01*
X17268796Y10114088D02*
X17411654Y10185516D01*
X17411654Y10185516D02*
X17483082Y10256945D01*
X17483082Y10256945D02*
X17554511Y10399802D01*
X17554511Y10399802D02*
X17554511Y10542659D01*
X17554511Y10542659D02*
X17483082Y10685516D01*
X17483082Y10685516D02*
X17411654Y10756945D01*
X17411654Y10756945D02*
X17268796Y10828374D01*
X17268796Y10828374D02*
X16983082Y10899802D01*
X16983082Y10899802D02*
X16840225Y10971231D01*
X16840225Y10971231D02*
X16768796Y11042659D01*
X16768796Y11042659D02*
X16697368Y11185516D01*
X16697368Y11185516D02*
X16697368Y11328374D01*
X16697368Y11328374D02*
X16768796Y11471231D01*
X16768796Y11471231D02*
X16840225Y11542659D01*
X16840225Y11542659D02*
X16983082Y11614088D01*
X16983082Y11614088D02*
X17340225Y11614088D01*
X17340225Y11614088D02*
X17554511Y11542659D01*
X18197367Y10114088D02*
X18197367Y11614088D01*
X18197367Y10899802D02*
X19054510Y10899802D01*
X19054510Y10114088D02*
X19054510Y11614088D01*
X19768796Y10899802D02*
X20268796Y10899802D01*
X20483082Y10114088D02*
X19768796Y10114088D01*
X19768796Y10114088D02*
X19768796Y11614088D01*
X19768796Y11614088D02*
X20483082Y11614088D01*
X21983082Y10114088D02*
X21483082Y10828374D01*
X21125939Y10114088D02*
X21125939Y11614088D01*
X21125939Y11614088D02*
X21697368Y11614088D01*
X21697368Y11614088D02*
X21840225Y11542659D01*
X21840225Y11542659D02*
X21911654Y11471231D01*
X21911654Y11471231D02*
X21983082Y11328374D01*
X21983082Y11328374D02*
X21983082Y11114088D01*
X21983082Y11114088D02*
X21911654Y10971231D01*
X21911654Y10971231D02*
X21840225Y10899802D01*
X21840225Y10899802D02*
X21697368Y10828374D01*
X21697368Y10828374D02*
X21125939Y10828374D01*
X22625939Y10114088D02*
X22625939Y11614088D01*
X22625939Y11614088D02*
X23125939Y10542659D01*
X23125939Y10542659D02*
X23625939Y11614088D01*
X23625939Y11614088D02*
X23625939Y10114088D01*
X24268797Y10542659D02*
X24983083Y10542659D01*
X24125940Y10114088D02*
X24625940Y11614088D01*
X24625940Y11614088D02*
X25125940Y10114088D01*
X25625939Y10114088D02*
X25625939Y11614088D01*
X25625939Y11614088D02*
X26483082Y10114088D01*
X26483082Y10114088D02*
X26483082Y11614088D01*
X14840225Y9199172D02*
X14983082Y9199172D01*
X14983082Y9199172D02*
X15125939Y9127743D01*
X15125939Y9127743D02*
X15197368Y9056315D01*
X15197368Y9056315D02*
X15268796Y8913458D01*
X15268796Y8913458D02*
X15340225Y8627743D01*
X15340225Y8627743D02*
X15340225Y8270600D01*
X15340225Y8270600D02*
X15268796Y7984886D01*
X15268796Y7984886D02*
X15197368Y7842029D01*
X15197368Y7842029D02*
X15125939Y7770600D01*
X15125939Y7770600D02*
X14983082Y7699172D01*
X14983082Y7699172D02*
X14840225Y7699172D01*
X14840225Y7699172D02*
X14697368Y7770600D01*
X14697368Y7770600D02*
X14625939Y7842029D01*
X14625939Y7842029D02*
X14554510Y7984886D01*
X14554510Y7984886D02*
X14483082Y8270600D01*
X14483082Y8270600D02*
X14483082Y8627743D01*
X14483082Y8627743D02*
X14554510Y8913458D01*
X14554510Y8913458D02*
X14625939Y9056315D01*
X14625939Y9056315D02*
X14697368Y9127743D01*
X14697368Y9127743D02*
X14840225Y9199172D01*
X16625939Y8699172D02*
X16625939Y7699172D01*
X16268796Y9270600D02*
X15911653Y8199172D01*
X15911653Y8199172D02*
X16840224Y8199172D01*
X18483081Y9270600D02*
X17197367Y7342029D01*
X18911653Y9056315D02*
X18983081Y9127743D01*
X18983081Y9127743D02*
X19125939Y9199172D01*
X19125939Y9199172D02*
X19483081Y9199172D01*
X19483081Y9199172D02*
X19625939Y9127743D01*
X19625939Y9127743D02*
X19697367Y9056315D01*
X19697367Y9056315D02*
X19768796Y8913458D01*
X19768796Y8913458D02*
X19768796Y8770600D01*
X19768796Y8770600D02*
X19697367Y8556315D01*
X19697367Y8556315D02*
X18840224Y7699172D01*
X18840224Y7699172D02*
X19768796Y7699172D01*
X21054510Y8699172D02*
X21054510Y7699172D01*
X20697367Y9270600D02*
X20340224Y8199172D01*
X20340224Y8199172D02*
X21268795Y8199172D01*
D11*
X48666667Y43590200D02*
X48809524Y43542581D01*
X48809524Y43542581D02*
X49047619Y43542581D01*
X49047619Y43542581D02*
X49142857Y43590200D01*
X49142857Y43590200D02*
X49190476Y43637820D01*
X49190476Y43637820D02*
X49238095Y43733058D01*
X49238095Y43733058D02*
X49238095Y43828296D01*
X49238095Y43828296D02*
X49190476Y43923534D01*
X49190476Y43923534D02*
X49142857Y43971153D01*
X49142857Y43971153D02*
X49047619Y44018772D01*
X49047619Y44018772D02*
X48857143Y44066391D01*
X48857143Y44066391D02*
X48761905Y44114010D01*
X48761905Y44114010D02*
X48714286Y44161629D01*
X48714286Y44161629D02*
X48666667Y44256867D01*
X48666667Y44256867D02*
X48666667Y44352105D01*
X48666667Y44352105D02*
X48714286Y44447343D01*
X48714286Y44447343D02*
X48761905Y44494962D01*
X48761905Y44494962D02*
X48857143Y44542581D01*
X48857143Y44542581D02*
X49095238Y44542581D01*
X49095238Y44542581D02*
X49238095Y44494962D01*
X49571429Y44542581D02*
X49809524Y43542581D01*
X49809524Y43542581D02*
X50000000Y44256867D01*
X50000000Y44256867D02*
X50190476Y43542581D01*
X50190476Y43542581D02*
X50428572Y44542581D01*
X51333333Y43542581D02*
X50761905Y43542581D01*
X51047619Y43542581D02*
X51047619Y44542581D01*
X51047619Y44542581D02*
X50952381Y44399724D01*
X50952381Y44399724D02*
X50857143Y44304486D01*
X50857143Y44304486D02*
X50761905Y44256867D01*
D12*
X16761905Y23015181D02*
X16761905Y24015181D01*
X16761905Y24015181D02*
X17000000Y24015181D01*
X17000000Y24015181D02*
X17142857Y23967562D01*
X17142857Y23967562D02*
X17238095Y23872324D01*
X17238095Y23872324D02*
X17285714Y23777086D01*
X17285714Y23777086D02*
X17333333Y23586610D01*
X17333333Y23586610D02*
X17333333Y23443753D01*
X17333333Y23443753D02*
X17285714Y23253277D01*
X17285714Y23253277D02*
X17238095Y23158039D01*
X17238095Y23158039D02*
X17142857Y23062800D01*
X17142857Y23062800D02*
X17000000Y23015181D01*
X17000000Y23015181D02*
X16761905Y23015181D01*
X18285714Y23015181D02*
X17714286Y23015181D01*
X18000000Y23015181D02*
X18000000Y24015181D01*
X18000000Y24015181D02*
X17904762Y23872324D01*
X17904762Y23872324D02*
X17809524Y23777086D01*
X17809524Y23777086D02*
X17714286Y23729467D01*
X13428095Y22445181D02*
X13428095Y23445181D01*
X13999523Y22445181D02*
X13570952Y23016610D01*
X13999523Y23445181D02*
X13428095Y22873753D01*
X3084819Y27190477D02*
X2084819Y27190477D01*
X2084819Y27190477D02*
X2799104Y27523810D01*
X2799104Y27523810D02*
X2084819Y27857143D01*
X2084819Y27857143D02*
X3084819Y27857143D01*
X3084819Y28857143D02*
X3084819Y28285715D01*
X3084819Y28571429D02*
X2084819Y28571429D01*
X2084819Y28571429D02*
X2227676Y28476191D01*
X2227676Y28476191D02*
X2322914Y28380953D01*
X2322914Y28380953D02*
X2370533Y28285715D01*
X1061009Y15714286D02*
X1108628Y15857143D01*
X1108628Y15857143D02*
X1156247Y15904762D01*
X1156247Y15904762D02*
X1251485Y15952381D01*
X1251485Y15952381D02*
X1394342Y15952381D01*
X1394342Y15952381D02*
X1489580Y15904762D01*
X1489580Y15904762D02*
X1537200Y15857143D01*
X1537200Y15857143D02*
X1584819Y15761905D01*
X1584819Y15761905D02*
X1584819Y15380953D01*
X1584819Y15380953D02*
X584819Y15380953D01*
X584819Y15380953D02*
X584819Y15714286D01*
X584819Y15714286D02*
X632438Y15809524D01*
X632438Y15809524D02*
X680057Y15857143D01*
X680057Y15857143D02*
X775295Y15904762D01*
X775295Y15904762D02*
X870533Y15904762D01*
X870533Y15904762D02*
X965771Y15857143D01*
X965771Y15857143D02*
X1013390Y15809524D01*
X1013390Y15809524D02*
X1061009Y15714286D01*
X1061009Y15714286D02*
X1061009Y15380953D01*
X584819Y16238096D02*
X584819Y16809524D01*
X1584819Y16523810D02*
X584819Y16523810D01*
X1584819Y17666667D02*
X1584819Y17095239D01*
X1584819Y17380953D02*
X584819Y17380953D01*
X584819Y17380953D02*
X727676Y17285715D01*
X727676Y17285715D02*
X822914Y17190477D01*
X822914Y17190477D02*
X870533Y17095239D01*
X35253333Y40175181D02*
X34920000Y40651372D01*
X34681905Y40175181D02*
X34681905Y41175181D01*
X34681905Y41175181D02*
X35062857Y41175181D01*
X35062857Y41175181D02*
X35158095Y41127562D01*
X35158095Y41127562D02*
X35205714Y41079943D01*
X35205714Y41079943D02*
X35253333Y40984705D01*
X35253333Y40984705D02*
X35253333Y40841848D01*
X35253333Y40841848D02*
X35205714Y40746610D01*
X35205714Y40746610D02*
X35158095Y40698991D01*
X35158095Y40698991D02*
X35062857Y40651372D01*
X35062857Y40651372D02*
X34681905Y40651372D01*
X36205714Y40175181D02*
X35634286Y40175181D01*
X35920000Y40175181D02*
X35920000Y41175181D01*
X35920000Y41175181D02*
X35824762Y41032324D01*
X35824762Y41032324D02*
X35729524Y40937086D01*
X35729524Y40937086D02*
X35634286Y40889467D01*
X40313049Y29328943D02*
X40217638Y29376648D01*
X40217638Y29376648D02*
X40122228Y29472058D01*
X40122228Y29472058D02*
X39979112Y29615174D01*
X39979112Y29615174D02*
X39883701Y29662880D01*
X39883701Y29662880D02*
X39788291Y29662880D01*
X39835996Y29424353D02*
X39740586Y29472058D01*
X39740586Y29472058D02*
X39645175Y29567469D01*
X39645175Y29567469D02*
X39597470Y29758290D01*
X39597470Y29758290D02*
X39597470Y30092227D01*
X39597470Y30092227D02*
X39645175Y30283048D01*
X39645175Y30283048D02*
X39740586Y30378459D01*
X39740586Y30378459D02*
X39835996Y30426164D01*
X39835996Y30426164D02*
X40026817Y30426164D01*
X40026817Y30426164D02*
X40122228Y30378459D01*
X40122228Y30378459D02*
X40217638Y30283048D01*
X40217638Y30283048D02*
X40265344Y30092227D01*
X40265344Y30092227D02*
X40265344Y29758290D01*
X40265344Y29758290D02*
X40217638Y29567469D01*
X40217638Y29567469D02*
X40122228Y29472058D01*
X40122228Y29472058D02*
X40026817Y29424353D01*
X40026817Y29424353D02*
X39835996Y29424353D01*
X41219449Y29424353D02*
X40646986Y29424353D01*
X40933217Y29424353D02*
X40933217Y30426164D01*
X40933217Y30426164D02*
X40837807Y30283048D01*
X40837807Y30283048D02*
X40742396Y30187638D01*
X40742396Y30187638D02*
X40646986Y30139932D01*
D13*
%TO.C,J1*%
X26610000Y3870000D02*
X27940000Y3870000D01*
X26610000Y2540000D02*
X26610000Y3870000D01*
X29210000Y3870000D02*
X47050000Y3870000D01*
X29210000Y1210000D02*
X29210000Y3870000D01*
X29210000Y1210000D02*
X47050000Y1210000D01*
X47050000Y1210000D02*
X47050000Y3870000D01*
%TO.C,J3*%
X49470000Y3870000D02*
X50800000Y3870000D01*
X49470000Y2540000D02*
X49470000Y3870000D01*
X52070000Y3870000D02*
X64830000Y3870000D01*
X52070000Y1210000D02*
X52070000Y3870000D01*
X52070000Y1210000D02*
X64830000Y1210000D01*
X64830000Y1210000D02*
X64830000Y3870000D01*
%TO.C,J2*%
X17466000Y52130000D02*
X18796000Y52130000D01*
X17466000Y50800000D02*
X17466000Y52130000D01*
X20066000Y52130000D02*
X42986000Y52130000D01*
X20066000Y49470000D02*
X20066000Y52130000D01*
X20066000Y49470000D02*
X42986000Y49470000D01*
X42986000Y49470000D02*
X42986000Y52130000D01*
%TO.C,J4*%
X44390000Y52130000D02*
X45720000Y52130000D01*
X44390000Y50800000D02*
X44390000Y52130000D01*
X46990000Y52130000D02*
X64830000Y52130000D01*
X46990000Y49470000D02*
X46990000Y52130000D01*
X46990000Y49470000D02*
X64830000Y49470000D01*
X64830000Y49470000D02*
X64830000Y52130000D01*
%TO.C,D1*%
X14780000Y22470000D02*
X20220000Y22470000D01*
X14780000Y22140000D02*
X14780000Y22470000D01*
X14780000Y19860000D02*
X14780000Y19530000D01*
X14780000Y19530000D02*
X20220000Y19530000D01*
X15560000Y22470000D02*
X15560000Y19530000D01*
X15680000Y22470000D02*
X15680000Y19530000D01*
X15800000Y22470000D02*
X15800000Y19530000D01*
X20220000Y22470000D02*
X20220000Y22140000D01*
X20220000Y19530000D02*
X20220000Y19860000D01*
%TO.C,M1*%
X3630000Y26670000D02*
X3630000Y28000000D01*
X4960000Y26670000D02*
X3630000Y26670000D01*
X6230000Y29330000D02*
X8830000Y29330000D01*
X6230000Y26670000D02*
X6230000Y29330000D01*
X6230000Y26670000D02*
X8830000Y26670000D01*
X8830000Y26670000D02*
X8830000Y29330000D01*
%TO.C,BT1*%
X2130000Y15170000D02*
X2130000Y16500000D01*
X3460000Y15170000D02*
X2130000Y15170000D01*
X4730000Y17830000D02*
X7330000Y17830000D01*
X4730000Y15170000D02*
X4730000Y17830000D01*
X4730000Y15170000D02*
X7330000Y15170000D01*
X7330000Y15170000D02*
X7330000Y17830000D01*
%TO.C,R1*%
X31380000Y43000000D02*
X32150000Y43000000D01*
X32150000Y44370000D02*
X32150000Y41630000D01*
X32150000Y41630000D02*
X38690000Y41630000D01*
X38690000Y44370000D02*
X32150000Y44370000D01*
X38690000Y41630000D02*
X38690000Y44370000D01*
X39460000Y43000000D02*
X38690000Y43000000D01*
D14*
%TO.C,Q1*%
X33420000Y25603000D02*
X33547000Y28524000D01*
X33801000Y28778000D02*
X33547000Y28524000D01*
X33801000Y28778000D02*
X43199000Y28778000D01*
X43453000Y28524000D02*
X43199000Y28778000D01*
X43453000Y28524000D02*
X43580000Y25603000D01*
D15*
X43122800Y28168400D02*
G75*
G02*
X42868800Y28168400I-127000J0D01*
G01*
X42868800Y28168400D02*
G75*
G02*
X43122800Y28168400I127000J0D01*
G01*
D16*
X35069530Y25222000D02*
X33166000Y25222000D01*
X33166000Y25730540D01*
X35069530Y25730540D01*
X35069530Y25222000D01*
G36*
X35069530Y25222000D02*
G01*
X33166000Y25222000D01*
X33166000Y25730540D01*
X35069530Y25730540D01*
X35069530Y25222000D01*
G37*
X37609245Y25222000D02*
X36849000Y25222000D01*
X36849000Y25732510D01*
X37609245Y25732510D01*
X37609245Y25222000D01*
G36*
X37609245Y25222000D02*
G01*
X36849000Y25222000D01*
X36849000Y25732510D01*
X37609245Y25732510D01*
X37609245Y25222000D01*
G37*
X40153380Y25222000D02*
X39389000Y25222000D01*
X39389000Y25731830D01*
X40153380Y25731830D01*
X40153380Y25222000D01*
G36*
X40153380Y25222000D02*
G01*
X39389000Y25222000D01*
X39389000Y25731830D01*
X40153380Y25731830D01*
X40153380Y25222000D01*
G37*
X43835570Y24460000D02*
X33166000Y24460000D01*
X33166000Y25222224D01*
X43835570Y25222224D01*
X43835570Y24460000D01*
G36*
X43835570Y24460000D02*
G01*
X33166000Y24460000D01*
X33166000Y25222224D01*
X43835570Y25222224D01*
X43835570Y24460000D01*
G37*
X43840670Y25222000D02*
X41929000Y25222000D01*
X41929000Y25731590D01*
X43840670Y25731590D01*
X43840670Y25222000D01*
G36*
X43840670Y25222000D02*
G01*
X41929000Y25222000D01*
X41929000Y25731590D01*
X43840670Y25731590D01*
X43840670Y25222000D01*
G37*
%TD*%
D17*
X27940000Y2540000D03*
X30480000Y2540000D03*
X33020000Y2540000D03*
X35560000Y2540000D03*
X38100000Y2540000D03*
X40640000Y2540000D03*
X43180000Y2540000D03*
X45720000Y2540000D03*
X50800000Y2540000D03*
X53340000Y2540000D03*
X55880000Y2540000D03*
X58420000Y2540000D03*
X60960000Y2540000D03*
X63500000Y2540000D03*
X18796000Y50800000D03*
X21336000Y50800000D03*
X23876000Y50800000D03*
X26416000Y50800000D03*
X28956000Y50800000D03*
X31496000Y50800000D03*
X34036000Y50800000D03*
X36576000Y50800000D03*
X39116000Y50800000D03*
X41656000Y50800000D03*
X45720000Y50800000D03*
X48260000Y50800000D03*
X50800000Y50800000D03*
X53340000Y50800000D03*
X55880000Y50800000D03*
X58420000Y50800000D03*
X60960000Y50800000D03*
X63500000Y50800000D03*
X50000000Y43500000D03*
X56500000Y43500000D03*
X56500000Y39000000D03*
X50000000Y39000000D03*
X13690000Y21000000D03*
X21310000Y21000000D03*
X4960000Y28000000D03*
X7500000Y28000000D03*
X15240000Y50800000D03*
X3460000Y16500000D03*
X6000000Y16500000D03*
X40500000Y43000000D03*
X30340000Y43000000D03*
X13970000Y2540000D03*
X66040000Y35560000D03*
X38500000Y27000000D03*
X41040000Y27000000D03*
X35960000Y27000000D03*
X66040000Y7620000D03*
M02*
