M48
METRIC,TZ
T1C0.800
T2C0.900
T3C1.000
T4C1.016
%
G90
G05
T1
X30340Y43000
X40500Y43000
T2
X13690Y21000
X21310Y21000
T3
X3460Y16500
X4960Y28000
X6000Y16500
X7500Y28000
X18796Y50800
X21336Y50800
X23876Y50800
X26416Y50800
X27940Y2540
X28956Y50800
X30480Y2540
X31496Y50800
X33020Y2540
X34036Y50800
X35560Y2540
X36576Y50800
X38100Y2540
X39116Y50800
X40640Y2540
X41656Y50800
X43180Y2540
X45720Y50800
X45720Y2540
X48260Y50800
X50000Y43500
X50000Y39000
X50800Y50800
X50800Y2540
X53340Y50800
X53340Y2540
X55880Y50800
X55880Y2540
X56500Y43500
X56500Y39000
X58420Y50800
X58420Y2540
X60960Y50800
X60960Y2540
X63500Y50800
X63500Y2540
T4
X35960Y27000
X38500Y27000
X41040Y27000
M30
