%TF.GenerationSoftware,KiCad,Pcbnew,8.0.0*%
%TF.CreationDate,2024-04-21T19:32:52-04:00*%
%TF.ProjectId,9_motorized_pinwheel,395f6d6f-746f-4726-997a-65645f70696e,rev?*%
%TF.SameCoordinates,Original*%
%TF.FileFunction,Legend,Bot*%
%TF.FilePolarity,Positive*%
%FSLAX46Y46*%
G04 Gerber Fmt 4.6, Leading zero omitted, Abs format (unit mm)*
G04 Created by KiCad (PCBNEW 8.0.0) date 2024-04-21 19:32:52*
%MOMM*%
%LPD*%
G01*
G04 APERTURE LIST*
%ADD10C,0.350000*%
G04 APERTURE END LIST*
D10*
X27940000Y2540000D03*
X30480000Y2540000D03*
X33020000Y2540000D03*
X35560000Y2540000D03*
X38100000Y2540000D03*
X40640000Y2540000D03*
X43180000Y2540000D03*
X45720000Y2540000D03*
X50800000Y2540000D03*
X53340000Y2540000D03*
X55880000Y2540000D03*
X58420000Y2540000D03*
X60960000Y2540000D03*
X63500000Y2540000D03*
X18796000Y50800000D03*
X21336000Y50800000D03*
X23876000Y50800000D03*
X26416000Y50800000D03*
X28956000Y50800000D03*
X31496000Y50800000D03*
X34036000Y50800000D03*
X36576000Y50800000D03*
X39116000Y50800000D03*
X41656000Y50800000D03*
X45720000Y50800000D03*
X48260000Y50800000D03*
X50800000Y50800000D03*
X53340000Y50800000D03*
X55880000Y50800000D03*
X58420000Y50800000D03*
X60960000Y50800000D03*
X63500000Y50800000D03*
X50000000Y43500000D03*
X56500000Y43500000D03*
X56500000Y39000000D03*
X50000000Y39000000D03*
X13690000Y21000000D03*
X21310000Y21000000D03*
X4960000Y28000000D03*
X7500000Y28000000D03*
X15240000Y50800000D03*
X3460000Y16500000D03*
X6000000Y16500000D03*
X40500000Y43000000D03*
X30340000Y43000000D03*
X13970000Y2540000D03*
X66040000Y35560000D03*
X38500000Y27000000D03*
X41040000Y27000000D03*
X35960000Y27000000D03*
X66040000Y7620000D03*
M02*
