%TF.GenerationSoftware,KiCad,Pcbnew,8.0.0*%
%TF.CreationDate,2024-04-21T19:32:52-04:00*%
%TF.ProjectId,9_motorized_pinwheel,395f6d6f-746f-4726-997a-65645f70696e,rev?*%
%TF.SameCoordinates,Original*%
%TF.FileFunction,Copper,L2,Bot*%
%TF.FilePolarity,Positive*%
%FSLAX46Y46*%
G04 Gerber Fmt 4.6, Leading zero omitted, Abs format (unit mm)*
G04 Created by KiCad (PCBNEW 8.0.0) date 2024-04-21 19:32:52*
%MOMM*%
%LPD*%
G01*
G04 APERTURE LIST*
%TA.AperFunction,ComponentPad*%
%ADD10R,1.700000X1.700000*%
%TD*%
%TA.AperFunction,ComponentPad*%
%ADD11O,1.700000X1.700000*%
%TD*%
%TA.AperFunction,ComponentPad*%
%ADD12C,1.524000*%
%TD*%
%TA.AperFunction,ComponentPad*%
%ADD13R,1.800000X1.800000*%
%TD*%
%TA.AperFunction,ComponentPad*%
%ADD14O,1.800000X1.800000*%
%TD*%
%TA.AperFunction,ComponentPad*%
%ADD15C,1.600000*%
%TD*%
%TA.AperFunction,ComponentPad*%
%ADD16O,1.600000X1.600000*%
%TD*%
%TA.AperFunction,ComponentPad*%
%ADD17O,1.524000X3.048000*%
%TD*%
%ADD18C,0.350000*%
G04 APERTURE END LIST*
D10*
%TO.P,J1,1,Pin_1*%
%TO.N,unconnected-(J1-Pin_1-Pad1)*%
X27940000Y2540000D03*
D11*
%TO.P,J1,2,Pin_2*%
%TO.N,/IOREF*%
X30480000Y2540000D03*
%TO.P,J1,3,Pin_3*%
%TO.N,/~{RESET}*%
X33020000Y2540000D03*
%TO.P,J1,4,Pin_4*%
%TO.N,+3V3*%
X35560000Y2540000D03*
%TO.P,J1,5,Pin_5*%
%TO.N,+5V*%
X38100000Y2540000D03*
%TO.P,J1,6,Pin_6*%
%TO.N,GND*%
X40640000Y2540000D03*
%TO.P,J1,7,Pin_7*%
X43180000Y2540000D03*
%TO.P,J1,8,Pin_8*%
%TO.N,VCC*%
X45720000Y2540000D03*
%TD*%
D10*
%TO.P,J3,1,Pin_1*%
%TO.N,/A0*%
X50800000Y2540000D03*
D11*
%TO.P,J3,2,Pin_2*%
%TO.N,/A1*%
X53340000Y2540000D03*
%TO.P,J3,3,Pin_3*%
%TO.N,/A2*%
X55880000Y2540000D03*
%TO.P,J3,4,Pin_4*%
%TO.N,/A3*%
X58420000Y2540000D03*
%TO.P,J3,5,Pin_5*%
%TO.N,/SDA{slash}A4*%
X60960000Y2540000D03*
%TO.P,J3,6,Pin_6*%
%TO.N,/SCL{slash}A5*%
X63500000Y2540000D03*
%TD*%
D10*
%TO.P,J2,1,Pin_1*%
%TO.N,/SCL{slash}A5*%
X18796000Y50800000D03*
D11*
%TO.P,J2,2,Pin_2*%
%TO.N,/SDA{slash}A4*%
X21336000Y50800000D03*
%TO.P,J2,3,Pin_3*%
%TO.N,/AREF*%
X23876000Y50800000D03*
%TO.P,J2,4,Pin_4*%
%TO.N,GND*%
X26416000Y50800000D03*
%TO.P,J2,5,Pin_5*%
%TO.N,/13*%
X28956000Y50800000D03*
%TO.P,J2,6,Pin_6*%
%TO.N,/12*%
X31496000Y50800000D03*
%TO.P,J2,7,Pin_7*%
%TO.N,/\u002A11*%
X34036000Y50800000D03*
%TO.P,J2,8,Pin_8*%
%TO.N,/\u002A10*%
X36576000Y50800000D03*
%TO.P,J2,9,Pin_9*%
%TO.N,/\u002A9*%
X39116000Y50800000D03*
%TO.P,J2,10,Pin_10*%
%TO.N,/8*%
X41656000Y50800000D03*
%TD*%
D10*
%TO.P,J4,1,Pin_1*%
%TO.N,/7*%
X45720000Y50800000D03*
D11*
%TO.P,J4,2,Pin_2*%
%TO.N,/\u002A6*%
X48260000Y50800000D03*
%TO.P,J4,3,Pin_3*%
%TO.N,/\u002A5*%
X50800000Y50800000D03*
%TO.P,J4,4,Pin_4*%
%TO.N,/4*%
X53340000Y50800000D03*
%TO.P,J4,5,Pin_5*%
%TO.N,/\u002A3*%
X55880000Y50800000D03*
%TO.P,J4,6,Pin_6*%
%TO.N,/2*%
X58420000Y50800000D03*
%TO.P,J4,7,Pin_7*%
%TO.N,/TX{slash}1*%
X60960000Y50800000D03*
%TO.P,J4,8,Pin_8*%
%TO.N,/RX{slash}0*%
X63500000Y50800000D03*
%TD*%
D12*
%TO.P,SW1,1,1*%
%TO.N,/2*%
X50000000Y43500000D03*
%TO.P,SW1,2,2*%
%TO.N,+5V*%
X56500000Y43500000D03*
%TO.P,SW1,3*%
%TO.N,N/C*%
X56500000Y39000000D03*
%TO.P,SW1,4*%
X50000000Y39000000D03*
%TD*%
D13*
%TO.P,D1,1,K*%
%TO.N,Net-(BT1-+)*%
X13690000Y21000000D03*
D14*
%TO.P,D1,2,A*%
%TO.N,Net-(D1-A)*%
X21310000Y21000000D03*
%TD*%
D10*
%TO.P,M1,1,+*%
%TO.N,Net-(BT1-+)*%
X4960000Y28000000D03*
D11*
%TO.P,M1,2,-*%
%TO.N,Net-(D1-A)*%
X7500000Y28000000D03*
%TD*%
D10*
%TO.P,BT1,1,+*%
%TO.N,Net-(BT1-+)*%
X3460000Y16500000D03*
D11*
%TO.P,BT1,2,-*%
%TO.N,GND*%
X6000000Y16500000D03*
%TD*%
D15*
%TO.P,R1,1*%
%TO.N,/2*%
X40500000Y43000000D03*
D16*
%TO.P,R1,2*%
%TO.N,GND*%
X30340000Y43000000D03*
%TD*%
D17*
%TO.P,Q1,D*%
%TO.N,Net-(D1-A)*%
X38500000Y27000000D03*
%TO.P,Q1,G*%
%TO.N,/\u002A9*%
X41040000Y27000000D03*
%TO.P,Q1,S*%
%TO.N,GND*%
X35960000Y27000000D03*
%TD*%
%TA.AperFunction,Conductor*%
%TO.N,GND*%
G36*
X42714075Y2732993D02*
G01*
X42680000Y2605826D01*
X42680000Y2474174D01*
X42714075Y2347007D01*
X42746988Y2290000D01*
X41073012Y2290000D01*
X41105925Y2347007D01*
X41140000Y2474174D01*
X41140000Y2605826D01*
X41105925Y2732993D01*
X41073012Y2790000D01*
X42746988Y2790000D01*
X42714075Y2732993D01*
G37*
%TD.AperFunction*%
%TA.AperFunction,Conductor*%
G36*
X63484404Y53244815D02*
G01*
X63505046Y53228181D01*
X65928181Y50805046D01*
X65961666Y50743723D01*
X65964500Y50717365D01*
X65964500Y40655018D01*
X65964500Y40624982D01*
X65975994Y40597233D01*
X65975995Y40597232D01*
X68468181Y38105046D01*
X68501666Y38043723D01*
X68504500Y38017365D01*
X68504500Y3892636D01*
X68484815Y3825597D01*
X68468181Y3804955D01*
X65997233Y1334006D01*
X65975995Y1312769D01*
X65964500Y1285018D01*
X65964500Y768093D01*
X65963903Y755938D01*
X65952505Y640222D01*
X65947763Y616382D01*
X65917832Y517710D01*
X65915789Y510976D01*
X65906486Y488518D01*
X65854561Y391373D01*
X65841056Y371161D01*
X65771176Y286012D01*
X65753988Y268824D01*
X65668839Y198944D01*
X65648627Y185439D01*
X65551482Y133514D01*
X65529028Y124213D01*
X65487028Y111472D01*
X65423618Y92237D01*
X65399778Y87495D01*
X65291162Y76797D01*
X65284060Y76097D01*
X65271907Y75500D01*
X768093Y75500D01*
X755939Y76097D01*
X747995Y76880D01*
X640221Y87495D01*
X616381Y92237D01*
X599445Y97375D01*
X510968Y124214D01*
X488517Y133514D01*
X391372Y185439D01*
X371160Y198944D01*
X286011Y268824D01*
X268823Y286012D01*
X198943Y371161D01*
X185438Y391373D01*
X133510Y488524D01*
X124215Y510963D01*
X92234Y616388D01*
X87494Y640223D01*
X76097Y755939D01*
X75500Y768093D01*
X75500Y1641346D01*
X26581500Y1641346D01*
X26588011Y1580798D01*
X26588011Y1580796D01*
X26639111Y1443796D01*
X26726739Y1326739D01*
X26843796Y1239111D01*
X26980799Y1188011D01*
X27008050Y1185082D01*
X27041345Y1181501D01*
X27041362Y1181500D01*
X28838638Y1181500D01*
X28838654Y1181501D01*
X28865692Y1184409D01*
X28899201Y1188011D01*
X29036204Y1239111D01*
X29153261Y1326739D01*
X29240889Y1443796D01*
X29286138Y1565113D01*
X29328009Y1621044D01*
X29393474Y1645461D01*
X29461746Y1630609D01*
X29493545Y1605764D01*
X29556760Y1537094D01*
X29734424Y1398811D01*
X29734425Y1398811D01*
X29734427Y1398809D01*
X29861135Y1330239D01*
X29932426Y1291658D01*
X30145365Y1218556D01*
X30367431Y1181500D01*
X30592569Y1181500D01*
X30814635Y1218556D01*
X31027574Y1291658D01*
X31225576Y1398811D01*
X31403240Y1537094D01*
X31524594Y1668918D01*
X31555715Y1702724D01*
X31555715Y1702725D01*
X31555722Y1702732D01*
X31646193Y1841210D01*
X31699338Y1886563D01*
X31768569Y1895987D01*
X31831905Y1866485D01*
X31853804Y1841213D01*
X31944278Y1702732D01*
X31944283Y1702727D01*
X31944284Y1702724D01*
X32070968Y1565111D01*
X32096760Y1537094D01*
X32274424Y1398811D01*
X32274425Y1398811D01*
X32274427Y1398809D01*
X32401135Y1330239D01*
X32472426Y1291658D01*
X32685365Y1218556D01*
X32907431Y1181500D01*
X33132569Y1181500D01*
X33354635Y1218556D01*
X33567574Y1291658D01*
X33765576Y1398811D01*
X33943240Y1537094D01*
X34064594Y1668918D01*
X34095715Y1702724D01*
X34095715Y1702725D01*
X34095722Y1702732D01*
X34186193Y1841210D01*
X34239338Y1886563D01*
X34308569Y1895987D01*
X34371905Y1866485D01*
X34393804Y1841213D01*
X34484278Y1702732D01*
X34484283Y1702727D01*
X34484284Y1702724D01*
X34610968Y1565111D01*
X34636760Y1537094D01*
X34814424Y1398811D01*
X34814425Y1398811D01*
X34814427Y1398809D01*
X34941135Y1330239D01*
X35012426Y1291658D01*
X35225365Y1218556D01*
X35447431Y1181500D01*
X35672569Y1181500D01*
X35894635Y1218556D01*
X36107574Y1291658D01*
X36305576Y1398811D01*
X36483240Y1537094D01*
X36604594Y1668918D01*
X36635715Y1702724D01*
X36635715Y1702725D01*
X36635722Y1702732D01*
X36726193Y1841210D01*
X36779338Y1886563D01*
X36848569Y1895987D01*
X36911905Y1866485D01*
X36933804Y1841213D01*
X37024278Y1702732D01*
X37024283Y1702727D01*
X37024284Y1702724D01*
X37150968Y1565111D01*
X37176760Y1537094D01*
X37354424Y1398811D01*
X37354425Y1398811D01*
X37354427Y1398809D01*
X37481135Y1330239D01*
X37552426Y1291658D01*
X37765365Y1218556D01*
X37987431Y1181500D01*
X38212569Y1181500D01*
X38434635Y1218556D01*
X38647574Y1291658D01*
X38845576Y1398811D01*
X39023240Y1537094D01*
X39144594Y1668918D01*
X39175715Y1702724D01*
X39175715Y1702725D01*
X39175722Y1702732D01*
X39269749Y1846653D01*
X39322894Y1892006D01*
X39392125Y1901430D01*
X39455461Y1871928D01*
X39475130Y1849952D01*
X39601890Y1668922D01*
X39768917Y1501895D01*
X39962421Y1366400D01*
X40176507Y1266571D01*
X40176516Y1266567D01*
X40390000Y1209366D01*
X40390000Y2106988D01*
X40447007Y2074075D01*
X40574174Y2040000D01*
X40705826Y2040000D01*
X40832993Y2074075D01*
X40890000Y2106988D01*
X40890000Y1209367D01*
X41103483Y1266567D01*
X41103492Y1266571D01*
X41317578Y1366400D01*
X41511082Y1501895D01*
X41678105Y1668918D01*
X41808425Y1855032D01*
X41863002Y1898656D01*
X41932501Y1905849D01*
X41994855Y1874327D01*
X42011575Y1855032D01*
X42141894Y1668918D01*
X42308917Y1501895D01*
X42502421Y1366400D01*
X42716507Y1266571D01*
X42716516Y1266567D01*
X42930000Y1209366D01*
X42930000Y2106988D01*
X42987007Y2074075D01*
X43114174Y2040000D01*
X43245826Y2040000D01*
X43372993Y2074075D01*
X43430000Y2106988D01*
X43430000Y1209367D01*
X43643483Y1266567D01*
X43643492Y1266571D01*
X43857578Y1366400D01*
X44051082Y1501895D01*
X44218105Y1668918D01*
X44344868Y1849952D01*
X44399445Y1893577D01*
X44468944Y1900769D01*
X44531298Y1869247D01*
X44550251Y1846650D01*
X44644276Y1702735D01*
X44644284Y1702724D01*
X44770968Y1565111D01*
X44796760Y1537094D01*
X44974424Y1398811D01*
X44974425Y1398811D01*
X44974427Y1398809D01*
X45101135Y1330239D01*
X45172426Y1291658D01*
X45385365Y1218556D01*
X45607431Y1181500D01*
X45832569Y1181500D01*
X46054635Y1218556D01*
X46267574Y1291658D01*
X46465576Y1398811D01*
X46643240Y1537094D01*
X46739212Y1641346D01*
X49441500Y1641346D01*
X49448011Y1580798D01*
X49448011Y1580796D01*
X49499111Y1443796D01*
X49586739Y1326739D01*
X49703796Y1239111D01*
X49840799Y1188011D01*
X49868050Y1185082D01*
X49901345Y1181501D01*
X49901362Y1181500D01*
X51698638Y1181500D01*
X51698654Y1181501D01*
X51725692Y1184409D01*
X51759201Y1188011D01*
X51896204Y1239111D01*
X52013261Y1326739D01*
X52100889Y1443796D01*
X52146138Y1565113D01*
X52188009Y1621044D01*
X52253474Y1645461D01*
X52321746Y1630609D01*
X52353545Y1605764D01*
X52416760Y1537094D01*
X52594424Y1398811D01*
X52594425Y1398811D01*
X52594427Y1398809D01*
X52721135Y1330239D01*
X52792426Y1291658D01*
X53005365Y1218556D01*
X53227431Y1181500D01*
X53452569Y1181500D01*
X53674635Y1218556D01*
X53887574Y1291658D01*
X54085576Y1398811D01*
X54263240Y1537094D01*
X54384594Y1668918D01*
X54415715Y1702724D01*
X54415715Y1702725D01*
X54415722Y1702732D01*
X54506193Y1841210D01*
X54559338Y1886563D01*
X54628569Y1895987D01*
X54691905Y1866485D01*
X54713804Y1841213D01*
X54804278Y1702732D01*
X54804283Y1702727D01*
X54804284Y1702724D01*
X54930968Y1565111D01*
X54956760Y1537094D01*
X55134424Y1398811D01*
X55134425Y1398811D01*
X55134427Y1398809D01*
X55261135Y1330239D01*
X55332426Y1291658D01*
X55545365Y1218556D01*
X55767431Y1181500D01*
X55992569Y1181500D01*
X56214635Y1218556D01*
X56427574Y1291658D01*
X56625576Y1398811D01*
X56803240Y1537094D01*
X56924594Y1668918D01*
X56955715Y1702724D01*
X56955715Y1702725D01*
X56955722Y1702732D01*
X57046193Y1841210D01*
X57099338Y1886563D01*
X57168569Y1895987D01*
X57231905Y1866485D01*
X57253804Y1841213D01*
X57344278Y1702732D01*
X57344283Y1702727D01*
X57344284Y1702724D01*
X57470968Y1565111D01*
X57496760Y1537094D01*
X57674424Y1398811D01*
X57674425Y1398811D01*
X57674427Y1398809D01*
X57801135Y1330239D01*
X57872426Y1291658D01*
X58085365Y1218556D01*
X58307431Y1181500D01*
X58532569Y1181500D01*
X58754635Y1218556D01*
X58967574Y1291658D01*
X59165576Y1398811D01*
X59343240Y1537094D01*
X59464594Y1668918D01*
X59495715Y1702724D01*
X59495715Y1702725D01*
X59495722Y1702732D01*
X59586193Y1841210D01*
X59639338Y1886563D01*
X59708569Y1895987D01*
X59771905Y1866485D01*
X59793804Y1841213D01*
X59884278Y1702732D01*
X59884283Y1702727D01*
X59884284Y1702724D01*
X60010968Y1565111D01*
X60036760Y1537094D01*
X60214424Y1398811D01*
X60214425Y1398811D01*
X60214427Y1398809D01*
X60341135Y1330239D01*
X60412426Y1291658D01*
X60625365Y1218556D01*
X60847431Y1181500D01*
X61072569Y1181500D01*
X61294635Y1218556D01*
X61507574Y1291658D01*
X61705576Y1398811D01*
X61883240Y1537094D01*
X62004594Y1668918D01*
X62035715Y1702724D01*
X62035715Y1702725D01*
X62035722Y1702732D01*
X62126193Y1841210D01*
X62179338Y1886563D01*
X62248569Y1895987D01*
X62311905Y1866485D01*
X62333804Y1841213D01*
X62424278Y1702732D01*
X62424283Y1702727D01*
X62424284Y1702724D01*
X62550968Y1565111D01*
X62576760Y1537094D01*
X62754424Y1398811D01*
X62754425Y1398811D01*
X62754427Y1398809D01*
X62881135Y1330239D01*
X62952426Y1291658D01*
X63165365Y1218556D01*
X63387431Y1181500D01*
X63612569Y1181500D01*
X63834635Y1218556D01*
X64047574Y1291658D01*
X64245576Y1398811D01*
X64423240Y1537094D01*
X64544594Y1668918D01*
X64575715Y1702724D01*
X64575717Y1702727D01*
X64575722Y1702732D01*
X64698860Y1891209D01*
X64789296Y2097384D01*
X64844564Y2315632D01*
X64847164Y2347007D01*
X64863156Y2539995D01*
X64863156Y2540006D01*
X64844565Y2764360D01*
X64844563Y2764372D01*
X64789296Y2982615D01*
X64779071Y3005925D01*
X64698860Y3188791D01*
X64682706Y3213516D01*
X64575723Y3377266D01*
X64575715Y3377277D01*
X64423243Y3542903D01*
X64423238Y3542908D01*
X64245577Y3681188D01*
X64245572Y3681192D01*
X64047580Y3788339D01*
X64047577Y3788341D01*
X64047574Y3788342D01*
X64047571Y3788343D01*
X64047569Y3788344D01*
X63834637Y3861444D01*
X63612569Y3898500D01*
X63387431Y3898500D01*
X63165362Y3861444D01*
X62952430Y3788344D01*
X62952419Y3788339D01*
X62754427Y3681192D01*
X62754422Y3681188D01*
X62576761Y3542908D01*
X62576756Y3542903D01*
X62424284Y3377277D01*
X62424276Y3377266D01*
X62333808Y3238794D01*
X62280662Y3193438D01*
X62211431Y3184014D01*
X62148095Y3213516D01*
X62126192Y3238794D01*
X62035723Y3377266D01*
X62035715Y3377277D01*
X61883243Y3542903D01*
X61883238Y3542908D01*
X61705577Y3681188D01*
X61705572Y3681192D01*
X61507580Y3788339D01*
X61507577Y3788341D01*
X61507574Y3788342D01*
X61507571Y3788343D01*
X61507569Y3788344D01*
X61294637Y3861444D01*
X61072569Y3898500D01*
X60847431Y3898500D01*
X60625362Y3861444D01*
X60412430Y3788344D01*
X60412419Y3788339D01*
X60214427Y3681192D01*
X60214422Y3681188D01*
X60036761Y3542908D01*
X60036756Y3542903D01*
X59884284Y3377277D01*
X59884276Y3377266D01*
X59793808Y3238794D01*
X59740662Y3193438D01*
X59671431Y3184014D01*
X59608095Y3213516D01*
X59586192Y3238794D01*
X59495723Y3377266D01*
X59495715Y3377277D01*
X59343243Y3542903D01*
X59343238Y3542908D01*
X59165577Y3681188D01*
X59165572Y3681192D01*
X58967580Y3788339D01*
X58967577Y3788341D01*
X58967574Y3788342D01*
X58967571Y3788343D01*
X58967569Y3788344D01*
X58754637Y3861444D01*
X58532569Y3898500D01*
X58307431Y3898500D01*
X58085362Y3861444D01*
X57872430Y3788344D01*
X57872419Y3788339D01*
X57674427Y3681192D01*
X57674422Y3681188D01*
X57496761Y3542908D01*
X57496756Y3542903D01*
X57344284Y3377277D01*
X57344276Y3377266D01*
X57253808Y3238794D01*
X57200662Y3193438D01*
X57131431Y3184014D01*
X57068095Y3213516D01*
X57046192Y3238794D01*
X56955723Y3377266D01*
X56955715Y3377277D01*
X56803243Y3542903D01*
X56803238Y3542908D01*
X56625577Y3681188D01*
X56625572Y3681192D01*
X56427580Y3788339D01*
X56427577Y3788341D01*
X56427574Y3788342D01*
X56427571Y3788343D01*
X56427569Y3788344D01*
X56214637Y3861444D01*
X55992569Y3898500D01*
X55767431Y3898500D01*
X55545362Y3861444D01*
X55332430Y3788344D01*
X55332419Y3788339D01*
X55134427Y3681192D01*
X55134422Y3681188D01*
X54956761Y3542908D01*
X54956756Y3542903D01*
X54804284Y3377277D01*
X54804276Y3377266D01*
X54713808Y3238794D01*
X54660662Y3193438D01*
X54591431Y3184014D01*
X54528095Y3213516D01*
X54506192Y3238794D01*
X54415723Y3377266D01*
X54415715Y3377277D01*
X54263243Y3542903D01*
X54263238Y3542908D01*
X54085577Y3681188D01*
X54085572Y3681192D01*
X53887580Y3788339D01*
X53887577Y3788341D01*
X53887574Y3788342D01*
X53887571Y3788343D01*
X53887569Y3788344D01*
X53674637Y3861444D01*
X53452569Y3898500D01*
X53227431Y3898500D01*
X53005362Y3861444D01*
X52792430Y3788344D01*
X52792419Y3788339D01*
X52594427Y3681192D01*
X52594422Y3681188D01*
X52416761Y3542908D01*
X52353548Y3474240D01*
X52293661Y3438250D01*
X52223823Y3440351D01*
X52166207Y3479876D01*
X52146138Y3514890D01*
X52100889Y3636204D01*
X52067214Y3681188D01*
X52013261Y3753261D01*
X51896204Y3840889D01*
X51895172Y3841274D01*
X51759203Y3891989D01*
X51698654Y3898500D01*
X51698638Y3898500D01*
X49901362Y3898500D01*
X49901345Y3898500D01*
X49840797Y3891989D01*
X49840795Y3891989D01*
X49703795Y3840889D01*
X49586739Y3753261D01*
X49499111Y3636205D01*
X49448011Y3499205D01*
X49448011Y3499203D01*
X49441500Y3438655D01*
X49441500Y1641346D01*
X46739212Y1641346D01*
X46764594Y1668918D01*
X46795715Y1702724D01*
X46795717Y1702727D01*
X46795722Y1702732D01*
X46918860Y1891209D01*
X47009296Y2097384D01*
X47064564Y2315632D01*
X47067164Y2347007D01*
X47083156Y2539995D01*
X47083156Y2540006D01*
X47064565Y2764360D01*
X47064563Y2764372D01*
X47009296Y2982615D01*
X46999071Y3005925D01*
X46918860Y3188791D01*
X46902706Y3213516D01*
X46795723Y3377266D01*
X46795715Y3377277D01*
X46643243Y3542903D01*
X46643238Y3542908D01*
X46465577Y3681188D01*
X46465572Y3681192D01*
X46267580Y3788339D01*
X46267577Y3788341D01*
X46267574Y3788342D01*
X46267571Y3788343D01*
X46267569Y3788344D01*
X46054637Y3861444D01*
X45832569Y3898500D01*
X45607431Y3898500D01*
X45385362Y3861444D01*
X45172430Y3788344D01*
X45172419Y3788339D01*
X44974427Y3681192D01*
X44974422Y3681188D01*
X44796761Y3542908D01*
X44796756Y3542903D01*
X44644284Y3377277D01*
X44644276Y3377266D01*
X44550251Y3233350D01*
X44497105Y3187993D01*
X44427873Y3178570D01*
X44364538Y3208072D01*
X44344868Y3230049D01*
X44218113Y3411074D01*
X44218108Y3411080D01*
X44051082Y3578106D01*
X43857578Y3713601D01*
X43643492Y3813430D01*
X43643486Y3813433D01*
X43430000Y3870636D01*
X43430000Y2973012D01*
X43372993Y3005925D01*
X43245826Y3040000D01*
X43114174Y3040000D01*
X42987007Y3005925D01*
X42930000Y2973012D01*
X42930000Y3870636D01*
X42929999Y3870636D01*
X42716513Y3813433D01*
X42716507Y3813430D01*
X42502422Y3713601D01*
X42502420Y3713600D01*
X42308926Y3578114D01*
X42308920Y3578109D01*
X42141891Y3411080D01*
X42141890Y3411078D01*
X42011575Y3224969D01*
X41956998Y3181345D01*
X41887499Y3174152D01*
X41825145Y3205674D01*
X41808425Y3224969D01*
X41678109Y3411078D01*
X41678108Y3411080D01*
X41511082Y3578106D01*
X41317578Y3713601D01*
X41103492Y3813430D01*
X41103486Y3813433D01*
X40890000Y3870636D01*
X40890000Y2973012D01*
X40832993Y3005925D01*
X40705826Y3040000D01*
X40574174Y3040000D01*
X40447007Y3005925D01*
X40390000Y2973012D01*
X40390000Y3870636D01*
X40389999Y3870636D01*
X40176513Y3813433D01*
X40176507Y3813430D01*
X39962422Y3713601D01*
X39962420Y3713600D01*
X39768926Y3578114D01*
X39768920Y3578109D01*
X39601891Y3411080D01*
X39601890Y3411078D01*
X39475131Y3230048D01*
X39420554Y3186423D01*
X39351055Y3179231D01*
X39288701Y3210753D01*
X39269752Y3233344D01*
X39175722Y3377268D01*
X39175715Y3377275D01*
X39175715Y3377277D01*
X39023243Y3542903D01*
X39023238Y3542908D01*
X38845577Y3681188D01*
X38845572Y3681192D01*
X38647580Y3788339D01*
X38647577Y3788341D01*
X38647574Y3788342D01*
X38647571Y3788343D01*
X38647569Y3788344D01*
X38434637Y3861444D01*
X38212569Y3898500D01*
X37987431Y3898500D01*
X37765362Y3861444D01*
X37552430Y3788344D01*
X37552419Y3788339D01*
X37354427Y3681192D01*
X37354422Y3681188D01*
X37176761Y3542908D01*
X37176756Y3542903D01*
X37024284Y3377277D01*
X37024276Y3377266D01*
X36933808Y3238794D01*
X36880662Y3193438D01*
X36811431Y3184014D01*
X36748095Y3213516D01*
X36726192Y3238794D01*
X36635723Y3377266D01*
X36635715Y3377277D01*
X36483243Y3542903D01*
X36483238Y3542908D01*
X36305577Y3681188D01*
X36305572Y3681192D01*
X36107580Y3788339D01*
X36107577Y3788341D01*
X36107574Y3788342D01*
X36107571Y3788343D01*
X36107569Y3788344D01*
X35894637Y3861444D01*
X35672569Y3898500D01*
X35447431Y3898500D01*
X35225362Y3861444D01*
X35012430Y3788344D01*
X35012419Y3788339D01*
X34814427Y3681192D01*
X34814422Y3681188D01*
X34636761Y3542908D01*
X34636756Y3542903D01*
X34484284Y3377277D01*
X34484276Y3377266D01*
X34393808Y3238794D01*
X34340662Y3193438D01*
X34271431Y3184014D01*
X34208095Y3213516D01*
X34186192Y3238794D01*
X34095723Y3377266D01*
X34095715Y3377277D01*
X33943243Y3542903D01*
X33943238Y3542908D01*
X33765577Y3681188D01*
X33765572Y3681192D01*
X33567580Y3788339D01*
X33567577Y3788341D01*
X33567574Y3788342D01*
X33567571Y3788343D01*
X33567569Y3788344D01*
X33354637Y3861444D01*
X33132569Y3898500D01*
X32907431Y3898500D01*
X32685362Y3861444D01*
X32472430Y3788344D01*
X32472419Y3788339D01*
X32274427Y3681192D01*
X32274422Y3681188D01*
X32096761Y3542908D01*
X32096756Y3542903D01*
X31944284Y3377277D01*
X31944276Y3377266D01*
X31853808Y3238794D01*
X31800662Y3193438D01*
X31731431Y3184014D01*
X31668095Y3213516D01*
X31646192Y3238794D01*
X31555723Y3377266D01*
X31555715Y3377277D01*
X31403243Y3542903D01*
X31403238Y3542908D01*
X31225577Y3681188D01*
X31225572Y3681192D01*
X31027580Y3788339D01*
X31027577Y3788341D01*
X31027574Y3788342D01*
X31027571Y3788343D01*
X31027569Y3788344D01*
X30814637Y3861444D01*
X30592569Y3898500D01*
X30367431Y3898500D01*
X30145362Y3861444D01*
X29932430Y3788344D01*
X29932419Y3788339D01*
X29734427Y3681192D01*
X29734422Y3681188D01*
X29556761Y3542908D01*
X29493548Y3474240D01*
X29433661Y3438250D01*
X29363823Y3440351D01*
X29306207Y3479876D01*
X29286138Y3514890D01*
X29240889Y3636204D01*
X29207214Y3681188D01*
X29153261Y3753261D01*
X29036204Y3840889D01*
X29035172Y3841274D01*
X28899203Y3891989D01*
X28838654Y3898500D01*
X28838638Y3898500D01*
X27041362Y3898500D01*
X27041345Y3898500D01*
X26980797Y3891989D01*
X26980795Y3891989D01*
X26843795Y3840889D01*
X26726739Y3753261D01*
X26639111Y3636205D01*
X26588011Y3499205D01*
X26588011Y3499203D01*
X26581500Y3438655D01*
X26581500Y1641346D01*
X75500Y1641346D01*
X75500Y15601346D01*
X2101500Y15601346D01*
X2108011Y15540798D01*
X2108011Y15540796D01*
X2159111Y15403796D01*
X2246739Y15286739D01*
X2363796Y15199111D01*
X2500799Y15148011D01*
X2528050Y15145082D01*
X2561345Y15141501D01*
X2561362Y15141500D01*
X4358638Y15141500D01*
X4358654Y15141501D01*
X4385692Y15144409D01*
X4419201Y15148011D01*
X4556204Y15199111D01*
X4673261Y15286739D01*
X4760889Y15403796D01*
X4809223Y15533385D01*
X4851093Y15589314D01*
X4916557Y15613731D01*
X4984830Y15598879D01*
X5013084Y15577728D01*
X5128917Y15461895D01*
X5322421Y15326400D01*
X5536507Y15226571D01*
X5536516Y15226567D01*
X5750000Y15169366D01*
X5750000Y16066988D01*
X5807007Y16034075D01*
X5934174Y16000000D01*
X6065826Y16000000D01*
X6192993Y16034075D01*
X6250000Y16066988D01*
X6250000Y15169367D01*
X6463483Y15226567D01*
X6463492Y15226571D01*
X6677578Y15326400D01*
X6871082Y15461895D01*
X7038105Y15628918D01*
X7173600Y15822422D01*
X7273429Y16036508D01*
X7273432Y16036514D01*
X7330636Y16250000D01*
X6433012Y16250000D01*
X6465925Y16307007D01*
X6500000Y16434174D01*
X6500000Y16565826D01*
X6465925Y16692993D01*
X6433012Y16750000D01*
X7330636Y16750000D01*
X7330635Y16750001D01*
X7273432Y16963487D01*
X7273429Y16963493D01*
X7173600Y17177578D01*
X7173599Y17177580D01*
X7038113Y17371074D01*
X7038108Y17371080D01*
X6871082Y17538106D01*
X6677578Y17673601D01*
X6463492Y17773430D01*
X6463486Y17773433D01*
X6250000Y17830636D01*
X6250000Y16933012D01*
X6192993Y16965925D01*
X6065826Y17000000D01*
X5934174Y17000000D01*
X5807007Y16965925D01*
X5750000Y16933012D01*
X5750000Y17830636D01*
X5749999Y17830636D01*
X5536513Y17773433D01*
X5536507Y17773430D01*
X5322422Y17673601D01*
X5322420Y17673600D01*
X5128926Y17538114D01*
X5013084Y17422272D01*
X4951761Y17388788D01*
X4882069Y17393772D01*
X4826136Y17435644D01*
X4809223Y17466616D01*
X4760889Y17596204D01*
X4673261Y17713261D01*
X4556204Y17800889D01*
X4419203Y17851989D01*
X4358654Y17858500D01*
X4358638Y17858500D01*
X2561362Y17858500D01*
X2561345Y17858500D01*
X2500797Y17851989D01*
X2500795Y17851989D01*
X2363795Y17800889D01*
X2246739Y17713261D01*
X2159111Y17596205D01*
X2108011Y17459205D01*
X2108011Y17459203D01*
X2101500Y17398655D01*
X2101500Y15601346D01*
X75500Y15601346D01*
X75500Y20051346D01*
X12281500Y20051346D01*
X12288011Y19990798D01*
X12288011Y19990796D01*
X12339111Y19853796D01*
X12426739Y19736739D01*
X12543796Y19649111D01*
X12680799Y19598011D01*
X12708050Y19595082D01*
X12741345Y19591501D01*
X12741362Y19591500D01*
X14638638Y19591500D01*
X14638654Y19591501D01*
X14665692Y19594409D01*
X14699201Y19598011D01*
X14836204Y19649111D01*
X14953261Y19736739D01*
X15040889Y19853796D01*
X15091989Y19990799D01*
X15095591Y20024308D01*
X15098499Y20051346D01*
X15098500Y20051363D01*
X15098500Y20999995D01*
X19896673Y20999995D01*
X19915948Y20767378D01*
X19973251Y20541093D01*
X20067015Y20327332D01*
X20194686Y20131916D01*
X20352776Y19960186D01*
X20352780Y19960182D01*
X20536983Y19816810D01*
X20536985Y19816809D01*
X20536988Y19816807D01*
X20656331Y19752223D01*
X20742273Y19705713D01*
X20856914Y19666357D01*
X20963045Y19629921D01*
X20963047Y19629921D01*
X20963049Y19629920D01*
X21193288Y19591500D01*
X21193289Y19591500D01*
X21426711Y19591500D01*
X21426712Y19591500D01*
X21656951Y19629920D01*
X21877727Y19705713D01*
X22083017Y19816810D01*
X22267220Y19960182D01*
X22425314Y20131917D01*
X22552984Y20327331D01*
X22646749Y20541093D01*
X22704051Y20767374D01*
X22723327Y21000000D01*
X22704051Y21232626D01*
X22646749Y21458907D01*
X22552984Y21672669D01*
X22425314Y21868083D01*
X22425313Y21868085D01*
X22267223Y22039815D01*
X22267222Y22039816D01*
X22267220Y22039818D01*
X22083017Y22183190D01*
X22083015Y22183191D01*
X22083014Y22183192D01*
X22083011Y22183194D01*
X21877733Y22294284D01*
X21877730Y22294285D01*
X21877727Y22294287D01*
X21877721Y22294289D01*
X21877719Y22294290D01*
X21656954Y22370080D01*
X21465730Y22401989D01*
X21426712Y22408500D01*
X21193288Y22408500D01*
X21154270Y22401989D01*
X20963045Y22370080D01*
X20742280Y22294290D01*
X20742266Y22294284D01*
X20536988Y22183194D01*
X20536985Y22183192D01*
X20352781Y22039819D01*
X20352776Y22039815D01*
X20194686Y21868085D01*
X20067015Y21672669D01*
X19973251Y21458908D01*
X19915948Y21232623D01*
X19896673Y21000006D01*
X19896673Y20999995D01*
X15098500Y20999995D01*
X15098500Y21948638D01*
X15098499Y21948655D01*
X15095157Y21979730D01*
X15091989Y22009201D01*
X15080570Y22039815D01*
X15069522Y22069436D01*
X15040889Y22146204D01*
X14953261Y22263261D01*
X14836204Y22350889D01*
X14699203Y22401989D01*
X14638654Y22408500D01*
X14638638Y22408500D01*
X12741362Y22408500D01*
X12741345Y22408500D01*
X12680797Y22401989D01*
X12680795Y22401989D01*
X12543795Y22350889D01*
X12426739Y22263261D01*
X12339111Y22146205D01*
X12288011Y22009205D01*
X12288011Y22009203D01*
X12281500Y21948655D01*
X12281500Y20051346D01*
X75500Y20051346D01*
X75500Y26138679D01*
X34698000Y26138679D01*
X34729075Y25942480D01*
X34729075Y25942477D01*
X34790457Y25753563D01*
X34880641Y25576568D01*
X34997403Y25415861D01*
X34997403Y25415860D01*
X35137859Y25275404D01*
X35298567Y25158642D01*
X35475562Y25068458D01*
X35664473Y25007078D01*
X35710000Y24999867D01*
X35710000Y26557749D01*
X35763919Y26526619D01*
X35893120Y26492000D01*
X36026880Y26492000D01*
X36156081Y26526619D01*
X36210000Y26557749D01*
X36210000Y24999868D01*
X36255526Y25007078D01*
X36444437Y25068458D01*
X36621432Y25158642D01*
X36782139Y25275404D01*
X36782140Y25275404D01*
X36922596Y25415860D01*
X36922596Y25415861D01*
X37039360Y25576570D01*
X37114744Y25724520D01*
X37162718Y25775317D01*
X37230539Y25792112D01*
X37296674Y25769575D01*
X37335713Y25724522D01*
X37413369Y25572115D01*
X37448685Y25523507D01*
X37530917Y25410325D01*
X37672325Y25268917D01*
X37834113Y25151371D01*
X37996838Y25068458D01*
X38012299Y25060580D01*
X38107393Y25029683D01*
X38202490Y24998784D01*
X38400009Y24967500D01*
X38400010Y24967500D01*
X38599990Y24967500D01*
X38599991Y24967500D01*
X38797510Y24998784D01*
X38987703Y25060581D01*
X39165887Y25151371D01*
X39327675Y25268917D01*
X39469083Y25410325D01*
X39586629Y25572113D01*
X39659515Y25715160D01*
X39707490Y25765955D01*
X39775311Y25782750D01*
X39841446Y25760212D01*
X39880484Y25715160D01*
X39953371Y25572113D01*
X40070917Y25410325D01*
X40212325Y25268917D01*
X40374113Y25151371D01*
X40536838Y25068458D01*
X40552299Y25060580D01*
X40647393Y25029683D01*
X40742490Y24998784D01*
X40940009Y24967500D01*
X40940010Y24967500D01*
X41139990Y24967500D01*
X41139991Y24967500D01*
X41337510Y24998784D01*
X41527703Y25060581D01*
X41705887Y25151371D01*
X41867675Y25268917D01*
X42009083Y25410325D01*
X42126629Y25572113D01*
X42217419Y25750297D01*
X42279216Y25940490D01*
X42310500Y26138009D01*
X42310500Y27861991D01*
X42279216Y28059510D01*
X42227963Y28217251D01*
X42217420Y28249701D01*
X42126628Y28427888D01*
X42115928Y28442615D01*
X42009083Y28589675D01*
X41867675Y28731083D01*
X41705887Y28848629D01*
X41527700Y28939421D01*
X41337511Y29001216D01*
X41238750Y29016858D01*
X41139991Y29032500D01*
X40940009Y29032500D01*
X40874169Y29022072D01*
X40742488Y29001216D01*
X40552299Y28939421D01*
X40374112Y28848629D01*
X40281806Y28781565D01*
X40212325Y28731083D01*
X40212323Y28731081D01*
X40212322Y28731081D01*
X40070919Y28589678D01*
X40070919Y28589677D01*
X40070917Y28589675D01*
X40066896Y28584140D01*
X39953367Y28427883D01*
X39880484Y28284842D01*
X39832510Y28234046D01*
X39764689Y28217251D01*
X39698554Y28239789D01*
X39659516Y28284842D01*
X39586632Y28427883D01*
X39575928Y28442616D01*
X39469083Y28589675D01*
X39327675Y28731083D01*
X39165887Y28848629D01*
X38987700Y28939421D01*
X38797511Y29001216D01*
X38698750Y29016858D01*
X38599991Y29032500D01*
X38400009Y29032500D01*
X38334169Y29022072D01*
X38202488Y29001216D01*
X38012299Y28939421D01*
X37834112Y28848629D01*
X37741806Y28781565D01*
X37672325Y28731083D01*
X37672323Y28731081D01*
X37672322Y28731081D01*
X37530919Y28589678D01*
X37530919Y28589677D01*
X37530917Y28589675D01*
X37526896Y28584140D01*
X37413369Y28427885D01*
X37335713Y28275479D01*
X37287738Y28224684D01*
X37219917Y28207889D01*
X37153783Y28230427D01*
X37114744Y28275480D01*
X37039358Y28423433D01*
X36922596Y28584140D01*
X36922596Y28584141D01*
X36782140Y28724597D01*
X36621432Y28841359D01*
X36444434Y28931544D01*
X36444436Y28931544D01*
X36255517Y28992926D01*
X36210000Y29000135D01*
X36210000Y27442252D01*
X36156081Y27473381D01*
X36026880Y27508000D01*
X35893120Y27508000D01*
X35763919Y27473381D01*
X35710000Y27442252D01*
X35710000Y29000135D01*
X35709999Y29000135D01*
X35664482Y28992926D01*
X35475564Y28931544D01*
X35298567Y28841359D01*
X35137860Y28724597D01*
X35137859Y28724597D01*
X34997403Y28584141D01*
X34997403Y28584140D01*
X34880641Y28423433D01*
X34790457Y28246438D01*
X34729075Y28057524D01*
X34729075Y28057521D01*
X34698000Y27861322D01*
X34698000Y27250000D01*
X35517749Y27250000D01*
X35486619Y27196081D01*
X35452000Y27066880D01*
X35452000Y26933120D01*
X35486619Y26803919D01*
X35517749Y26750000D01*
X34698000Y26750000D01*
X34698000Y26138679D01*
X75500Y26138679D01*
X75500Y27101346D01*
X3601500Y27101346D01*
X3608011Y27040798D01*
X3608011Y27040796D01*
X3659111Y26903796D01*
X3746739Y26786739D01*
X3863796Y26699111D01*
X4000799Y26648011D01*
X4028050Y26645082D01*
X4061345Y26641501D01*
X4061362Y26641500D01*
X5858638Y26641500D01*
X5858654Y26641501D01*
X5885692Y26644409D01*
X5919201Y26648011D01*
X6056204Y26699111D01*
X6173261Y26786739D01*
X6260889Y26903796D01*
X6306138Y27025113D01*
X6348009Y27081044D01*
X6413474Y27105461D01*
X6481746Y27090609D01*
X6513545Y27065764D01*
X6576760Y26997094D01*
X6754424Y26858811D01*
X6754425Y26858811D01*
X6754427Y26858809D01*
X6855856Y26803919D01*
X6952426Y26751658D01*
X7165365Y26678556D01*
X7387431Y26641500D01*
X7612569Y26641500D01*
X7834635Y26678556D01*
X8047574Y26751658D01*
X8245576Y26858811D01*
X8423240Y26997094D01*
X8575722Y27162732D01*
X8698860Y27351209D01*
X8789296Y27557384D01*
X8844564Y27775632D01*
X8863156Y28000000D01*
X8858389Y28057524D01*
X8844565Y28224360D01*
X8844563Y28224372D01*
X8793026Y28427887D01*
X8789296Y28442616D01*
X8698860Y28648791D01*
X8575722Y28837268D01*
X8575719Y28837271D01*
X8575715Y28837277D01*
X8423243Y29002903D01*
X8423238Y29002908D01*
X8245577Y29141188D01*
X8245572Y29141192D01*
X8047580Y29248339D01*
X8047577Y29248341D01*
X8047574Y29248342D01*
X8047571Y29248343D01*
X8047569Y29248344D01*
X7834637Y29321444D01*
X7612569Y29358500D01*
X7387431Y29358500D01*
X7165362Y29321444D01*
X6952430Y29248344D01*
X6952419Y29248339D01*
X6754427Y29141192D01*
X6754422Y29141188D01*
X6576761Y29002908D01*
X6513548Y28934240D01*
X6453661Y28898250D01*
X6383823Y28900351D01*
X6326207Y28939876D01*
X6306138Y28974890D01*
X6260889Y29096204D01*
X6227214Y29141188D01*
X6173261Y29213261D01*
X6056204Y29300889D01*
X5919203Y29351989D01*
X5858654Y29358500D01*
X5858638Y29358500D01*
X4061362Y29358500D01*
X4061345Y29358500D01*
X4000797Y29351989D01*
X4000795Y29351989D01*
X3863795Y29300889D01*
X3746739Y29213261D01*
X3659111Y29096205D01*
X3608011Y28959205D01*
X3608011Y28959203D01*
X3601500Y28898655D01*
X3601500Y27101346D01*
X75500Y27101346D01*
X75500Y38999998D01*
X48724647Y38999998D01*
X48744021Y38778543D01*
X48744022Y38778535D01*
X48801558Y38563809D01*
X48801559Y38563807D01*
X48801560Y38563804D01*
X48848536Y38463064D01*
X48895511Y38362324D01*
X48895512Y38362323D01*
X49023023Y38180219D01*
X49180219Y38023023D01*
X49362323Y37895512D01*
X49563804Y37801560D01*
X49778537Y37744022D01*
X49936724Y37730183D01*
X49999998Y37724647D01*
X50000000Y37724647D01*
X50000002Y37724647D01*
X50055365Y37729491D01*
X50221463Y37744022D01*
X50436196Y37801560D01*
X50637677Y37895512D01*
X50819781Y38023023D01*
X50976977Y38180219D01*
X51104488Y38362323D01*
X51198440Y38563804D01*
X51255978Y38778537D01*
X51275353Y38999998D01*
X55224647Y38999998D01*
X55244021Y38778543D01*
X55244022Y38778535D01*
X55301558Y38563809D01*
X55301559Y38563807D01*
X55301560Y38563804D01*
X55348536Y38463064D01*
X55395511Y38362324D01*
X55395512Y38362323D01*
X55523023Y38180219D01*
X55680219Y38023023D01*
X55862323Y37895512D01*
X56063804Y37801560D01*
X56278537Y37744022D01*
X56436724Y37730183D01*
X56499998Y37724647D01*
X56500000Y37724647D01*
X56500002Y37724647D01*
X56555365Y37729491D01*
X56721463Y37744022D01*
X56936196Y37801560D01*
X57137677Y37895512D01*
X57319781Y38023023D01*
X57476977Y38180219D01*
X57604488Y38362323D01*
X57698440Y38563804D01*
X57755978Y38778537D01*
X57775353Y39000000D01*
X57755978Y39221463D01*
X57698440Y39436196D01*
X57604488Y39637676D01*
X57604486Y39637679D01*
X57604485Y39637681D01*
X57476978Y39819780D01*
X57476975Y39819783D01*
X57319781Y39976977D01*
X57137677Y40104488D01*
X57137678Y40104488D01*
X57137676Y40104489D01*
X57036936Y40151464D01*
X56936196Y40198440D01*
X56936193Y40198441D01*
X56936191Y40198442D01*
X56721465Y40255978D01*
X56721457Y40255979D01*
X56500002Y40275353D01*
X56499998Y40275353D01*
X56278542Y40255979D01*
X56278535Y40255978D01*
X56063800Y40198439D01*
X55862323Y40104488D01*
X55862319Y40104486D01*
X55680217Y39976977D01*
X55523023Y39819783D01*
X55395514Y39637681D01*
X55395512Y39637677D01*
X55301561Y39436200D01*
X55244022Y39221465D01*
X55244021Y39221458D01*
X55224647Y39000003D01*
X55224647Y38999998D01*
X51275353Y38999998D01*
X51275353Y39000000D01*
X51255978Y39221463D01*
X51198440Y39436196D01*
X51104488Y39637676D01*
X51104486Y39637679D01*
X51104485Y39637681D01*
X50976978Y39819780D01*
X50976975Y39819783D01*
X50819781Y39976977D01*
X50637677Y40104488D01*
X50637678Y40104488D01*
X50637676Y40104489D01*
X50536936Y40151464D01*
X50436196Y40198440D01*
X50436193Y40198441D01*
X50436191Y40198442D01*
X50221465Y40255978D01*
X50221457Y40255979D01*
X50000002Y40275353D01*
X49999998Y40275353D01*
X49778542Y40255979D01*
X49778535Y40255978D01*
X49563800Y40198439D01*
X49362323Y40104488D01*
X49362319Y40104486D01*
X49180217Y39976977D01*
X49023023Y39819783D01*
X48895514Y39637681D01*
X48895512Y39637677D01*
X48801561Y39436200D01*
X48744022Y39221465D01*
X48744021Y39221458D01*
X48724647Y39000003D01*
X48724647Y38999998D01*
X75500Y38999998D01*
X75500Y43250001D01*
X29061127Y43250001D01*
X29061128Y43250000D01*
X30024314Y43250000D01*
X30019920Y43245606D01*
X29967259Y43154394D01*
X29940000Y43052661D01*
X29940000Y42947339D01*
X29967259Y42845606D01*
X30019920Y42754394D01*
X30024314Y42750000D01*
X29061128Y42750000D01*
X29113730Y42553683D01*
X29113734Y42553674D01*
X29209865Y42347518D01*
X29340342Y42161180D01*
X29501179Y42000343D01*
X29687517Y41869866D01*
X29893673Y41773735D01*
X29893682Y41773731D01*
X30089999Y41721128D01*
X30090000Y41721129D01*
X30090000Y42684314D01*
X30094394Y42679920D01*
X30185606Y42627259D01*
X30287339Y42600000D01*
X30392661Y42600000D01*
X30494394Y42627259D01*
X30585606Y42679920D01*
X30590000Y42684314D01*
X30590000Y41721128D01*
X30786317Y41773731D01*
X30786326Y41773735D01*
X30992482Y41869866D01*
X31178820Y42000343D01*
X31339657Y42161180D01*
X31470134Y42347518D01*
X31566265Y42553674D01*
X31566269Y42553683D01*
X31618872Y42750000D01*
X30655686Y42750000D01*
X30660080Y42754394D01*
X30712741Y42845606D01*
X30740000Y42947339D01*
X30740000Y42999999D01*
X39186502Y42999999D01*
X39206456Y42771919D01*
X39206457Y42771911D01*
X39265714Y42550762D01*
X39265718Y42550751D01*
X39278648Y42523023D01*
X39362477Y42343251D01*
X39493802Y42155700D01*
X39655700Y41993802D01*
X39843251Y41862477D01*
X39968091Y41804264D01*
X40050750Y41765719D01*
X40050752Y41765719D01*
X40050757Y41765716D01*
X40271913Y41706457D01*
X40434832Y41692204D01*
X40499998Y41686502D01*
X40500000Y41686502D01*
X40500002Y41686502D01*
X40557021Y41691491D01*
X40728087Y41706457D01*
X40949243Y41765716D01*
X41156749Y41862477D01*
X41344300Y41993802D01*
X41506198Y42155700D01*
X41637523Y42343251D01*
X41734284Y42550757D01*
X41793543Y42771913D01*
X41813498Y43000000D01*
X41793543Y43228087D01*
X41734284Y43449243D01*
X41710617Y43499998D01*
X48724647Y43499998D01*
X48744021Y43278543D01*
X48744022Y43278535D01*
X48801558Y43063809D01*
X48801559Y43063807D01*
X48801560Y43063804D01*
X48831312Y43000000D01*
X48895511Y42862324D01*
X48895512Y42862323D01*
X49023023Y42680219D01*
X49180219Y42523023D01*
X49362323Y42395512D01*
X49563804Y42301560D01*
X49778537Y42244022D01*
X49936724Y42230183D01*
X49999998Y42224647D01*
X50000000Y42224647D01*
X50000002Y42224647D01*
X50055365Y42229491D01*
X50221463Y42244022D01*
X50436196Y42301560D01*
X50637677Y42395512D01*
X50819781Y42523023D01*
X50976977Y42680219D01*
X51104488Y42862323D01*
X51198440Y43063804D01*
X51255978Y43278537D01*
X51275353Y43499998D01*
X55224647Y43499998D01*
X55244021Y43278543D01*
X55244022Y43278535D01*
X55301558Y43063809D01*
X55301559Y43063807D01*
X55301560Y43063804D01*
X55331312Y43000000D01*
X55395511Y42862324D01*
X55395512Y42862323D01*
X55523023Y42680219D01*
X55680219Y42523023D01*
X55862323Y42395512D01*
X56063804Y42301560D01*
X56278537Y42244022D01*
X56436724Y42230183D01*
X56499998Y42224647D01*
X56500000Y42224647D01*
X56500002Y42224647D01*
X56555365Y42229491D01*
X56721463Y42244022D01*
X56936196Y42301560D01*
X57137677Y42395512D01*
X57319781Y42523023D01*
X57476977Y42680219D01*
X57604488Y42862323D01*
X57698440Y43063804D01*
X57755978Y43278537D01*
X57775353Y43500000D01*
X57755978Y43721463D01*
X57698440Y43936196D01*
X57604488Y44137676D01*
X57604486Y44137679D01*
X57604485Y44137681D01*
X57476978Y44319780D01*
X57476975Y44319783D01*
X57319781Y44476977D01*
X57137677Y44604488D01*
X57137678Y44604488D01*
X57137676Y44604489D01*
X57036936Y44651464D01*
X56936196Y44698440D01*
X56936193Y44698441D01*
X56936191Y44698442D01*
X56721465Y44755978D01*
X56721457Y44755979D01*
X56500002Y44775353D01*
X56499998Y44775353D01*
X56278542Y44755979D01*
X56278535Y44755978D01*
X56063800Y44698439D01*
X55862323Y44604488D01*
X55862319Y44604486D01*
X55680217Y44476977D01*
X55523023Y44319783D01*
X55395514Y44137681D01*
X55395512Y44137677D01*
X55301561Y43936200D01*
X55244022Y43721465D01*
X55244021Y43721458D01*
X55224647Y43500003D01*
X55224647Y43499998D01*
X51275353Y43499998D01*
X51275353Y43500000D01*
X51255978Y43721463D01*
X51198440Y43936196D01*
X51104488Y44137676D01*
X51104486Y44137679D01*
X51104485Y44137681D01*
X50976978Y44319780D01*
X50976975Y44319783D01*
X50819781Y44476977D01*
X50637677Y44604488D01*
X50637678Y44604488D01*
X50637676Y44604489D01*
X50536936Y44651464D01*
X50436196Y44698440D01*
X50436193Y44698441D01*
X50436191Y44698442D01*
X50221465Y44755978D01*
X50221457Y44755979D01*
X50000002Y44775353D01*
X49999998Y44775353D01*
X49778542Y44755979D01*
X49778535Y44755978D01*
X49563800Y44698439D01*
X49362323Y44604488D01*
X49362319Y44604486D01*
X49180217Y44476977D01*
X49023023Y44319783D01*
X48895514Y44137681D01*
X48895512Y44137677D01*
X48801561Y43936200D01*
X48744022Y43721465D01*
X48744021Y43721458D01*
X48724647Y43500003D01*
X48724647Y43499998D01*
X41710617Y43499998D01*
X41637523Y43656749D01*
X41506198Y43844300D01*
X41344300Y44006198D01*
X41156749Y44137523D01*
X41156410Y44137681D01*
X40949249Y44234282D01*
X40949238Y44234286D01*
X40728089Y44293543D01*
X40728081Y44293544D01*
X40500002Y44313498D01*
X40499998Y44313498D01*
X40271918Y44293544D01*
X40271910Y44293543D01*
X40050761Y44234286D01*
X40050750Y44234282D01*
X39843254Y44137525D01*
X39843252Y44137524D01*
X39843251Y44137523D01*
X39655700Y44006198D01*
X39655698Y44006197D01*
X39655695Y44006194D01*
X39493806Y43844305D01*
X39362476Y43656748D01*
X39362475Y43656746D01*
X39265718Y43449250D01*
X39265714Y43449239D01*
X39206457Y43228090D01*
X39206456Y43228082D01*
X39186502Y43000002D01*
X39186502Y42999999D01*
X30740000Y42999999D01*
X30740000Y43052661D01*
X30712741Y43154394D01*
X30660080Y43245606D01*
X30655686Y43250000D01*
X31618872Y43250000D01*
X31618872Y43250001D01*
X31566269Y43446318D01*
X31566265Y43446327D01*
X31470134Y43652483D01*
X31339657Y43838821D01*
X31178820Y43999658D01*
X30992482Y44130135D01*
X30786328Y44226266D01*
X30590000Y44278873D01*
X30590000Y43315686D01*
X30585606Y43320080D01*
X30494394Y43372741D01*
X30392661Y43400000D01*
X30287339Y43400000D01*
X30185606Y43372741D01*
X30094394Y43320080D01*
X30090000Y43315686D01*
X30090000Y44278873D01*
X29893671Y44226266D01*
X29687517Y44130135D01*
X29501179Y43999658D01*
X29340342Y43838821D01*
X29209865Y43652483D01*
X29113734Y43446327D01*
X29113730Y43446318D01*
X29061127Y43250001D01*
X75500Y43250001D01*
X75500Y49901346D01*
X17437500Y49901346D01*
X17444011Y49840798D01*
X17444011Y49840796D01*
X17495111Y49703796D01*
X17582739Y49586739D01*
X17699796Y49499111D01*
X17836799Y49448011D01*
X17864050Y49445082D01*
X17897345Y49441501D01*
X17897362Y49441500D01*
X19694638Y49441500D01*
X19694654Y49441501D01*
X19721692Y49444409D01*
X19755201Y49448011D01*
X19892204Y49499111D01*
X20009261Y49586739D01*
X20096889Y49703796D01*
X20142138Y49825113D01*
X20184009Y49881044D01*
X20249474Y49905461D01*
X20317746Y49890609D01*
X20349545Y49865764D01*
X20412760Y49797094D01*
X20590424Y49658811D01*
X20590425Y49658811D01*
X20590427Y49658809D01*
X20650314Y49626400D01*
X20788426Y49551658D01*
X21001365Y49478556D01*
X21223431Y49441500D01*
X21448569Y49441500D01*
X21670635Y49478556D01*
X21883574Y49551658D01*
X22081576Y49658811D01*
X22259240Y49797094D01*
X22380594Y49928918D01*
X22411715Y49962724D01*
X22411715Y49962725D01*
X22411722Y49962732D01*
X22502193Y50101210D01*
X22555338Y50146563D01*
X22624569Y50155987D01*
X22687905Y50126485D01*
X22709804Y50101213D01*
X22800278Y49962732D01*
X22800283Y49962727D01*
X22800284Y49962724D01*
X22926968Y49825111D01*
X22952760Y49797094D01*
X23130424Y49658811D01*
X23130425Y49658811D01*
X23130427Y49658809D01*
X23190314Y49626400D01*
X23328426Y49551658D01*
X23541365Y49478556D01*
X23763431Y49441500D01*
X23988569Y49441500D01*
X24210635Y49478556D01*
X24423574Y49551658D01*
X24621576Y49658811D01*
X24799240Y49797094D01*
X24920594Y49928918D01*
X24951715Y49962724D01*
X24951715Y49962725D01*
X24951722Y49962732D01*
X25045749Y50106653D01*
X25098894Y50152006D01*
X25168125Y50161430D01*
X25231461Y50131928D01*
X25251130Y50109952D01*
X25377890Y49928922D01*
X25544917Y49761895D01*
X25738421Y49626400D01*
X25952507Y49526571D01*
X25952516Y49526567D01*
X26166000Y49469366D01*
X26166000Y50366988D01*
X26223007Y50334075D01*
X26350174Y50300000D01*
X26481826Y50300000D01*
X26608993Y50334075D01*
X26666000Y50366988D01*
X26666000Y49469367D01*
X26879483Y49526567D01*
X26879492Y49526571D01*
X27093578Y49626400D01*
X27287082Y49761895D01*
X27454105Y49928918D01*
X27580868Y50109952D01*
X27635445Y50153577D01*
X27704944Y50160769D01*
X27767298Y50129247D01*
X27786251Y50106650D01*
X27880276Y49962735D01*
X27880284Y49962724D01*
X28006968Y49825111D01*
X28032760Y49797094D01*
X28210424Y49658811D01*
X28210425Y49658811D01*
X28210427Y49658809D01*
X28270314Y49626400D01*
X28408426Y49551658D01*
X28621365Y49478556D01*
X28843431Y49441500D01*
X29068569Y49441500D01*
X29290635Y49478556D01*
X29503574Y49551658D01*
X29701576Y49658811D01*
X29879240Y49797094D01*
X30000594Y49928918D01*
X30031715Y49962724D01*
X30031715Y49962725D01*
X30031722Y49962732D01*
X30122193Y50101210D01*
X30175338Y50146563D01*
X30244569Y50155987D01*
X30307905Y50126485D01*
X30329804Y50101213D01*
X30420278Y49962732D01*
X30420283Y49962727D01*
X30420284Y49962724D01*
X30546968Y49825111D01*
X30572760Y49797094D01*
X30750424Y49658811D01*
X30750425Y49658811D01*
X30750427Y49658809D01*
X30810314Y49626400D01*
X30948426Y49551658D01*
X31161365Y49478556D01*
X31383431Y49441500D01*
X31608569Y49441500D01*
X31830635Y49478556D01*
X32043574Y49551658D01*
X32241576Y49658811D01*
X32419240Y49797094D01*
X32540594Y49928918D01*
X32571715Y49962724D01*
X32571715Y49962725D01*
X32571722Y49962732D01*
X32662193Y50101210D01*
X32715338Y50146563D01*
X32784569Y50155987D01*
X32847905Y50126485D01*
X32869804Y50101213D01*
X32960278Y49962732D01*
X32960283Y49962727D01*
X32960284Y49962724D01*
X33086968Y49825111D01*
X33112760Y49797094D01*
X33290424Y49658811D01*
X33290425Y49658811D01*
X33290427Y49658809D01*
X33350314Y49626400D01*
X33488426Y49551658D01*
X33701365Y49478556D01*
X33923431Y49441500D01*
X34148569Y49441500D01*
X34370635Y49478556D01*
X34583574Y49551658D01*
X34781576Y49658811D01*
X34959240Y49797094D01*
X35080594Y49928918D01*
X35111715Y49962724D01*
X35111715Y49962725D01*
X35111722Y49962732D01*
X35202193Y50101210D01*
X35255338Y50146563D01*
X35324569Y50155987D01*
X35387905Y50126485D01*
X35409804Y50101213D01*
X35500278Y49962732D01*
X35500283Y49962727D01*
X35500284Y49962724D01*
X35626968Y49825111D01*
X35652760Y49797094D01*
X35830424Y49658811D01*
X35830425Y49658811D01*
X35830427Y49658809D01*
X35890314Y49626400D01*
X36028426Y49551658D01*
X36241365Y49478556D01*
X36463431Y49441500D01*
X36688569Y49441500D01*
X36910635Y49478556D01*
X37123574Y49551658D01*
X37321576Y49658811D01*
X37499240Y49797094D01*
X37620594Y49928918D01*
X37651715Y49962724D01*
X37651715Y49962725D01*
X37651722Y49962732D01*
X37742193Y50101210D01*
X37795338Y50146563D01*
X37864569Y50155987D01*
X37927905Y50126485D01*
X37949804Y50101213D01*
X38040278Y49962732D01*
X38040283Y49962727D01*
X38040284Y49962724D01*
X38166968Y49825111D01*
X38192760Y49797094D01*
X38370424Y49658811D01*
X38370425Y49658811D01*
X38370427Y49658809D01*
X38430314Y49626400D01*
X38568426Y49551658D01*
X38781365Y49478556D01*
X39003431Y49441500D01*
X39228569Y49441500D01*
X39450635Y49478556D01*
X39663574Y49551658D01*
X39861576Y49658811D01*
X40039240Y49797094D01*
X40160594Y49928918D01*
X40191715Y49962724D01*
X40191715Y49962725D01*
X40191722Y49962732D01*
X40282193Y50101210D01*
X40335338Y50146563D01*
X40404569Y50155987D01*
X40467905Y50126485D01*
X40489804Y50101213D01*
X40580278Y49962732D01*
X40580283Y49962727D01*
X40580284Y49962724D01*
X40706968Y49825111D01*
X40732760Y49797094D01*
X40910424Y49658811D01*
X40910425Y49658811D01*
X40910427Y49658809D01*
X40970314Y49626400D01*
X41108426Y49551658D01*
X41321365Y49478556D01*
X41543431Y49441500D01*
X41768569Y49441500D01*
X41990635Y49478556D01*
X42203574Y49551658D01*
X42401576Y49658811D01*
X42579240Y49797094D01*
X42675212Y49901346D01*
X44361500Y49901346D01*
X44368011Y49840798D01*
X44368011Y49840796D01*
X44419111Y49703796D01*
X44506739Y49586739D01*
X44623796Y49499111D01*
X44760799Y49448011D01*
X44788050Y49445082D01*
X44821345Y49441501D01*
X44821362Y49441500D01*
X46618638Y49441500D01*
X46618654Y49441501D01*
X46645692Y49444409D01*
X46679201Y49448011D01*
X46816204Y49499111D01*
X46933261Y49586739D01*
X47020889Y49703796D01*
X47066138Y49825113D01*
X47108009Y49881044D01*
X47173474Y49905461D01*
X47241746Y49890609D01*
X47273545Y49865764D01*
X47336760Y49797094D01*
X47514424Y49658811D01*
X47514425Y49658811D01*
X47514427Y49658809D01*
X47574314Y49626400D01*
X47712426Y49551658D01*
X47925365Y49478556D01*
X48147431Y49441500D01*
X48372569Y49441500D01*
X48594635Y49478556D01*
X48807574Y49551658D01*
X49005576Y49658811D01*
X49183240Y49797094D01*
X49304594Y49928918D01*
X49335715Y49962724D01*
X49335715Y49962725D01*
X49335722Y49962732D01*
X49426193Y50101210D01*
X49479338Y50146563D01*
X49548569Y50155987D01*
X49611905Y50126485D01*
X49633804Y50101213D01*
X49724278Y49962732D01*
X49724283Y49962727D01*
X49724284Y49962724D01*
X49850968Y49825111D01*
X49876760Y49797094D01*
X50054424Y49658811D01*
X50054425Y49658811D01*
X50054427Y49658809D01*
X50114314Y49626400D01*
X50252426Y49551658D01*
X50465365Y49478556D01*
X50687431Y49441500D01*
X50912569Y49441500D01*
X51134635Y49478556D01*
X51347574Y49551658D01*
X51545576Y49658811D01*
X51723240Y49797094D01*
X51844594Y49928918D01*
X51875715Y49962724D01*
X51875715Y49962725D01*
X51875722Y49962732D01*
X51966193Y50101210D01*
X52019338Y50146563D01*
X52088569Y50155987D01*
X52151905Y50126485D01*
X52173804Y50101213D01*
X52264278Y49962732D01*
X52264283Y49962727D01*
X52264284Y49962724D01*
X52390968Y49825111D01*
X52416760Y49797094D01*
X52594424Y49658811D01*
X52594425Y49658811D01*
X52594427Y49658809D01*
X52654314Y49626400D01*
X52792426Y49551658D01*
X53005365Y49478556D01*
X53227431Y49441500D01*
X53452569Y49441500D01*
X53674635Y49478556D01*
X53887574Y49551658D01*
X54085576Y49658811D01*
X54263240Y49797094D01*
X54384594Y49928918D01*
X54415715Y49962724D01*
X54415715Y49962725D01*
X54415722Y49962732D01*
X54506193Y50101210D01*
X54559338Y50146563D01*
X54628569Y50155987D01*
X54691905Y50126485D01*
X54713804Y50101213D01*
X54804278Y49962732D01*
X54804283Y49962727D01*
X54804284Y49962724D01*
X54930968Y49825111D01*
X54956760Y49797094D01*
X55134424Y49658811D01*
X55134425Y49658811D01*
X55134427Y49658809D01*
X55194314Y49626400D01*
X55332426Y49551658D01*
X55545365Y49478556D01*
X55767431Y49441500D01*
X55992569Y49441500D01*
X56214635Y49478556D01*
X56427574Y49551658D01*
X56625576Y49658811D01*
X56803240Y49797094D01*
X56924594Y49928918D01*
X56955715Y49962724D01*
X56955715Y49962725D01*
X56955722Y49962732D01*
X57046193Y50101210D01*
X57099338Y50146563D01*
X57168569Y50155987D01*
X57231905Y50126485D01*
X57253804Y50101213D01*
X57344278Y49962732D01*
X57344283Y49962727D01*
X57344284Y49962724D01*
X57470968Y49825111D01*
X57496760Y49797094D01*
X57674424Y49658811D01*
X57674425Y49658811D01*
X57674427Y49658809D01*
X57734314Y49626400D01*
X57872426Y49551658D01*
X58085365Y49478556D01*
X58307431Y49441500D01*
X58532569Y49441500D01*
X58754635Y49478556D01*
X58967574Y49551658D01*
X59165576Y49658811D01*
X59343240Y49797094D01*
X59464594Y49928918D01*
X59495715Y49962724D01*
X59495715Y49962725D01*
X59495722Y49962732D01*
X59586193Y50101210D01*
X59639338Y50146563D01*
X59708569Y50155987D01*
X59771905Y50126485D01*
X59793804Y50101213D01*
X59884278Y49962732D01*
X59884283Y49962727D01*
X59884284Y49962724D01*
X60010968Y49825111D01*
X60036760Y49797094D01*
X60214424Y49658811D01*
X60214425Y49658811D01*
X60214427Y49658809D01*
X60274314Y49626400D01*
X60412426Y49551658D01*
X60625365Y49478556D01*
X60847431Y49441500D01*
X61072569Y49441500D01*
X61294635Y49478556D01*
X61507574Y49551658D01*
X61705576Y49658811D01*
X61883240Y49797094D01*
X62004594Y49928918D01*
X62035715Y49962724D01*
X62035715Y49962725D01*
X62035722Y49962732D01*
X62126193Y50101210D01*
X62179338Y50146563D01*
X62248569Y50155987D01*
X62311905Y50126485D01*
X62333804Y50101213D01*
X62424278Y49962732D01*
X62424283Y49962727D01*
X62424284Y49962724D01*
X62550968Y49825111D01*
X62576760Y49797094D01*
X62754424Y49658811D01*
X62754425Y49658811D01*
X62754427Y49658809D01*
X62814314Y49626400D01*
X62952426Y49551658D01*
X63165365Y49478556D01*
X63387431Y49441500D01*
X63612569Y49441500D01*
X63834635Y49478556D01*
X64047574Y49551658D01*
X64245576Y49658811D01*
X64423240Y49797094D01*
X64544594Y49928918D01*
X64575715Y49962724D01*
X64575717Y49962727D01*
X64575722Y49962732D01*
X64698860Y50151209D01*
X64789296Y50357384D01*
X64844564Y50575632D01*
X64856309Y50717365D01*
X64863156Y50799995D01*
X64863156Y50800006D01*
X64844565Y51024360D01*
X64844563Y51024372D01*
X64789296Y51242615D01*
X64779071Y51265925D01*
X64698860Y51448791D01*
X64682706Y51473516D01*
X64575723Y51637266D01*
X64575715Y51637277D01*
X64423243Y51802903D01*
X64423238Y51802908D01*
X64245577Y51941188D01*
X64245572Y51941192D01*
X64047580Y52048339D01*
X64047577Y52048341D01*
X64047574Y52048342D01*
X64047571Y52048343D01*
X64047569Y52048344D01*
X63834637Y52121444D01*
X63612569Y52158500D01*
X63387431Y52158500D01*
X63165362Y52121444D01*
X62952430Y52048344D01*
X62952419Y52048339D01*
X62754427Y51941192D01*
X62754422Y51941188D01*
X62576761Y51802908D01*
X62576756Y51802903D01*
X62424284Y51637277D01*
X62424276Y51637266D01*
X62333808Y51498794D01*
X62280662Y51453438D01*
X62211431Y51444014D01*
X62148095Y51473516D01*
X62126192Y51498794D01*
X62035723Y51637266D01*
X62035715Y51637277D01*
X61883243Y51802903D01*
X61883238Y51802908D01*
X61705577Y51941188D01*
X61705572Y51941192D01*
X61507580Y52048339D01*
X61507577Y52048341D01*
X61507574Y52048342D01*
X61507571Y52048343D01*
X61507569Y52048344D01*
X61294637Y52121444D01*
X61072569Y52158500D01*
X60847431Y52158500D01*
X60625362Y52121444D01*
X60412430Y52048344D01*
X60412419Y52048339D01*
X60214427Y51941192D01*
X60214422Y51941188D01*
X60036761Y51802908D01*
X60036756Y51802903D01*
X59884284Y51637277D01*
X59884276Y51637266D01*
X59793808Y51498794D01*
X59740662Y51453438D01*
X59671431Y51444014D01*
X59608095Y51473516D01*
X59586192Y51498794D01*
X59495723Y51637266D01*
X59495715Y51637277D01*
X59343243Y51802903D01*
X59343238Y51802908D01*
X59165577Y51941188D01*
X59165572Y51941192D01*
X58967580Y52048339D01*
X58967577Y52048341D01*
X58967574Y52048342D01*
X58967571Y52048343D01*
X58967569Y52048344D01*
X58754637Y52121444D01*
X58532569Y52158500D01*
X58307431Y52158500D01*
X58085362Y52121444D01*
X57872430Y52048344D01*
X57872419Y52048339D01*
X57674427Y51941192D01*
X57674422Y51941188D01*
X57496761Y51802908D01*
X57496756Y51802903D01*
X57344284Y51637277D01*
X57344276Y51637266D01*
X57253808Y51498794D01*
X57200662Y51453438D01*
X57131431Y51444014D01*
X57068095Y51473516D01*
X57046192Y51498794D01*
X56955723Y51637266D01*
X56955715Y51637277D01*
X56803243Y51802903D01*
X56803238Y51802908D01*
X56625577Y51941188D01*
X56625572Y51941192D01*
X56427580Y52048339D01*
X56427577Y52048341D01*
X56427574Y52048342D01*
X56427571Y52048343D01*
X56427569Y52048344D01*
X56214637Y52121444D01*
X55992569Y52158500D01*
X55767431Y52158500D01*
X55545362Y52121444D01*
X55332430Y52048344D01*
X55332419Y52048339D01*
X55134427Y51941192D01*
X55134422Y51941188D01*
X54956761Y51802908D01*
X54956756Y51802903D01*
X54804284Y51637277D01*
X54804276Y51637266D01*
X54713808Y51498794D01*
X54660662Y51453438D01*
X54591431Y51444014D01*
X54528095Y51473516D01*
X54506192Y51498794D01*
X54415723Y51637266D01*
X54415715Y51637277D01*
X54263243Y51802903D01*
X54263238Y51802908D01*
X54085577Y51941188D01*
X54085572Y51941192D01*
X53887580Y52048339D01*
X53887577Y52048341D01*
X53887574Y52048342D01*
X53887571Y52048343D01*
X53887569Y52048344D01*
X53674637Y52121444D01*
X53452569Y52158500D01*
X53227431Y52158500D01*
X53005362Y52121444D01*
X52792430Y52048344D01*
X52792419Y52048339D01*
X52594427Y51941192D01*
X52594422Y51941188D01*
X52416761Y51802908D01*
X52416756Y51802903D01*
X52264284Y51637277D01*
X52264276Y51637266D01*
X52173808Y51498794D01*
X52120662Y51453438D01*
X52051431Y51444014D01*
X51988095Y51473516D01*
X51966192Y51498794D01*
X51875723Y51637266D01*
X51875715Y51637277D01*
X51723243Y51802903D01*
X51723238Y51802908D01*
X51545577Y51941188D01*
X51545572Y51941192D01*
X51347580Y52048339D01*
X51347577Y52048341D01*
X51347574Y52048342D01*
X51347571Y52048343D01*
X51347569Y52048344D01*
X51134637Y52121444D01*
X50912569Y52158500D01*
X50687431Y52158500D01*
X50465362Y52121444D01*
X50252430Y52048344D01*
X50252419Y52048339D01*
X50054427Y51941192D01*
X50054422Y51941188D01*
X49876761Y51802908D01*
X49876756Y51802903D01*
X49724284Y51637277D01*
X49724276Y51637266D01*
X49633808Y51498794D01*
X49580662Y51453438D01*
X49511431Y51444014D01*
X49448095Y51473516D01*
X49426192Y51498794D01*
X49335723Y51637266D01*
X49335715Y51637277D01*
X49183243Y51802903D01*
X49183238Y51802908D01*
X49005577Y51941188D01*
X49005572Y51941192D01*
X48807580Y52048339D01*
X48807577Y52048341D01*
X48807574Y52048342D01*
X48807571Y52048343D01*
X48807569Y52048344D01*
X48594637Y52121444D01*
X48372569Y52158500D01*
X48147431Y52158500D01*
X47925362Y52121444D01*
X47712430Y52048344D01*
X47712419Y52048339D01*
X47514427Y51941192D01*
X47514422Y51941188D01*
X47336761Y51802908D01*
X47273548Y51734240D01*
X47213661Y51698250D01*
X47143823Y51700351D01*
X47086207Y51739876D01*
X47066138Y51774890D01*
X47020889Y51896204D01*
X46987214Y51941188D01*
X46933261Y52013261D01*
X46816204Y52100889D01*
X46679203Y52151989D01*
X46618654Y52158500D01*
X46618638Y52158500D01*
X44821362Y52158500D01*
X44821345Y52158500D01*
X44760797Y52151989D01*
X44760795Y52151989D01*
X44623795Y52100889D01*
X44506739Y52013261D01*
X44419111Y51896205D01*
X44368011Y51759205D01*
X44368011Y51759203D01*
X44361500Y51698655D01*
X44361500Y49901346D01*
X42675212Y49901346D01*
X42700594Y49928918D01*
X42731715Y49962724D01*
X42731717Y49962727D01*
X42731722Y49962732D01*
X42854860Y50151209D01*
X42945296Y50357384D01*
X43000564Y50575632D01*
X43012309Y50717365D01*
X43019156Y50799995D01*
X43019156Y50800006D01*
X43000565Y51024360D01*
X43000563Y51024372D01*
X42945296Y51242615D01*
X42935071Y51265925D01*
X42854860Y51448791D01*
X42838706Y51473516D01*
X42731723Y51637266D01*
X42731715Y51637277D01*
X42579243Y51802903D01*
X42579238Y51802908D01*
X42401577Y51941188D01*
X42401572Y51941192D01*
X42203580Y52048339D01*
X42203577Y52048341D01*
X42203574Y52048342D01*
X42203571Y52048343D01*
X42203569Y52048344D01*
X41990637Y52121444D01*
X41768569Y52158500D01*
X41543431Y52158500D01*
X41321362Y52121444D01*
X41108430Y52048344D01*
X41108419Y52048339D01*
X40910427Y51941192D01*
X40910422Y51941188D01*
X40732761Y51802908D01*
X40732756Y51802903D01*
X40580284Y51637277D01*
X40580276Y51637266D01*
X40489808Y51498794D01*
X40436662Y51453438D01*
X40367431Y51444014D01*
X40304095Y51473516D01*
X40282192Y51498794D01*
X40191723Y51637266D01*
X40191715Y51637277D01*
X40039243Y51802903D01*
X40039238Y51802908D01*
X39861577Y51941188D01*
X39861572Y51941192D01*
X39663580Y52048339D01*
X39663577Y52048341D01*
X39663574Y52048342D01*
X39663571Y52048343D01*
X39663569Y52048344D01*
X39450637Y52121444D01*
X39228569Y52158500D01*
X39003431Y52158500D01*
X38781362Y52121444D01*
X38568430Y52048344D01*
X38568419Y52048339D01*
X38370427Y51941192D01*
X38370422Y51941188D01*
X38192761Y51802908D01*
X38192756Y51802903D01*
X38040284Y51637277D01*
X38040276Y51637266D01*
X37949808Y51498794D01*
X37896662Y51453438D01*
X37827431Y51444014D01*
X37764095Y51473516D01*
X37742192Y51498794D01*
X37651723Y51637266D01*
X37651715Y51637277D01*
X37499243Y51802903D01*
X37499238Y51802908D01*
X37321577Y51941188D01*
X37321572Y51941192D01*
X37123580Y52048339D01*
X37123577Y52048341D01*
X37123574Y52048342D01*
X37123571Y52048343D01*
X37123569Y52048344D01*
X36910637Y52121444D01*
X36688569Y52158500D01*
X36463431Y52158500D01*
X36241362Y52121444D01*
X36028430Y52048344D01*
X36028419Y52048339D01*
X35830427Y51941192D01*
X35830422Y51941188D01*
X35652761Y51802908D01*
X35652756Y51802903D01*
X35500284Y51637277D01*
X35500276Y51637266D01*
X35409808Y51498794D01*
X35356662Y51453438D01*
X35287431Y51444014D01*
X35224095Y51473516D01*
X35202192Y51498794D01*
X35111723Y51637266D01*
X35111715Y51637277D01*
X34959243Y51802903D01*
X34959238Y51802908D01*
X34781577Y51941188D01*
X34781572Y51941192D01*
X34583580Y52048339D01*
X34583577Y52048341D01*
X34583574Y52048342D01*
X34583571Y52048343D01*
X34583569Y52048344D01*
X34370637Y52121444D01*
X34148569Y52158500D01*
X33923431Y52158500D01*
X33701362Y52121444D01*
X33488430Y52048344D01*
X33488419Y52048339D01*
X33290427Y51941192D01*
X33290422Y51941188D01*
X33112761Y51802908D01*
X33112756Y51802903D01*
X32960284Y51637277D01*
X32960276Y51637266D01*
X32869808Y51498794D01*
X32816662Y51453438D01*
X32747431Y51444014D01*
X32684095Y51473516D01*
X32662192Y51498794D01*
X32571723Y51637266D01*
X32571715Y51637277D01*
X32419243Y51802903D01*
X32419238Y51802908D01*
X32241577Y51941188D01*
X32241572Y51941192D01*
X32043580Y52048339D01*
X32043577Y52048341D01*
X32043574Y52048342D01*
X32043571Y52048343D01*
X32043569Y52048344D01*
X31830637Y52121444D01*
X31608569Y52158500D01*
X31383431Y52158500D01*
X31161362Y52121444D01*
X30948430Y52048344D01*
X30948419Y52048339D01*
X30750427Y51941192D01*
X30750422Y51941188D01*
X30572761Y51802908D01*
X30572756Y51802903D01*
X30420284Y51637277D01*
X30420276Y51637266D01*
X30329808Y51498794D01*
X30276662Y51453438D01*
X30207431Y51444014D01*
X30144095Y51473516D01*
X30122192Y51498794D01*
X30031723Y51637266D01*
X30031715Y51637277D01*
X29879243Y51802903D01*
X29879238Y51802908D01*
X29701577Y51941188D01*
X29701572Y51941192D01*
X29503580Y52048339D01*
X29503577Y52048341D01*
X29503574Y52048342D01*
X29503571Y52048343D01*
X29503569Y52048344D01*
X29290637Y52121444D01*
X29068569Y52158500D01*
X28843431Y52158500D01*
X28621362Y52121444D01*
X28408430Y52048344D01*
X28408419Y52048339D01*
X28210427Y51941192D01*
X28210422Y51941188D01*
X28032761Y51802908D01*
X28032756Y51802903D01*
X27880284Y51637277D01*
X27880276Y51637266D01*
X27786251Y51493350D01*
X27733105Y51447993D01*
X27663873Y51438570D01*
X27600538Y51468072D01*
X27580868Y51490049D01*
X27454113Y51671074D01*
X27454108Y51671080D01*
X27287082Y51838106D01*
X27093578Y51973601D01*
X26879492Y52073430D01*
X26879486Y52073433D01*
X26666000Y52130636D01*
X26666000Y51233012D01*
X26608993Y51265925D01*
X26481826Y51300000D01*
X26350174Y51300000D01*
X26223007Y51265925D01*
X26166000Y51233012D01*
X26166000Y52130636D01*
X26165999Y52130636D01*
X25952513Y52073433D01*
X25952507Y52073430D01*
X25738422Y51973601D01*
X25738420Y51973600D01*
X25544926Y51838114D01*
X25544920Y51838109D01*
X25377891Y51671080D01*
X25377890Y51671078D01*
X25251131Y51490048D01*
X25196554Y51446423D01*
X25127055Y51439231D01*
X25064701Y51470753D01*
X25045752Y51493344D01*
X24951722Y51637268D01*
X24951715Y51637275D01*
X24951715Y51637277D01*
X24799243Y51802903D01*
X24799238Y51802908D01*
X24621577Y51941188D01*
X24621572Y51941192D01*
X24423580Y52048339D01*
X24423577Y52048341D01*
X24423574Y52048342D01*
X24423571Y52048343D01*
X24423569Y52048344D01*
X24210637Y52121444D01*
X23988569Y52158500D01*
X23763431Y52158500D01*
X23541362Y52121444D01*
X23328430Y52048344D01*
X23328419Y52048339D01*
X23130427Y51941192D01*
X23130422Y51941188D01*
X22952761Y51802908D01*
X22952756Y51802903D01*
X22800284Y51637277D01*
X22800276Y51637266D01*
X22709808Y51498794D01*
X22656662Y51453438D01*
X22587431Y51444014D01*
X22524095Y51473516D01*
X22502192Y51498794D01*
X22411723Y51637266D01*
X22411715Y51637277D01*
X22259243Y51802903D01*
X22259238Y51802908D01*
X22081577Y51941188D01*
X22081572Y51941192D01*
X21883580Y52048339D01*
X21883577Y52048341D01*
X21883574Y52048342D01*
X21883571Y52048343D01*
X21883569Y52048344D01*
X21670637Y52121444D01*
X21448569Y52158500D01*
X21223431Y52158500D01*
X21001362Y52121444D01*
X20788430Y52048344D01*
X20788419Y52048339D01*
X20590427Y51941192D01*
X20590422Y51941188D01*
X20412761Y51802908D01*
X20349548Y51734240D01*
X20289661Y51698250D01*
X20219823Y51700351D01*
X20162207Y51739876D01*
X20142138Y51774890D01*
X20096889Y51896204D01*
X20063214Y51941188D01*
X20009261Y52013261D01*
X19892204Y52100889D01*
X19755203Y52151989D01*
X19694654Y52158500D01*
X19694638Y52158500D01*
X17897362Y52158500D01*
X17897345Y52158500D01*
X17836797Y52151989D01*
X17836795Y52151989D01*
X17699795Y52100889D01*
X17582739Y52013261D01*
X17495111Y51896205D01*
X17444011Y51759205D01*
X17444011Y51759203D01*
X17437500Y51698655D01*
X17437500Y49901346D01*
X75500Y49901346D01*
X75500Y52571908D01*
X76097Y52584062D01*
X87494Y52699778D01*
X92234Y52723611D01*
X124216Y52829041D01*
X133508Y52851474D01*
X185442Y52948635D01*
X198938Y52968834D01*
X268827Y53053994D01*
X286006Y53071173D01*
X371166Y53141062D01*
X391365Y53154558D01*
X488526Y53206492D01*
X510959Y53215784D01*
X616389Y53247766D01*
X640220Y53252506D01*
X755939Y53263903D01*
X768093Y53264500D01*
X786531Y53264500D01*
X63417365Y53264500D01*
X63484404Y53244815D01*
G37*
%TD.AperFunction*%
%TD*%
D18*
X27940000Y2540000D03*
X30480000Y2540000D03*
X33020000Y2540000D03*
X35560000Y2540000D03*
X38100000Y2540000D03*
X40640000Y2540000D03*
X43180000Y2540000D03*
X45720000Y2540000D03*
X50800000Y2540000D03*
X53340000Y2540000D03*
X55880000Y2540000D03*
X58420000Y2540000D03*
X60960000Y2540000D03*
X63500000Y2540000D03*
X18796000Y50800000D03*
X21336000Y50800000D03*
X23876000Y50800000D03*
X26416000Y50800000D03*
X28956000Y50800000D03*
X31496000Y50800000D03*
X34036000Y50800000D03*
X36576000Y50800000D03*
X39116000Y50800000D03*
X41656000Y50800000D03*
X45720000Y50800000D03*
X48260000Y50800000D03*
X50800000Y50800000D03*
X53340000Y50800000D03*
X55880000Y50800000D03*
X58420000Y50800000D03*
X60960000Y50800000D03*
X63500000Y50800000D03*
X50000000Y43500000D03*
X56500000Y43500000D03*
X56500000Y39000000D03*
X50000000Y39000000D03*
X13690000Y21000000D03*
X21310000Y21000000D03*
X4960000Y28000000D03*
X7500000Y28000000D03*
X15240000Y50800000D03*
X3460000Y16500000D03*
X6000000Y16500000D03*
X40500000Y43000000D03*
X30340000Y43000000D03*
X13970000Y2540000D03*
X66040000Y35560000D03*
X38500000Y27000000D03*
X41040000Y27000000D03*
X35960000Y27000000D03*
X66040000Y7620000D03*
M02*
